<?xml version="1.0" encoding="UTF-8" standalone="no"?>
<svg
   xmlns:osb="http://www.openswatchbook.org/uri/2009/osb"
   xmlns:dc="http://purl.org/dc/elements/1.1/"
   xmlns:cc="http://creativecommons.org/ns#"
   xmlns:rdf="http://www.w3.org/1999/02/22-rdf-syntax-ns#"
   xmlns:svg="http://www.w3.org/2000/svg"
   xmlns="http://www.w3.org/2000/svg"
   xmlns:sodipodi="http://sodipodi.sourceforge.net/DTD/sodipodi-0.dtd"
   xmlns:inkscape="http://www.inkscape.org/namespaces/inkscape"
   width="160mm"
   height="60mm"
   viewBox="0 0 160 60"
   version="1.1"
   id="capacitorsvg"
   inkscape:version="1.0.2-2 (e86c870879, 2021-01-15)"
   sodipodi:docname="Base.svg">
  <sodipodi:namedview
     pagecolor="#ffffff"
     bordercolor="#666666"
     borderopacity="1"
     objecttolerance="10"
     gridtolerance="10"
     guidetolerance="10"
     inkscape:pageopacity="0"
     inkscape:pageshadow="2"
     inkscape:window-width="1368"
     inkscape:window-height="850"
     id="namedview21"
     showgrid="false"
     inkscape:zoom="0.78854015"
     inkscape:cx="376.62823"
     inkscape:cy="234.36791"
     inkscape:window-x="-6"
     inkscape:window-y="-6"
     inkscape:window-maximized="1"
     inkscape:current-layer="draw_layer"
     inkscape:document-rotation="0" />
  <metadata
     id="metadata5">
    <rdf:RDF>
      <cc:Work
         rdf:about="">
        <dc:format>image/svg+xml</dc:format>
        <dc:type
           rdf:resource="http://purl.org/dc/dcmitype/StillImage" />
        <dc:title />
      </cc:Work>
    </rdf:RDF>
  </metadata>
  <defs
     id="defs2">
    <linearGradient
       id="linearGradient2783"
       osb:paint="solid">
      <stop
         style="stop-color:#000000;stop-opacity:1;"
         offset="0"
         id="stop2781" />
    </linearGradient>
  </defs>
  <g
     inkscape:groupmode="layer"
     id="draw_layer"
     transform="translate(0,0)"
     inkscape:label="#draw_layer">
    <path
       id="path22"
       style="fill:#000000;fill-opacity:1;stroke:none;stroke-width:1.933;stroke-linejoin:round;stroke-miterlimit:4;stroke-dasharray:none;stroke-dashoffset:0;stroke-opacity:1"
       d="M 566.91992 75.589844 A 37.795276 37.795276 0 0 0 566.49414 75.59375 A 37.795276 37.795276 0 0 0 566.09375 75.599609 A 37.795276 37.795276 0 0 0 566.08008 75.599609 A 37.795276 37.795276 0 0 0 565.57617 75.615234 A 37.795276 37.795276 0 0 0 565.46094 75.619141 A 37.795276 37.795276 0 0 0 564.94531 75.642578 A 37.795276 37.795276 0 0 0 564.42773 75.673828 A 37.795276 37.795276 0 0 0 563.91211 75.710938 A 37.795276 37.795276 0 0 0 562.88281 75.808594 A 37.795276 37.795276 0 0 0 562.36914 75.867188 A 37.795276 37.795276 0 0 0 562.00586 75.912109 A 37.795276 37.795276 0 0 0 561.95117 75.919922 A 37.795276 37.795276 0 0 0 561.49414 75.984375 A 37.795276 37.795276 0 0 0 561.03711 76.054688 A 37.795276 37.795276 0 0 0 560.83398 76.085938 A 37.795276 37.795276 0 0 0 560.37695 76.162109 A 37.795276 37.795276 0 0 0 558.72656 76.492188 A 37.795276 37.795276 0 0 0 558.22266 76.607422 A 37.795276 37.795276 0 0 0 557.7207 76.730469 A 37.795276 37.795276 0 0 0 557.21875 76.859375 A 37.795276 37.795276 0 0 0 556.69336 77.003906 A 37.795276 37.795276 0 0 0 556.68164 77.007812 A 37.795276 37.795276 0 0 0 556.22461 77.138672 A 37.795276 37.795276 0 0 0 555.72852 77.289062 A 37.795276 37.795276 0 0 0 555.23633 77.445312 A 37.795276 37.795276 0 0 0 554.74609 77.609375 A 37.795276 37.795276 0 0 0 554.25781 77.779297 A 37.795276 37.795276 0 0 0 552.75977 78.347656 A 37.795276 37.795276 0 0 0 552.33008 78.525391 A 37.795276 37.795276 0 0 0 551.85352 78.728516 A 37.795276 37.795276 0 0 0 549.94727 79.621094 A 37.795276 37.795276 0 0 0 549.89453 79.648438 A 37.795276 37.795276 0 0 0 549.48633 79.857422 A 37.795276 37.795276 0 0 0 549.06445 80.080078 A 37.795276 37.795276 0 0 0 548.61133 80.328125 A 37.795276 37.795276 0 0 0 548.58008 80.345703 A 37.795276 37.795276 0 0 0 548.16016 80.582031 A 37.795276 37.795276 0 0 0 547.71289 80.841797 A 37.795276 37.795276 0 0 0 547.26953 81.107422 A 37.795276 37.795276 0 0 0 546.83008 81.378906 A 37.795276 37.795276 0 0 0 546.39453 81.658203 A 37.795276 37.795276 0 0 0 545.96289 81.941406 A 37.795276 37.795276 0 0 0 545.4707 82.273438 A 37.795276 37.795276 0 0 0 545.40625 82.318359 A 37.795276 37.795276 0 0 0 545.04688 82.570312 A 37.795276 37.795276 0 0 0 544.68945 82.828125 A 37.795276 37.795276 0 0 0 543.86133 83.447266 A 37.795276 37.795276 0 0 0 543.45508 83.765625 A 37.795276 37.795276 0 0 0 543.05273 84.089844 A 37.795276 37.795276 0 0 0 542.6543 84.419922 A 37.795276 37.795276 0 0 0 542.25977 84.753906 A 37.795276 37.795276 0 0 0 541.10547 85.791016 A 37.795276 37.795276 0 0 0 540.73047 86.146484 A 37.795276 37.795276 0 0 0 540.35938 86.507812 A 37.795276 37.795276 0 0 0 539.99414 86.873047 A 37.795276 37.795276 0 0 0 539.63477 87.244141 A 37.795276 37.795276 0 0 0 539.28125 87.619141 A 37.795276 37.795276 0 0 0 538.92969 88 A 37.795276 37.795276 0 0 0 538.58594 88.384766 A 37.795276 37.795276 0 0 0 537.91211 89.169922 A 37.795276 37.795276 0 0 0 537.26172 89.972656 A 37.795276 37.795276 0 0 0 536.94336 90.380859 A 37.795276 37.795276 0 0 0 536.63086 90.792969 A 37.795276 37.795276 0 0 0 536.02539 91.630859 A 37.795276 37.795276 0 0 0 535.73047 92.054688 A 37.795276 37.795276 0 0 0 535.1582 92.916016 A 37.795276 37.795276 0 0 0 534.88086 93.353516 A 37.795276 37.795276 0 0 0 533.83398 95.134766 A 37.795276 37.795276 0 0 0 533.58789 95.589844 A 37.795276 37.795276 0 0 0 533.11328 96.507812 A 37.795276 37.795276 0 0 0 532.66406 97.439453 A 37.795276 37.795276 0 0 0 532.24023 98.382812 A 37.795276 37.795276 0 0 0 531.29688 100.78906 A 37.795276 37.795276 0 0 0 530.96484 101.76758 A 37.795276 37.795276 0 0 0 529.32617 109.60547 L 529.32422 109.60547 A 37.795276 37.795276 0 0 0 529.30664 109.77344 A 37.795276 37.795276 0 0 0 529.26172 110.28711 A 37.795276 37.795276 0 0 0 529.22266 110.80273 A 37.795276 37.795276 0 0 0 529.18945 111.31836 A 37.795276 37.795276 0 0 0 529.16602 111.83594 A 37.795276 37.795276 0 0 0 529.14844 112.35156 A 37.795276 37.795276 0 0 0 529.13672 112.86914 A 37.795276 37.795276 0 0 0 529.13477 113.38672 A 37.795276 37.795276 0 0 0 529.13672 113.82031 A 37.795276 37.795276 0 0 0 529.14648 114.33789 A 37.795276 37.795276 0 0 0 529.16211 114.85352 A 37.795276 37.795276 0 0 0 529.18555 115.37109 A 37.795276 37.795276 0 0 0 529.2168 115.88672 A 37.795276 37.795276 0 0 0 529.25391 116.40234 A 37.795276 37.795276 0 0 0 529.29883 116.91797 A 37.795276 37.795276 0 0 0 529.32422 117.16602 L 529.32617 117.16602 A 37.795276 37.795276 0 0 0 529.38086 117.67969 A 37.795276 37.795276 0 0 0 529.44336 118.19336 A 37.795276 37.795276 0 0 0 529.51172 118.70508 A 37.795276 37.795276 0 0 0 529.58789 119.2168 A 37.795276 37.795276 0 0 0 529.96289 121.25 A 37.795276 37.795276 0 0 0 530.07422 121.75586 A 37.795276 37.795276 0 0 0 530.44922 123.25977 A 37.795276 37.795276 0 0 0 531.38086 126.2168 A 37.795276 37.795276 0 0 0 531.74414 127.18359 A 37.795276 37.795276 0 0 0 531.9375 127.66602 A 37.795276 37.795276 0 0 0 532.55273 129.08984 A 37.795276 37.795276 0 0 0 533.22656 130.48633 A 37.795276 37.795276 0 0 0 533.46289 130.94531 A 37.795276 37.795276 0 0 0 533.70703 131.40234 A 37.795276 37.795276 0 0 0 533.95508 131.85352 A 37.795276 37.795276 0 0 0 534.21094 132.30273 A 37.795276 37.795276 0 0 0 534.47266 132.75 A 37.795276 37.795276 0 0 0 534.74023 133.19141 A 37.795276 37.795276 0 0 0 535.01367 133.62891 A 37.795276 37.795276 0 0 0 535.29492 134.06445 A 37.795276 37.795276 0 0 0 535.58008 134.49609 A 37.795276 37.795276 0 0 0 535.86328 134.91211 A 37.795276 37.795276 0 0 0 535.88086 134.93555 A 37.795276 37.795276 0 0 0 536.16992 135.3457 A 37.795276 37.795276 0 0 0 536.47266 135.76367 A 37.795276 37.795276 0 0 0 536.78125 136.17773 A 37.795276 37.795276 0 0 0 537.0957 136.58789 A 37.795276 37.795276 0 0 0 537.41602 136.99414 A 37.795276 37.795276 0 0 0 537.74219 137.39648 A 37.795276 37.795276 0 0 0 538.41016 138.18555 A 37.795276 37.795276 0 0 0 538.75195 138.57227 A 37.795276 37.795276 0 0 0 539.45117 139.33398 A 37.795276 37.795276 0 0 0 539.80859 139.70703 A 37.795276 37.795276 0 0 0 540.17188 140.07617 A 37.795276 37.795276 0 0 0 540.53906 140.43945 A 37.795276 37.795276 0 0 0 540.91211 140.79883 A 37.795276 37.795276 0 0 0 541.28906 141.15234 A 37.795276 37.795276 0 0 0 541.66992 141.5 A 37.795276 37.795276 0 0 0 542.05664 141.8418 A 37.795276 37.795276 0 0 0 542.44922 142.17969 A 37.795276 37.795276 0 0 0 542.8457 142.51172 A 37.795276 37.795276 0 0 0 543.24609 142.83984 A 37.795276 37.795276 0 0 0 543.65039 143.16016 A 37.795276 37.795276 0 0 0 544.06055 143.47656 A 37.795276 37.795276 0 0 0 544.47461 143.78516 A 37.795276 37.795276 0 0 0 544.89258 144.08984 A 37.795276 37.795276 0 0 0 545.31445 144.38867 A 37.795276 37.795276 0 0 0 545.74023 144.68164 A 37.795276 37.795276 0 0 0 546.14453 144.95117 A 37.795276 37.795276 0 0 0 546.14648 144.95312 A 37.795276 37.795276 0 0 0 546.15039 144.95508 A 37.795276 37.795276 0 0 0 546.56641 145.22461 A 37.795276 37.795276 0 0 0 546.59766 145.24414 A 37.795276 37.795276 0 0 0 547.00586 145.50195 A 37.795276 37.795276 0 0 0 547.03906 145.52148 A 37.795276 37.795276 0 0 0 547.41016 145.75 A 37.795276 37.795276 0 0 0 547.96289 146.07617 A 37.795276 37.795276 0 0 0 548.37695 146.3125 A 37.795276 37.795276 0 0 0 548.76172 146.52734 A 37.795276 37.795276 0 0 0 548.80273 146.55078 A 37.795276 37.795276 0 0 0 548.84961 146.57617 A 37.795276 37.795276 0 0 0 548.86719 146.58594 A 37.795276 37.795276 0 0 0 549.28516 146.80859 A 37.795276 37.795276 0 0 0 549.74414 147.04688 A 37.795276 37.795276 0 0 0 550.20508 147.2793 A 37.795276 37.795276 0 0 0 550.59961 147.4707 A 37.795276 37.795276 0 0 0 550.64062 147.49023 A 37.795276 37.795276 0 0 0 550.92969 147.62695 A 37.795276 37.795276 0 0 0 551.25977 147.7793 A 37.795276 37.795276 0 0 0 551.28711 147.79102 A 37.795276 37.795276 0 0 0 551.60938 147.93555 A 37.795276 37.795276 0 0 0 551.99219 148.10352 A 37.795276 37.795276 0 0 0 552.0293 148.11914 A 37.795276 37.795276 0 0 0 552.15039 148.16992 A 37.795276 37.795276 0 0 0 552.56055 148.3418 A 37.795276 37.795276 0 0 0 553.03906 148.53516 A 37.795276 37.795276 0 0 0 553.58984 148.74805 A 37.795276 37.795276 0 0 0 553.95117 148.88281 A 37.795276 37.795276 0 0 0 555.01758 149.25391 A 37.795276 37.795276 0 0 0 555.04688 149.26367 A 37.795276 37.795276 0 0 0 555.47461 149.40234 A 37.795276 37.795276 0 0 0 555.9043 149.53711 A 37.795276 37.795276 0 0 0 556.02539 149.57227 A 37.795276 37.795276 0 0 0 556.4043 149.68555 A 37.795276 37.795276 0 0 0 556.41797 149.68945 A 37.795276 37.795276 0 0 0 556.75195 149.78516 A 37.795276 37.795276 0 0 0 557.17188 149.90039 A 37.795276 37.795276 0 0 0 557.26758 149.92578 A 37.795276 37.795276 0 0 0 557.63281 150.01953 A 37.795276 37.795276 0 0 0 557.99219 150.10742 A 37.795276 37.795276 0 0 0 558.42383 150.21094 A 37.795276 37.795276 0 0 0 559.00391 150.33984 A 37.795276 37.795276 0 0 0 559.43359 150.42969 A 37.795276 37.795276 0 0 0 560 150.54102 A 37.795276 37.795276 0 0 0 560.11719 150.5625 A 37.795276 37.795276 0 0 0 560.41797 150.61523 A 37.795276 37.795276 0 0 0 560.46875 150.625 A 37.795276 37.795276 0 0 0 560.51953 150.63281 A 37.795276 37.795276 0 0 0 560.95703 150.70508 A 37.795276 37.795276 0 0 0 560.98828 150.71094 A 37.795276 37.795276 0 0 0 561.625 150.80664 A 37.795276 37.795276 0 0 0 561.65625 150.81055 A 37.795276 37.795276 0 0 0 561.91602 150.8457 A 37.795276 37.795276 0 0 0 562.30664 150.89648 A 37.795276 37.795276 0 0 0 562.74609 150.94922 A 37.795276 37.795276 0 0 0 562.85547 150.96094 A 37.795276 37.795276 0 0 0 563.27148 151.00391 A 37.795276 37.795276 0 0 0 563.64453 151.03711 A 37.795276 37.795276 0 0 0 563.92578 151.0625 A 37.795276 37.795276 0 0 0 563.95898 151.06445 A 37.795276 37.795276 0 0 0 564.3457 151.0918 A 37.795276 37.795276 0 0 0 564.78516 151.11914 A 37.795276 37.795276 0 0 0 564.91602 151.12695 A 37.795276 37.795276 0 0 0 565.37891 151.14844 A 37.795276 37.795276 0 0 0 565.89453 151.16602 A 37.795276 37.795276 0 0 0 566.41211 151.17773 A 37.795276 37.795276 0 0 0 566.92969 151.18164 A 37.795276 37.795276 0 0 0 566.93164 151.18164 A 37.795276 37.795276 0 0 0 567.36328 151.17773 A 37.795276 37.795276 0 0 0 567.78711 151.17188 A 37.795276 37.795276 0 0 0 568.39648 151.15234 A 37.795276 37.795276 0 0 0 568.91406 151.12891 A 37.795276 37.795276 0 0 0 569.42969 151.09766 A 37.795276 37.795276 0 0 0 569.94531 151.06055 A 37.795276 37.795276 0 0 0 570.41406 151.01953 A 37.795276 37.795276 0 0 0 570.67383 150.99414 A 37.795276 37.795276 0 0 0 571.05078 150.95508 A 37.795276 37.795276 0 0 0 571.05859 150.95508 A 37.795276 37.795276 0 0 0 571.48828 150.9043 A 37.795276 37.795276 0 0 0 571.92969 150.84961 A 37.795276 37.795276 0 0 0 572.11719 150.82227 A 37.795276 37.795276 0 0 0 572.51367 150.76562 A 37.795276 37.795276 0 0 0 573.02344 150.68555 A 37.795276 37.795276 0 0 0 573.5332 150.59961 A 37.795276 37.795276 0 0 0 574.04102 150.50586 A 37.795276 37.795276 0 0 0 574.54883 150.4043 A 37.795276 37.795276 0 0 0 575.05469 150.29688 A 37.795276 37.795276 0 0 0 576.06055 150.06055 A 37.795276 37.795276 0 0 0 577.06055 149.79688 A 37.795276 37.795276 0 0 0 577.47461 149.67969 A 37.795276 37.795276 0 0 0 577.82422 149.57617 A 37.795276 37.795276 0 0 0 578.13477 149.48242 A 37.795276 37.795276 0 0 0 578.54492 149.35156 A 37.795276 37.795276 0 0 0 579.03711 149.18945 A 37.795276 37.795276 0 0 0 579.52539 149.01953 A 37.795276 37.795276 0 0 0 580.00781 148.84766 A 37.795276 37.795276 0 0 0 580.01172 148.8457 A 37.795276 37.795276 0 0 0 580.49609 148.66211 A 37.795276 37.795276 0 0 0 580.97266 148.47656 A 37.795276 37.795276 0 0 0 581.45508 148.27734 A 37.795276 37.795276 0 0 0 581.93164 148.07617 A 37.795276 37.795276 0 0 0 582.4043 147.86719 A 37.795276 37.795276 0 0 0 582.875 147.65234 A 37.795276 37.795276 0 0 0 583.3418 147.43164 A 37.795276 37.795276 0 0 0 583.80469 147.20312 A 37.795276 37.795276 0 0 0 584.26562 146.9707 A 37.795276 37.795276 0 0 0 584.72656 146.72852 A 37.795276 37.795276 0 0 0 585.17773 146.48242 A 37.795276 37.795276 0 0 0 585.62891 146.23047 A 37.795276 37.795276 0 0 0 586.07812 145.9707 A 37.795276 37.795276 0 0 0 586.52148 145.70703 A 37.795276 37.795276 0 0 0 586.96094 145.43555 A 37.795276 37.795276 0 0 0 587.39844 145.1582 A 37.795276 37.795276 0 0 0 587.83008 144.875 A 37.795276 37.795276 0 0 0 588.25977 144.58789 A 37.795276 37.795276 0 0 0 588.68359 144.29297 A 37.795276 37.795276 0 0 0 589.10547 143.99219 A 37.795276 37.795276 0 0 0 589.52148 143.68555 A 37.795276 37.795276 0 0 0 589.93359 143.37305 A 37.795276 37.795276 0 0 0 590.3418 143.05664 A 37.795276 37.795276 0 0 0 590.74609 142.73242 A 37.795276 37.795276 0 0 0 591.14453 142.4043 A 37.795276 37.795276 0 0 0 591.53906 142.07031 A 37.795276 37.795276 0 0 0 591.92578 141.73633 A 37.795276 37.795276 0 0 0 592.31445 141.38672 A 37.795276 37.795276 0 0 0 592.69531 141.03711 A 37.795276 37.795276 0 0 0 593.07031 140.68164 A 37.795276 37.795276 0 0 0 593.44141 140.32227 A 37.795276 37.795276 0 0 0 593.80859 139.95703 A 37.795276 37.795276 0 0 0 593.86719 139.89844 A 37.795276 37.795276 0 0 0 594.16797 139.58594 A 37.795276 37.795276 0 0 0 594.52344 139.21094 A 37.795276 37.795276 0 0 0 594.875 138.83203 A 37.795276 37.795276 0 0 0 595.2207 138.44727 A 37.795276 37.795276 0 0 0 595.56055 138.05859 A 37.795276 37.795276 0 0 0 595.89453 137.66406 A 37.795276 37.795276 0 0 0 596.22461 137.26562 A 37.795276 37.795276 0 0 0 596.54883 136.86328 A 37.795276 37.795276 0 0 0 596.86719 136.45508 A 37.795276 37.795276 0 0 0 597.17969 136.04297 A 37.795276 37.795276 0 0 0 597.48633 135.62891 A 37.795276 37.795276 0 0 0 597.78906 135.20703 A 37.795276 37.795276 0 0 0 598.08398 134.7832 A 37.795276 37.795276 0 0 0 598.37305 134.35547 A 37.795276 37.795276 0 0 0 598.6582 133.92383 A 37.795276 37.795276 0 0 0 598.93555 133.48828 A 37.795276 37.795276 0 0 0 599.20703 133.04883 A 37.795276 37.795276 0 0 0 599.47266 132.60547 A 37.795276 37.795276 0 0 0 599.73242 132.1582 A 37.795276 37.795276 0 0 0 599.98633 131.70703 A 37.795276 37.795276 0 0 0 600.23438 131.25391 A 37.795276 37.795276 0 0 0 600.47461 130.79688 A 37.795276 37.795276 0 0 0 600.71094 130.33594 A 37.795276 37.795276 0 0 0 600.93945 129.87305 A 37.795276 37.795276 0 0 0 601.16211 129.40625 A 37.795276 37.795276 0 0 0 601.37695 128.93555 A 37.795276 37.795276 0 0 0 601.58594 128.46289 A 37.795276 37.795276 0 0 0 601.78906 127.98828 A 37.795276 37.795276 0 0 0 601.98633 127.50977 A 37.795276 37.795276 0 0 0 602.17578 127.0293 A 37.795276 37.795276 0 0 0 602.35938 126.54492 A 37.795276 37.795276 0 0 0 602.53711 126.05859 A 37.795276 37.795276 0 0 0 602.70703 125.57227 A 37.795276 37.795276 0 0 0 602.86914 125.08008 A 37.795276 37.795276 0 0 0 603.02539 124.58789 A 37.795276 37.795276 0 0 0 603.17578 124.09375 A 37.795276 37.795276 0 0 0 603.31836 123.5957 A 37.795276 37.795276 0 0 0 603.45508 123.09766 A 37.795276 37.795276 0 0 0 603.58398 122.59766 A 37.795276 37.795276 0 0 0 603.70703 122.0957 A 37.795276 37.795276 0 0 0 603.82227 121.5918 A 37.795276 37.795276 0 0 0 603.93164 121.08594 A 37.795276 37.795276 0 0 0 604.0332 120.58008 A 37.795276 37.795276 0 0 0 604.12891 120.07031 A 37.795276 37.795276 0 0 0 604.2168 119.5625 A 37.795276 37.795276 0 0 0 604.29688 119.05078 A 37.795276 37.795276 0 0 0 604.37109 118.53906 A 37.795276 37.795276 0 0 0 604.4375 118.02734 A 37.795276 37.795276 0 0 0 604.49805 117.51367 A 37.795276 37.795276 0 0 0 604.55078 117 A 37.795276 37.795276 0 0 0 604.59766 116.48438 A 37.795276 37.795276 0 0 0 604.63672 115.96875 A 37.795276 37.795276 0 0 0 604.66797 115.45312 A 37.795276 37.795276 0 0 0 604.69336 114.93555 A 37.795276 37.795276 0 0 0 604.71094 114.41992 A 37.795276 37.795276 0 0 0 604.7207 113.90234 A 37.795276 37.795276 0 0 0 604.72461 113.38672 A 37.795276 37.795276 0 0 0 604.72266 112.95117 A 37.795276 37.795276 0 0 0 604.71289 112.43359 A 37.795276 37.795276 0 0 0 604.69531 111.91797 A 37.795276 37.795276 0 0 0 604.67188 111.40039 A 37.795276 37.795276 0 0 0 604.64062 110.88477 A 37.795276 37.795276 0 0 0 604.60352 110.36914 A 37.795276 37.795276 0 0 0 604.55859 109.85547 A 37.795276 37.795276 0 0 0 604.50781 109.33984 A 37.795276 37.795276 0 0 0 604.44922 108.82617 A 37.795276 37.795276 0 0 0 604.38281 108.31445 A 37.795276 37.795276 0 0 0 604.31055 107.80273 A 37.795276 37.795276 0 0 0 604.23047 107.29102 A 37.795276 37.795276 0 0 0 604.14258 106.78125 A 37.795276 37.795276 0 0 0 604.04883 106.27344 A 37.795276 37.795276 0 0 0 603.94922 105.76562 A 37.795276 37.795276 0 0 0 603.83984 105.25977 A 37.795276 37.795276 0 0 0 603.72656 104.75586 A 37.795276 37.795276 0 0 0 603.60547 104.25391 A 37.795276 37.795276 0 0 0 603.47656 103.75391 A 37.795276 37.795276 0 0 0 603.3418 103.25391 A 37.795276 37.795276 0 0 0 603.19922 102.75781 A 37.795276 37.795276 0 0 0 603.05078 102.26172 A 37.795276 37.795276 0 0 0 602.89453 101.76953 A 37.795276 37.795276 0 0 0 602.73242 101.27734 A 37.795276 37.795276 0 0 0 602.56445 100.78906 A 37.795276 37.795276 0 0 0 602.38867 100.30273 A 37.795276 37.795276 0 0 0 602.20508 99.820312 A 37.795276 37.795276 0 0 0 602.01758 99.337891 A 37.795276 37.795276 0 0 0 601.82227 98.859375 A 37.795276 37.795276 0 0 0 601.61914 98.384766 A 37.795276 37.795276 0 0 0 601.41211 97.910156 A 37.795276 37.795276 0 0 0 601.19531 97.441406 A 37.795276 37.795276 0 0 0 600.97461 96.972656 A 37.795276 37.795276 0 0 0 600.74805 96.509766 A 37.795276 37.795276 0 0 0 600.51367 96.048828 A 37.795276 37.795276 0 0 0 600.27344 95.589844 A 37.795276 37.795276 0 0 0 600.23633 95.519531 A 37.795276 37.795276 0 0 0 600.02734 95.136719 A 37.795276 37.795276 0 0 0 599.77344 94.685547 A 37.795276 37.795276 0 0 0 599.51562 94.238281 A 37.795276 37.795276 0 0 0 599.25 93.792969 A 37.795276 37.795276 0 0 0 598.97852 93.353516 A 37.795276 37.795276 0 0 0 598.70117 92.917969 A 37.795276 37.795276 0 0 0 598.41992 92.484375 A 37.795276 37.795276 0 0 0 598.13086 92.056641 A 37.795276 37.795276 0 0 0 597.83594 91.630859 A 37.795276 37.795276 0 0 0 597.53516 91.210938 A 37.795276 37.795276 0 0 0 597.22852 90.792969 A 37.795276 37.795276 0 0 0 596.91797 90.380859 A 37.795276 37.795276 0 0 0 596.86914 90.316406 A 37.795276 37.795276 0 0 0 596.59961 89.972656 A 37.795276 37.795276 0 0 0 596.27734 89.570312 A 37.795276 37.795276 0 0 0 595.94727 89.169922 A 37.795276 37.795276 0 0 0 595.61523 88.775391 A 37.795276 37.795276 0 0 0 595.27539 88.386719 A 37.795276 37.795276 0 0 0 594.92969 88 A 37.795276 37.795276 0 0 0 594.58008 87.619141 A 37.795276 37.795276 0 0 0 594.22461 87.244141 A 37.795276 37.795276 0 0 0 593.86523 86.873047 A 37.795276 37.795276 0 0 0 593.5 86.507812 A 37.795276 37.795276 0 0 0 593.13086 86.146484 A 37.795276 37.795276 0 0 0 592.75586 85.791016 A 37.795276 37.795276 0 0 0 592.375 85.439453 A 37.795276 37.795276 0 0 0 591.99023 85.09375 A 37.795276 37.795276 0 0 0 591.60156 84.753906 A 37.795276 37.795276 0 0 0 591.20703 84.419922 A 37.795276 37.795276 0 0 0 590.80859 84.089844 A 37.795276 37.795276 0 0 0 590.40625 83.765625 A 37.795276 37.795276 0 0 0 589.99805 83.447266 A 37.795276 37.795276 0 0 0 589.58789 83.134766 A 37.795276 37.795276 0 0 0 589.17188 82.828125 A 37.795276 37.795276 0 0 0 588.75195 82.527344 A 37.795276 37.795276 0 0 0 588.32617 82.230469 A 37.795276 37.795276 0 0 0 587.89844 81.941406 A 37.795276 37.795276 0 0 0 587.4668 81.658203 A 37.795276 37.795276 0 0 0 587.03125 81.378906 A 37.795276 37.795276 0 0 0 586.5918 81.107422 A 37.795276 37.795276 0 0 0 586.14844 80.841797 A 37.795276 37.795276 0 0 0 585.70117 80.582031 A 37.795276 37.795276 0 0 0 585.25 80.328125 A 37.795276 37.795276 0 0 0 584.79688 80.080078 A 37.795276 37.795276 0 0 0 584.33984 79.839844 A 37.795276 37.795276 0 0 0 583.87891 79.605469 A 37.795276 37.795276 0 0 0 583.41602 79.375 A 37.795276 37.795276 0 0 0 582.94922 79.154297 A 37.795276 37.795276 0 0 0 582.47852 78.9375 A 37.795276 37.795276 0 0 0 582.00586 78.728516 A 37.795276 37.795276 0 0 0 581.53125 78.525391 A 37.795276 37.795276 0 0 0 581.10156 78.347656 A 37.795276 37.795276 0 0 0 580.13672 77.974609 A 37.795276 37.795276 0 0 0 579.6875 77.810547 A 37.795276 37.795276 0 0 0 579.60352 77.779297 A 37.795276 37.795276 0 0 0 579.11523 77.609375 A 37.795276 37.795276 0 0 0 578.625 77.445312 A 37.795276 37.795276 0 0 0 578.13086 77.289062 A 37.795276 37.795276 0 0 0 577.63672 77.138672 A 37.795276 37.795276 0 0 0 577.14062 76.996094 A 37.795276 37.795276 0 0 0 576.64062 76.859375 A 37.795276 37.795276 0 0 0 576.14062 76.730469 A 37.795276 37.795276 0 0 0 575.63867 76.607422 A 37.795276 37.795276 0 0 0 575.13477 76.492188 A 37.795276 37.795276 0 0 0 574.62891 76.382812 A 37.795276 37.795276 0 0 0 574.12305 76.28125 A 37.795276 37.795276 0 0 0 573.10547 76.097656 A 37.795276 37.795276 0 0 0 572.59375 76.017578 A 37.795276 37.795276 0 0 0 572.08203 75.943359 A 37.795276 37.795276 0 0 0 571.57031 75.876953 A 37.795276 37.795276 0 0 0 571.05664 75.816406 A 37.795276 37.795276 0 0 0 570.54297 75.763672 A 37.795276 37.795276 0 0 0 569.94922 75.710938 A 37.795276 37.795276 0 0 0 569.51172 75.679688 A 37.795276 37.795276 0 0 0 569.06641 75.650391 A 37.795276 37.795276 0 0 0 568.87891 75.640625 A 37.795276 37.795276 0 0 0 568.48047 75.623047 A 37.795276 37.795276 0 0 0 567.96289 75.605469 A 37.795276 37.795276 0 0 0 567.44531 75.59375 A 37.795276 37.795276 0 0 0 566.93164 75.589844 A 37.795276 37.795276 0 0 0 566.91992 75.589844 z M 566.92969 81.259766 A 32.125863 32.126909 0 0 1 599.05469 113.38672 A 32.125863 32.126909 0 0 1 566.92969 145.51172 A 32.125863 32.126909 0 0 1 534.80273 113.38672 A 32.125863 32.126909 0 0 1 566.92969 81.259766 z "
       transform="scale(0.26458333)" />
    <path
       id="path22-7"
       style="fill:#000000;fill-opacity:1;stroke:none;stroke-width:1.9329;stroke-linejoin:round;stroke-miterlimit:4;stroke-dasharray:none;stroke-dashoffset:0;stroke-opacity:1"
       d="M 37.785156 75.589844 A 37.79295 37.793514 0 0 0 37.359375 75.59375 A 37.79295 37.793514 0 0 0 36.958984 75.599609 A 37.79295 37.793514 0 0 0 36.943359 75.599609 A 37.79295 37.793514 0 0 0 36.439453 75.615234 A 37.79295 37.793514 0 0 0 36.324219 75.619141 A 37.79295 37.793514 0 0 0 35.808594 75.642578 A 37.79295 37.793514 0 0 0 35.291016 75.673828 A 37.79295 37.793514 0 0 0 34.775391 75.710938 A 37.79295 37.793514 0 0 0 33.746094 75.808594 A 37.79295 37.793514 0 0 0 33.232422 75.867188 A 37.79295 37.793514 0 0 0 32.869141 75.912109 A 37.79295 37.793514 0 0 0 32.814453 75.919922 A 37.79295 37.793514 0 0 0 32.357422 75.984375 A 37.79295 37.793514 0 0 0 31.900391 76.054688 A 37.79295 37.793514 0 0 0 31.699219 76.085938 A 37.79295 37.793514 0 0 0 31.242188 76.162109 A 37.79295 37.793514 0 0 0 29.591797 76.492188 A 37.79295 37.793514 0 0 0 29.087891 76.607422 A 37.79295 37.793514 0 0 0 28.585938 76.730469 A 37.79295 37.793514 0 0 0 28.083984 76.859375 A 37.79295 37.793514 0 0 0 27.558594 77.003906 A 37.79295 37.793514 0 0 0 27.546875 77.007812 A 37.79295 37.793514 0 0 0 27.089844 77.138672 A 37.79295 37.793514 0 0 0 26.59375 77.289062 A 37.79295 37.793514 0 0 0 26.101562 77.445312 A 37.79295 37.793514 0 0 0 25.611328 77.609375 A 37.79295 37.793514 0 0 0 25.123047 77.779297 A 37.79295 37.793514 0 0 0 23.625 78.347656 A 37.79295 37.793514 0 0 0 23.195312 78.525391 A 37.79295 37.793514 0 0 0 22.71875 78.728516 A 37.79295 37.793514 0 0 0 20.8125 79.621094 A 37.79295 37.793514 0 0 0 20.759766 79.648438 A 37.79295 37.793514 0 0 0 20.351562 79.857422 A 37.79295 37.793514 0 0 0 19.929688 80.080078 A 37.79295 37.793514 0 0 0 19.476562 80.328125 A 37.79295 37.793514 0 0 0 19.447266 80.345703 A 37.79295 37.793514 0 0 0 19.027344 80.582031 A 37.79295 37.793514 0 0 0 18.580078 80.841797 A 37.79295 37.793514 0 0 0 18.136719 81.107422 A 37.79295 37.793514 0 0 0 17.697266 81.378906 A 37.79295 37.793514 0 0 0 17.261719 81.658203 A 37.79295 37.793514 0 0 0 16.830078 81.941406 A 37.79295 37.793514 0 0 0 16.337891 82.273438 A 37.79295 37.793514 0 0 0 16.273438 82.318359 A 37.79295 37.793514 0 0 0 15.914062 82.570312 A 37.79295 37.793514 0 0 0 15.556641 82.828125 A 37.79295 37.793514 0 0 0 14.728516 83.447266 A 37.79295 37.793514 0 0 0 14.322266 83.765625 A 37.79295 37.793514 0 0 0 13.919922 84.089844 A 37.79295 37.793514 0 0 0 13.521484 84.419922 A 37.79295 37.793514 0 0 0 13.126953 84.753906 A 37.79295 37.793514 0 0 0 11.972656 85.791016 A 37.79295 37.793514 0 0 0 11.597656 86.146484 A 37.79295 37.793514 0 0 0 11.226562 86.507812 A 37.79295 37.793514 0 0 0 10.861328 86.873047 A 37.79295 37.793514 0 0 0 10.501953 87.244141 A 37.79295 37.793514 0 0 0 10.148438 87.619141 A 37.79295 37.793514 0 0 0 9.796875 88 A 37.79295 37.793514 0 0 0 9.453125 88.384766 A 37.79295 37.793514 0 0 0 8.7792969 89.169922 A 37.79295 37.793514 0 0 0 8.1289062 89.972656 A 37.79295 37.793514 0 0 0 7.8105469 90.380859 A 37.79295 37.793514 0 0 0 7.4980469 90.792969 A 37.79295 37.793514 0 0 0 6.8925781 91.630859 A 37.79295 37.793514 0 0 0 6.5976562 92.054688 A 37.79295 37.793514 0 0 0 6.0253906 92.916016 A 37.79295 37.793514 0 0 0 5.7480469 93.353516 A 37.79295 37.793514 0 0 0 4.7011719 95.134766 A 37.79295 37.793514 0 0 0 4.4550781 95.589844 A 37.79295 37.793514 0 0 0 3.9804688 96.507812 A 37.79295 37.793514 0 0 0 3.53125 97.439453 A 37.79295 37.793514 0 0 0 3.1074219 98.382812 A 37.79295 37.793514 0 0 0 2.1640625 100.78906 A 37.79295 37.793514 0 0 0 1.8320312 101.76758 A 37.79295 37.793514 0 0 0 0.19335938 109.60547 L 0.19140625 109.60547 A 37.79295 37.793514 0 0 0 0.17382812 109.77344 A 37.79295 37.793514 0 0 0 0.12890625 110.28711 A 37.79295 37.793514 0 0 0 0.08984375 110.80273 A 37.79295 37.793514 0 0 0 0.0546875 111.31836 A 37.79295 37.793514 0 0 0 0.033203125 111.83594 A 37.79295 37.793514 0 0 0 0.013671875 112.35156 A 37.79295 37.793514 0 0 0 0.001953125 112.86914 A 37.79295 37.793514 0 0 0 0 113.38672 A 37.79295 37.793514 0 0 0 0.001953125 113.82031 A 37.79295 37.793514 0 0 0 0.013671875 114.33789 A 37.79295 37.793514 0 0 0 0.029296875 114.85352 A 37.79295 37.793514 0 0 0 0.05078125 115.37109 A 37.79295 37.793514 0 0 0 0.08203125 115.88672 A 37.79295 37.793514 0 0 0 0.11914062 116.40234 A 37.79295 37.793514 0 0 0 0.1640625 116.91797 A 37.79295 37.793514 0 0 0 0.19140625 117.16602 L 0.19335938 117.16602 A 37.79295 37.793514 0 0 0 0.24804688 117.67969 A 37.79295 37.793514 0 0 0 0.31054688 118.19336 A 37.79295 37.793514 0 0 0 0.37890625 118.70508 A 37.79295 37.793514 0 0 0 0.45507812 119.2168 A 37.79295 37.793514 0 0 0 0.83007812 121.25 A 37.79295 37.793514 0 0 0 0.94140625 121.75586 A 37.79295 37.793514 0 0 0 1.3164062 123.25977 A 37.79295 37.793514 0 0 0 2.2480469 126.2168 A 37.79295 37.793514 0 0 0 2.6113281 127.18359 A 37.79295 37.793514 0 0 0 2.8046875 127.66406 A 37.79295 37.793514 0 0 0 3.4199219 129.08789 A 37.79295 37.793514 0 0 0 4.09375 130.48438 A 37.79295 37.793514 0 0 0 4.3300781 130.94336 A 37.79295 37.793514 0 0 0 4.5742188 131.40039 A 37.79295 37.793514 0 0 0 4.8222656 131.85156 A 37.79295 37.793514 0 0 0 5.078125 132.30078 A 37.79295 37.793514 0 0 0 5.3398438 132.74805 A 37.79295 37.793514 0 0 0 5.6074219 133.18945 A 37.79295 37.793514 0 0 0 5.8808594 133.62695 A 37.79295 37.793514 0 0 0 6.1621094 134.0625 A 37.79295 37.793514 0 0 0 6.4472656 134.49414 A 37.79295 37.793514 0 0 0 6.7304688 134.91016 A 37.79295 37.793514 0 0 0 6.7480469 134.93359 A 37.79295 37.793514 0 0 0 7.0371094 135.34375 A 37.79295 37.793514 0 0 0 7.3398438 135.76172 A 37.79295 37.793514 0 0 0 7.6484375 136.17578 A 37.79295 37.793514 0 0 0 7.9628906 136.58594 A 37.79295 37.793514 0 0 0 8.2832031 136.99219 A 37.79295 37.793514 0 0 0 8.609375 137.39453 A 37.79295 37.793514 0 0 0 9.2773438 138.18359 A 37.79295 37.793514 0 0 0 9.6191406 138.57031 A 37.79295 37.793514 0 0 0 10.318359 139.33203 A 37.79295 37.793514 0 0 0 10.675781 139.70508 A 37.79295 37.793514 0 0 0 11.039062 140.07422 A 37.79295 37.793514 0 0 0 11.40625 140.4375 A 37.79295 37.793514 0 0 0 11.779297 140.79688 A 37.79295 37.793514 0 0 0 12.15625 141.15039 A 37.79295 37.793514 0 0 0 12.537109 141.49805 A 37.79295 37.793514 0 0 0 12.923828 141.83984 A 37.79295 37.793514 0 0 0 13.316406 142.17773 A 37.79295 37.793514 0 0 0 13.712891 142.50977 A 37.79295 37.793514 0 0 0 14.113281 142.83789 A 37.79295 37.793514 0 0 0 14.517578 143.1582 A 37.79295 37.793514 0 0 0 14.927734 143.47461 A 37.79295 37.793514 0 0 0 15.341797 143.7832 A 37.79295 37.793514 0 0 0 15.759766 144.08789 A 37.79295 37.793514 0 0 0 16.181641 144.38672 A 37.79295 37.793514 0 0 0 16.607422 144.67969 A 37.79295 37.793514 0 0 0 17.011719 144.94922 A 37.79295 37.793514 0 0 0 17.013672 144.95117 A 37.79295 37.793514 0 0 0 17.017578 144.95312 A 37.79295 37.793514 0 0 0 17.433594 145.22266 A 37.79295 37.793514 0 0 0 17.462891 145.24219 A 37.79295 37.793514 0 0 0 17.871094 145.5 A 37.79295 37.793514 0 0 0 17.90625 145.51953 A 37.79295 37.793514 0 0 0 18.277344 145.74805 A 37.79295 37.793514 0 0 0 18.830078 146.07422 A 37.79295 37.793514 0 0 0 19.244141 146.31055 A 37.79295 37.793514 0 0 0 19.628906 146.52539 A 37.79295 37.793514 0 0 0 19.669922 146.54883 A 37.79295 37.793514 0 0 0 19.716797 146.57422 A 37.79295 37.793514 0 0 0 19.734375 146.58398 A 37.79295 37.793514 0 0 0 20.152344 146.80664 A 37.79295 37.793514 0 0 0 20.611328 147.04492 A 37.79295 37.793514 0 0 0 21.072266 147.27734 A 37.79295 37.793514 0 0 0 21.466797 147.46875 A 37.79295 37.793514 0 0 0 21.507812 147.48828 A 37.79295 37.793514 0 0 0 21.796875 147.625 A 37.79295 37.793514 0 0 0 22.126953 147.77734 A 37.79295 37.793514 0 0 0 22.154297 147.78906 A 37.79295 37.793514 0 0 0 22.476562 147.93359 A 37.79295 37.793514 0 0 0 22.859375 148.10156 A 37.79295 37.793514 0 0 0 22.896484 148.11719 A 37.79295 37.793514 0 0 0 23.017578 148.16797 A 37.79295 37.793514 0 0 0 23.427734 148.33984 A 37.79295 37.793514 0 0 0 23.90625 148.5332 A 37.79295 37.793514 0 0 0 24.457031 148.74609 A 37.79295 37.793514 0 0 0 24.818359 148.88086 A 37.79295 37.793514 0 0 0 25.884766 149.25195 A 37.79295 37.793514 0 0 0 25.916016 149.26172 A 37.79295 37.793514 0 0 0 26.34375 149.40039 A 37.79295 37.793514 0 0 0 26.773438 149.53516 A 37.79295 37.793514 0 0 0 26.892578 149.57031 A 37.79295 37.793514 0 0 0 27.271484 149.68359 A 37.79295 37.793514 0 0 0 27.287109 149.6875 A 37.79295 37.793514 0 0 0 27.621094 149.7832 A 37.79295 37.793514 0 0 0 28.041016 149.89844 A 37.79295 37.793514 0 0 0 28.136719 149.92383 A 37.79295 37.793514 0 0 0 28.501953 150.01758 A 37.79295 37.793514 0 0 0 28.861328 150.10547 A 37.79295 37.793514 0 0 0 29.292969 150.20898 A 37.79295 37.793514 0 0 0 29.873047 150.33789 A 37.79295 37.793514 0 0 0 30.302734 150.42773 A 37.79295 37.793514 0 0 0 30.869141 150.53906 A 37.79295 37.793514 0 0 0 30.986328 150.56055 A 37.79295 37.793514 0 0 0 31.287109 150.61328 A 37.79295 37.793514 0 0 0 31.337891 150.62305 A 37.79295 37.793514 0 0 0 31.388672 150.63281 A 37.79295 37.793514 0 0 0 31.826172 150.70508 A 37.79295 37.793514 0 0 0 31.855469 150.71094 A 37.79295 37.793514 0 0 0 32.492188 150.80664 A 37.79295 37.793514 0 0 0 32.523438 150.81055 A 37.79295 37.793514 0 0 0 32.783203 150.8457 A 37.79295 37.793514 0 0 0 33.173828 150.89648 A 37.79295 37.793514 0 0 0 33.613281 150.94922 A 37.79295 37.793514 0 0 0 33.722656 150.96094 A 37.79295 37.793514 0 0 0 34.138672 151.00391 A 37.79295 37.793514 0 0 0 34.511719 151.03711 A 37.79295 37.793514 0 0 0 34.792969 151.0625 A 37.79295 37.793514 0 0 0 34.826172 151.06445 A 37.79295 37.793514 0 0 0 35.212891 151.0918 A 37.79295 37.793514 0 0 0 35.652344 151.11914 A 37.79295 37.793514 0 0 0 35.783203 151.12695 A 37.79295 37.793514 0 0 0 36.246094 151.14844 A 37.79295 37.793514 0 0 0 36.761719 151.16602 A 37.79295 37.793514 0 0 0 37.279297 151.17773 A 37.79295 37.793514 0 0 0 37.796875 151.18164 A 37.79295 37.793514 0 0 0 37.798828 151.18164 A 37.79295 37.793514 0 0 0 38.230469 151.17773 A 37.79295 37.793514 0 0 0 38.654297 151.17188 A 37.79295 37.793514 0 0 0 39.263672 151.15234 A 37.79295 37.793514 0 0 0 39.78125 151.12891 A 37.79295 37.793514 0 0 0 40.296875 151.09766 A 37.79295 37.793514 0 0 0 40.8125 151.06055 A 37.79295 37.793514 0 0 0 41.28125 151.01953 A 37.79295 37.793514 0 0 0 41.541016 150.99414 A 37.79295 37.793514 0 0 0 41.917969 150.95508 A 37.79295 37.793514 0 0 0 41.925781 150.95508 A 37.79295 37.793514 0 0 0 42.355469 150.9043 A 37.79295 37.793514 0 0 0 42.796875 150.84961 A 37.79295 37.793514 0 0 0 42.984375 150.82227 A 37.79295 37.793514 0 0 0 43.380859 150.76562 A 37.79295 37.793514 0 0 0 43.890625 150.68555 A 37.79295 37.793514 0 0 0 44.398438 150.59961 A 37.79295 37.793514 0 0 0 44.90625 150.50586 A 37.79295 37.793514 0 0 0 45.414062 150.4043 A 37.79295 37.793514 0 0 0 45.919922 150.29688 A 37.79295 37.793514 0 0 0 46.925781 150.06055 A 37.79295 37.793514 0 0 0 47.925781 149.79688 A 37.79295 37.793514 0 0 0 48.339844 149.67969 A 37.79295 37.793514 0 0 0 48.689453 149.57617 A 37.79295 37.793514 0 0 0 49 149.48242 A 37.79295 37.793514 0 0 0 49.410156 149.35156 A 37.79295 37.793514 0 0 0 49.902344 149.18945 A 37.79295 37.793514 0 0 0 50.390625 149.01953 A 37.79295 37.793514 0 0 0 50.873047 148.84766 A 37.79295 37.793514 0 0 0 50.876953 148.8457 A 37.79295 37.793514 0 0 0 51.361328 148.66211 A 37.79295 37.793514 0 0 0 51.837891 148.47656 A 37.79295 37.793514 0 0 0 52.320312 148.27734 A 37.79295 37.793514 0 0 0 52.796875 148.07617 A 37.79295 37.793514 0 0 0 53.269531 147.86719 A 37.79295 37.793514 0 0 0 53.740234 147.65234 A 37.79295 37.793514 0 0 0 54.207031 147.43164 A 37.79295 37.793514 0 0 0 54.669922 147.20312 A 37.79295 37.793514 0 0 0 55.130859 146.9707 A 37.79295 37.793514 0 0 0 55.591797 146.72852 A 37.79295 37.793514 0 0 0 56.042969 146.48242 A 37.79295 37.793514 0 0 0 56.494141 146.23047 A 37.79295 37.793514 0 0 0 56.943359 145.9707 A 37.79295 37.793514 0 0 0 57.386719 145.70703 A 37.79295 37.793514 0 0 0 57.826172 145.43555 A 37.79295 37.793514 0 0 0 58.263672 145.1582 A 37.79295 37.793514 0 0 0 58.695312 144.875 A 37.79295 37.793514 0 0 0 59.125 144.58789 A 37.79295 37.793514 0 0 0 59.548828 144.29297 A 37.79295 37.793514 0 0 0 59.970703 143.99219 A 37.79295 37.793514 0 0 0 60.386719 143.68555 A 37.79295 37.793514 0 0 0 60.798828 143.37305 A 37.79295 37.793514 0 0 0 61.207031 143.05664 A 37.79295 37.793514 0 0 0 61.611328 142.73242 A 37.79295 37.793514 0 0 0 62.009766 142.4043 A 37.79295 37.793514 0 0 0 62.404297 142.07031 A 37.79295 37.793514 0 0 0 62.791016 141.73633 A 37.79295 37.793514 0 0 0 63.179688 141.38672 A 37.79295 37.793514 0 0 0 63.560547 141.03711 A 37.79295 37.793514 0 0 0 63.935547 140.68164 A 37.79295 37.793514 0 0 0 64.306641 140.32227 A 37.79295 37.793514 0 0 0 64.673828 139.95703 A 37.79295 37.793514 0 0 0 64.732422 139.89844 A 37.79295 37.793514 0 0 0 65.033203 139.58594 A 37.79295 37.793514 0 0 0 65.388672 139.21094 A 37.79295 37.793514 0 0 0 65.740234 138.83203 A 37.79295 37.793514 0 0 0 66.085938 138.44727 A 37.79295 37.793514 0 0 0 66.425781 138.05859 A 37.79295 37.793514 0 0 0 66.759766 137.66406 A 37.79295 37.793514 0 0 0 67.089844 137.26562 A 37.79295 37.793514 0 0 0 67.414062 136.86328 A 37.79295 37.793514 0 0 0 67.732422 136.45508 A 37.79295 37.793514 0 0 0 68.044922 136.04297 A 37.79295 37.793514 0 0 0 68.351562 135.62891 A 37.79295 37.793514 0 0 0 68.654297 135.20703 A 37.79295 37.793514 0 0 0 68.949219 134.7832 A 37.79295 37.793514 0 0 0 69.238281 134.35547 A 37.79295 37.793514 0 0 0 69.523438 133.92383 A 37.79295 37.793514 0 0 0 69.800781 133.48828 A 37.79295 37.793514 0 0 0 70.070312 133.04883 A 37.79295 37.793514 0 0 0 70.337891 132.60547 A 37.79295 37.793514 0 0 0 70.595703 132.1582 A 37.79295 37.793514 0 0 0 70.851562 131.70703 A 37.79295 37.793514 0 0 0 71.097656 131.25391 A 37.79295 37.793514 0 0 0 71.339844 130.79688 A 37.79295 37.793514 0 0 0 71.574219 130.33594 A 37.79295 37.793514 0 0 0 71.804688 129.87305 A 37.79295 37.793514 0 0 0 72.027344 129.40625 A 37.79295 37.793514 0 0 0 72.240234 128.93555 A 37.79295 37.793514 0 0 0 72.449219 128.46289 A 37.79295 37.793514 0 0 0 72.652344 127.98828 A 37.79295 37.793514 0 0 0 72.849609 127.50977 A 37.79295 37.793514 0 0 0 73.039062 127.0293 A 37.79295 37.793514 0 0 0 73.222656 126.54492 A 37.79295 37.793514 0 0 0 73.400391 126.05859 A 37.79295 37.793514 0 0 0 73.570312 125.57227 A 37.79295 37.793514 0 0 0 73.732422 125.08008 A 37.79295 37.793514 0 0 0 73.888672 124.58789 A 37.79295 37.793514 0 0 0 74.039062 124.09375 A 37.79295 37.793514 0 0 0 74.181641 123.5957 A 37.79295 37.793514 0 0 0 74.318359 123.09766 A 37.79295 37.793514 0 0 0 74.447266 122.59766 A 37.79295 37.793514 0 0 0 74.570312 122.0957 A 37.79295 37.793514 0 0 0 74.685547 121.5918 A 37.79295 37.793514 0 0 0 74.794922 121.08594 A 37.79295 37.793514 0 0 0 74.896484 120.58008 A 37.79295 37.793514 0 0 0 74.992188 120.07031 A 37.79295 37.793514 0 0 0 75.080078 119.5625 A 37.79295 37.793514 0 0 0 75.160156 119.05078 A 37.79295 37.793514 0 0 0 75.234375 118.53906 A 37.79295 37.793514 0 0 0 75.300781 118.02734 A 37.79295 37.793514 0 0 0 75.361328 117.51367 A 37.79295 37.793514 0 0 0 75.414062 117 A 37.79295 37.793514 0 0 0 75.460938 116.48438 A 37.79295 37.793514 0 0 0 75.5 115.96875 A 37.79295 37.793514 0 0 0 75.53125 115.45312 A 37.79295 37.793514 0 0 0 75.556641 114.93555 A 37.79295 37.793514 0 0 0 75.576172 114.41992 A 37.79295 37.793514 0 0 0 75.587891 113.90234 A 37.79295 37.793514 0 0 0 75.591797 113.38672 A 37.79295 37.793514 0 0 0 75.589844 112.95117 A 37.79295 37.793514 0 0 0 75.578125 112.43555 A 37.79295 37.793514 0 0 0 75.558594 111.91992 A 37.79295 37.793514 0 0 0 75.535156 111.40234 A 37.79295 37.793514 0 0 0 75.505859 110.88672 A 37.79295 37.793514 0 0 0 75.46875 110.37109 A 37.79295 37.793514 0 0 0 75.423828 109.85742 A 37.79295 37.793514 0 0 0 75.373047 109.3418 A 37.79295 37.793514 0 0 0 75.314453 108.82812 A 37.79295 37.793514 0 0 0 75.248047 108.31641 A 37.79295 37.793514 0 0 0 75.175781 107.80469 A 37.79295 37.793514 0 0 0 75.095703 107.29297 A 37.79295 37.793514 0 0 0 75.005859 106.7832 A 37.79295 37.793514 0 0 0 74.914062 106.27539 A 37.79295 37.793514 0 0 0 74.814453 105.76758 A 37.79295 37.793514 0 0 0 74.705078 105.26172 A 37.79295 37.793514 0 0 0 74.591797 104.75781 A 37.79295 37.793514 0 0 0 74.470703 104.25586 A 37.79295 37.793514 0 0 0 74.341797 103.75586 A 37.79295 37.793514 0 0 0 74.207031 103.25586 A 37.79295 37.793514 0 0 0 74.064453 102.75977 A 37.79295 37.793514 0 0 0 73.916016 102.26367 A 37.79295 37.793514 0 0 0 73.759766 101.77148 A 37.79295 37.793514 0 0 0 73.597656 101.2793 A 37.79295 37.793514 0 0 0 73.429688 100.79102 A 37.79295 37.793514 0 0 0 73.253906 100.30469 A 37.79295 37.793514 0 0 0 73.070312 99.822266 A 37.79295 37.793514 0 0 0 72.882812 99.339844 A 37.79295 37.793514 0 0 0 72.6875 98.861328 A 37.79295 37.793514 0 0 0 72.484375 98.386719 A 37.79295 37.793514 0 0 0 72.277344 97.912109 A 37.79295 37.793514 0 0 0 72.060547 97.443359 A 37.79295 37.793514 0 0 0 71.839844 96.974609 A 37.79295 37.793514 0 0 0 71.613281 96.511719 A 37.79295 37.793514 0 0 0 71.378906 96.050781 A 37.79295 37.793514 0 0 0 71.138672 95.591797 A 37.79295 37.793514 0 0 0 71.099609 95.521484 A 37.79295 37.793514 0 0 0 70.890625 95.138672 A 37.79295 37.793514 0 0 0 70.636719 94.6875 A 37.79295 37.793514 0 0 0 70.378906 94.240234 A 37.79295 37.793514 0 0 0 70.113281 93.794922 A 37.79295 37.793514 0 0 0 69.841797 93.355469 A 37.79295 37.793514 0 0 0 69.564453 92.919922 A 37.79295 37.793514 0 0 0 69.283203 92.486328 A 37.79295 37.793514 0 0 0 68.994141 92.058594 A 37.79295 37.793514 0 0 0 68.699219 91.632812 A 37.79295 37.793514 0 0 0 68.398438 91.212891 A 37.79295 37.793514 0 0 0 68.091797 90.794922 A 37.79295 37.793514 0 0 0 67.78125 90.382812 A 37.79295 37.793514 0 0 0 67.732422 90.318359 A 37.79295 37.793514 0 0 0 67.462891 89.974609 A 37.79295 37.793514 0 0 0 67.140625 89.572266 A 37.79295 37.793514 0 0 0 66.8125 89.171875 A 37.79295 37.793514 0 0 0 66.478516 88.777344 A 37.79295 37.793514 0 0 0 66.138672 88.388672 A 37.79295 37.793514 0 0 0 65.792969 88 A 37.79295 37.793514 0 0 0 65.443359 87.619141 A 37.79295 37.793514 0 0 0 65.087891 87.244141 A 37.79295 37.793514 0 0 0 64.728516 86.873047 A 37.79295 37.793514 0 0 0 64.363281 86.507812 A 37.79295 37.793514 0 0 0 63.994141 86.146484 A 37.79295 37.793514 0 0 0 63.619141 85.791016 A 37.79295 37.793514 0 0 0 63.238281 85.439453 A 37.79295 37.793514 0 0 0 62.853516 85.09375 A 37.79295 37.793514 0 0 0 62.464844 84.753906 A 37.79295 37.793514 0 0 0 62.070312 84.419922 A 37.79295 37.793514 0 0 0 61.671875 84.089844 A 37.79295 37.793514 0 0 0 61.269531 83.765625 A 37.79295 37.793514 0 0 0 60.861328 83.447266 A 37.79295 37.793514 0 0 0 60.451172 83.134766 A 37.79295 37.793514 0 0 0 60.035156 82.828125 A 37.79295 37.793514 0 0 0 59.615234 82.527344 A 37.79295 37.793514 0 0 0 59.189453 82.230469 A 37.79295 37.793514 0 0 0 58.761719 81.941406 A 37.79295 37.793514 0 0 0 58.330078 81.658203 A 37.79295 37.793514 0 0 0 57.894531 81.378906 A 37.79295 37.793514 0 0 0 57.455078 81.107422 A 37.79295 37.793514 0 0 0 57.011719 80.841797 A 37.79295 37.793514 0 0 0 56.564453 80.582031 A 37.79295 37.793514 0 0 0 56.113281 80.328125 A 37.79295 37.793514 0 0 0 55.660156 80.080078 A 37.79295 37.793514 0 0 0 55.203125 79.839844 A 37.79295 37.793514 0 0 0 54.742188 79.605469 A 37.79295 37.793514 0 0 0 54.279297 79.375 A 37.79295 37.793514 0 0 0 53.8125 79.154297 A 37.79295 37.793514 0 0 0 53.341797 78.9375 A 37.79295 37.793514 0 0 0 52.869141 78.728516 A 37.79295 37.793514 0 0 0 52.394531 78.525391 A 37.79295 37.793514 0 0 0 51.964844 78.347656 A 37.79295 37.793514 0 0 0 51 77.974609 A 37.79295 37.793514 0 0 0 50.550781 77.810547 A 37.79295 37.793514 0 0 0 50.466797 77.779297 A 37.79295 37.793514 0 0 0 49.978516 77.609375 A 37.79295 37.793514 0 0 0 49.488281 77.445312 A 37.79295 37.793514 0 0 0 48.994141 77.289062 A 37.79295 37.793514 0 0 0 48.501953 77.138672 A 37.79295 37.793514 0 0 0 48.005859 76.996094 A 37.79295 37.793514 0 0 0 47.505859 76.859375 A 37.79295 37.793514 0 0 0 47.005859 76.730469 A 37.79295 37.793514 0 0 0 46.503906 76.607422 A 37.79295 37.793514 0 0 0 46 76.492188 A 37.79295 37.793514 0 0 0 45.494141 76.382812 A 37.79295 37.793514 0 0 0 44.988281 76.28125 A 37.79295 37.793514 0 0 0 43.970703 76.097656 A 37.79295 37.793514 0 0 0 43.458984 76.017578 A 37.79295 37.793514 0 0 0 42.947266 75.943359 A 37.79295 37.793514 0 0 0 42.435547 75.876953 A 37.79295 37.793514 0 0 0 41.921875 75.816406 A 37.79295 37.793514 0 0 0 41.408203 75.763672 A 37.79295 37.793514 0 0 0 40.814453 75.710938 A 37.79295 37.793514 0 0 0 40.376953 75.679688 A 37.79295 37.793514 0 0 0 39.931641 75.650391 A 37.79295 37.793514 0 0 0 39.744141 75.640625 A 37.79295 37.793514 0 0 0 39.345703 75.623047 A 37.79295 37.793514 0 0 0 38.828125 75.605469 A 37.79295 37.793514 0 0 0 38.310547 75.59375 A 37.79295 37.793514 0 0 0 37.796875 75.589844 A 37.79295 37.793514 0 0 0 37.785156 75.589844 z M 37.794922 81.259766 A 32.125985 32.125985 0 0 1 69.921875 113.38672 A 32.125985 32.125985 0 0 1 37.794922 145.51172 A 32.125985 32.125985 0 0 1 5.6699219 113.38672 A 32.125985 32.125985 0 0 1 37.794922 81.259766 z "
       transform="scale(0.26458333)" />
    <rect
       style="fill:#000000;stroke-width:0.264583"
       id="rect47"
       width="20"
       height="2"
       x="19"
       y="29" />
    <rect
       style="fill:#000000;stroke-width:0.264583"
       id="rect47-6"
       width="20"
       height="2"
       x="121"
       y="29" />
    <path
       style="fill:none;fill-opacity:1;stroke:none;stroke-width:0.543411;stroke-linejoin:round;stroke-miterlimit:4;stroke-dasharray:none;stroke-dashoffset:0;stroke-opacity:1"
       d="M 10,21.5 A 8.4999678,8.5002446 0 0 1 18.500005,30.000276 8.4999678,8.5002446 0 0 1 10,38.5 8.4999678,8.5002446 0 0 1 1.5,30.000276 8.4999678,8.5002446 0 0 1 10,21.5 Z"
       id="path18-2" />
    <path
       style="fill:none;fill-opacity:1;stroke:none;stroke-width:0.543411;stroke-linejoin:round;stroke-miterlimit:4;stroke-dasharray:none;stroke-dashoffset:0;stroke-opacity:1"
       d="m 150,21.5 a 8.4999678,8.5002446 0 0 1 8.5,8.500276 A 8.4999678,8.5002446 0 0 1 150,38.5 8.4999678,8.5002446 0 0 1 141.5,30.000276 8.4999678,8.5002446 0 0 1 150,21.5 Z"
       id="path18-2-1" />
  </g>
</svg>
