<?xml version="1.0" encoding="UTF-8" standalone="no"?>
<svg
   xmlns:osb="http://www.openswatchbook.org/uri/2009/osb"
   xmlns:dc="http://purl.org/dc/elements/1.1/"
   xmlns:cc="http://creativecommons.org/ns#"
   xmlns:rdf="http://www.w3.org/1999/02/22-rdf-syntax-ns#"
   xmlns:svg="http://www.w3.org/2000/svg"
   xmlns="http://www.w3.org/2000/svg"
   xmlns:sodipodi="http://sodipodi.sourceforge.net/DTD/sodipodi-0.dtd"
   xmlns:inkscape="http://www.inkscape.org/namespaces/inkscape"
   width="160mm"
   height="60mm"
   viewBox="0 0 160 60"
   version="1.1"
   id="capacitorsvg"
   inkscape:version="1.0.2-2 (e86c870879, 2021-01-15)"
   sodipodi:docname="Diode.svg">
  <sodipodi:namedview
     pagecolor="#ffffff"
     bordercolor="#666666"
     borderopacity="1"
     objecttolerance="10"
     gridtolerance="10"
     guidetolerance="10"
     inkscape:pageopacity="0"
     inkscape:pageshadow="2"
     inkscape:window-width="1368"
     inkscape:window-height="850"
     id="namedview21"
     showgrid="false"
     inkscape:zoom="1.0228297"
     inkscape:cx="263.60895"
     inkscape:cy="255.80693"
     inkscape:window-x="-6"
     inkscape:window-y="-6"
     inkscape:window-maximized="1"
     inkscape:current-layer="draw_layer"
     inkscape:document-rotation="0" />
  <defs
     id="defs2">
    <linearGradient
       id="linearGradient2783"
       osb:paint="solid">
      <stop
         style="stop-color:#000000;stop-opacity:1;"
         offset="0"
         id="stop2781" />
    </linearGradient>
  </defs>
  <metadata
     id="metadata5">
    <rdf:RDF>
      <cc:Work
         rdf:about="">
        <dc:format>image/svg+xml</dc:format>
        <dc:type
           rdf:resource="http://purl.org/dc/dcmitype/StillImage" />
        <dc:title></dc:title>
      </cc:Work>
    </rdf:RDF>
  </metadata>
  <g
     inkscape:groupmode="layer"
     id="draw_layer"
     transform="translate(0,0)"
     inkscape:label="#draw_layer">
    <circle
       style="fill:none;fill-opacity:1;fill-rule:evenodd;stroke:none;stroke-width:0.563612;stroke-linecap:butt;stroke-linejoin:miter;stroke-miterlimit:4;stroke-dasharray:none;stroke-opacity:1;paint-order:fill markers stroke"
       cx="10"
       cy="30"
       id="circle14"
       r="8.5" />
    <circle
       style="fill:#ffffff;fill-opacity:1;fill-rule:evenodd;stroke:none;stroke-width:0.563612;stroke-linecap:butt;stroke-linejoin:miter;stroke-miterlimit:4;stroke-dasharray:none;stroke-opacity:1;paint-order:fill markers stroke"
       cx="150"
       cy="30"
       r="8.5"
       id="circle16" />
    <path
       id="path845"
       style="fill:#000000;fill-opacity:1;stroke:none;stroke-width:1.933;stroke-linejoin:round;stroke-miterlimit:4;stroke-dasharray:none;stroke-dashoffset:0;stroke-opacity:1"
       d="M 187.54102 0 L 187.54102 109.60547 L 75.400391 109.60547 A 37.795276 37.795276 0 0 0 75.373047 109.33984 A 37.795276 37.795276 0 0 0 75.314453 108.82617 A 37.795276 37.795276 0 0 0 75.248047 108.31445 A 37.795276 37.795276 0 0 0 75.179688 107.82812 A 37.795276 37.795276 0 0 0 75.171875 107.77734 A 37.795276 37.795276 0 0 0 75.095703 107.29102 A 37.795276 37.795276 0 0 0 75.009766 106.78125 A 37.795276 37.795276 0 0 0 74.916016 106.27344 A 37.795276 37.795276 0 0 0 74.814453 105.76562 A 37.795276 37.795276 0 0 0 74.707031 105.25977 A 37.795276 37.795276 0 0 0 74.591797 104.75586 A 37.795276 37.795276 0 0 0 74.478516 104.28516 A 37.795276 37.795276 0 0 0 74.462891 104.22656 A 37.795276 37.795276 0 0 0 74.341797 103.75391 A 37.795276 37.795276 0 0 0 74.207031 103.25391 A 37.795276 37.795276 0 0 0 74.064453 102.75781 A 37.795276 37.795276 0 0 0 73.916016 102.26172 A 37.795276 37.795276 0 0 0 73.761719 101.76953 A 37.795276 37.795276 0 0 0 73.601562 101.2832 A 37.795276 37.795276 0 0 0 73.597656 101.27148 A 37.795276 37.795276 0 0 0 73.429688 100.78906 A 37.795276 37.795276 0 0 0 73.253906 100.30273 A 37.795276 37.795276 0 0 0 73.072266 99.820312 A 37.795276 37.795276 0 0 0 72.882812 99.337891 A 37.795276 37.795276 0 0 0 72.6875 98.859375 A 37.795276 37.795276 0 0 0 72.488281 98.386719 A 37.795276 37.795276 0 0 0 72.484375 98.382812 A 37.795276 37.795276 0 0 0 72.279297 97.914062 A 37.795276 37.795276 0 0 0 72.275391 97.90625 A 37.795276 37.795276 0 0 0 72.0625 97.441406 A 37.795276 37.795276 0 0 0 71.791016 96.869141 A 37.795276 37.795276 0 0 0 71.613281 96.509766 A 37.795276 37.795276 0 0 0 71.378906 96.048828 A 37.795276 37.795276 0 0 0 71.138672 95.589844 A 37.795276 37.795276 0 0 0 70.892578 95.136719 A 37.795276 37.795276 0 0 0 70.640625 94.685547 A 37.795276 37.795276 0 0 0 70.380859 94.238281 A 37.795276 37.795276 0 0 0 70.115234 93.792969 A 37.795276 37.795276 0 0 0 69.847656 93.355469 A 37.795276 37.795276 0 0 0 69.568359 92.917969 A 37.795276 37.795276 0 0 0 69.285156 92.484375 A 37.795276 37.795276 0 0 0 68.996094 92.056641 A 37.795276 37.795276 0 0 0 68.701172 91.630859 A 37.795276 37.795276 0 0 0 68.400391 91.210938 A 37.795276 37.795276 0 0 0 68.095703 90.792969 A 37.795276 37.795276 0 0 0 67.783203 90.380859 A 37.795276 37.795276 0 0 0 67.484375 89.996094 A 37.795276 37.795276 0 0 0 67.453125 89.955078 A 37.795276 37.795276 0 0 0 67.142578 89.570312 A 37.795276 37.795276 0 0 0 66.814453 89.169922 A 37.795276 37.795276 0 0 0 66.480469 88.775391 A 37.795276 37.795276 0 0 0 66.140625 88.386719 A 37.795276 37.795276 0 0 0 65.853516 88.064453 A 37.795276 37.795276 0 0 0 65.380859 87.550781 A 37.795276 37.795276 0 0 0 65.091797 87.244141 A 37.795276 37.795276 0 0 0 64.785156 86.927734 A 37.795276 37.795276 0 0 0 64.363281 86.503906 A 37.795276 37.795276 0 0 0 63.996094 86.146484 A 37.795276 37.795276 0 0 0 63.621094 85.791016 A 37.795276 37.795276 0 0 0 63.242188 85.439453 A 37.795276 37.795276 0 0 0 62.900391 85.132812 A 37.795276 37.795276 0 0 0 62.460938 84.75 A 37.795276 37.795276 0 0 0 62.083984 84.427734 A 37.795276 37.795276 0 0 0 61.662109 84.078125 A 37.795276 37.795276 0 0 0 61.271484 83.765625 A 37.795276 37.795276 0 0 0 60.865234 83.447266 A 37.795276 37.795276 0 0 0 60.455078 83.136719 A 37.795276 37.795276 0 0 0 60.023438 82.818359 A 37.795276 37.795276 0 0 0 59.617188 82.527344 A 37.795276 37.795276 0 0 0 59.232422 82.257812 A 37.795276 37.795276 0 0 0 59.154297 82.203125 A 37.795276 37.795276 0 0 0 58.765625 81.941406 A 37.795276 37.795276 0 0 0 58.333984 81.658203 A 37.795276 37.795276 0 0 0 57.896484 81.378906 A 37.795276 37.795276 0 0 0 57.457031 81.107422 A 37.795276 37.795276 0 0 0 57.013672 80.841797 A 37.795276 37.795276 0 0 0 56.566406 80.582031 A 37.795276 37.795276 0 0 0 56.117188 80.328125 A 37.795276 37.795276 0 0 0 55.662109 80.080078 A 37.795276 37.795276 0 0 0 55.205078 79.839844 A 37.795276 37.795276 0 0 0 54.833984 79.648438 A 37.795276 37.795276 0 0 0 54.671875 79.566406 A 37.795276 37.795276 0 0 0 54.300781 79.384766 A 37.795276 37.795276 0 0 0 54.265625 79.367188 A 37.795276 37.795276 0 0 0 53.814453 79.154297 A 37.795276 37.795276 0 0 0 53.345703 78.9375 A 37.795276 37.795276 0 0 0 52.865234 78.724609 A 37.795276 37.795276 0 0 0 52.396484 78.525391 A 37.795276 37.795276 0 0 0 51.4375 78.138672 A 37.795276 37.795276 0 0 0 50.984375 77.966797 A 37.795276 37.795276 0 0 0 50.925781 77.943359 A 37.795276 37.795276 0 0 0 50.46875 77.779297 A 37.795276 37.795276 0 0 0 49.980469 77.609375 A 37.795276 37.795276 0 0 0 49.568359 77.470703 A 37.795276 37.795276 0 0 0 48.978516 77.283203 A 37.795276 37.795276 0 0 0 48.507812 77.140625 A 37.795276 37.795276 0 0 0 48.496094 77.136719 A 37.795276 37.795276 0 0 0 48.005859 76.996094 A 37.795276 37.795276 0 0 0 47.507812 76.859375 A 37.795276 37.795276 0 0 0 47.007812 76.730469 A 37.795276 37.795276 0 0 0 46.558594 76.621094 A 37.795276 37.795276 0 0 0 46.460938 76.597656 A 37.795276 37.795276 0 0 0 46 76.492188 A 37.795276 37.795276 0 0 0 45.509766 76.386719 A 37.795276 37.795276 0 0 0 45.482422 76.380859 A 37.795276 37.795276 0 0 0 44.998047 76.283203 A 37.795276 37.795276 0 0 0 44.632812 76.214844 A 37.795276 37.795276 0 0 0 44.341797 76.162109 A 37.795276 37.795276 0 0 0 44.121094 76.123047 A 37.795276 37.795276 0 0 0 43.820312 76.074219 A 37.795276 37.795276 0 0 0 43.400391 76.009766 A 37.795276 37.795276 0 0 0 43.029297 75.955078 A 37.795276 37.795276 0 0 0 42.873047 75.933594 A 37.795276 37.795276 0 0 0 42.435547 75.876953 A 37.795276 37.795276 0 0 0 41.921875 75.816406 A 37.795276 37.795276 0 0 0 41.408203 75.763672 A 37.795276 37.795276 0 0 0 41.039062 75.730469 A 37.795276 37.795276 0 0 0 40.794922 75.708984 A 37.795276 37.795276 0 0 0 40.378906 75.679688 A 37.795276 37.795276 0 0 0 39.910156 75.650391 A 37.795276 37.795276 0 0 0 39.828125 75.644531 A 37.795276 37.795276 0 0 0 39.345703 75.623047 A 37.795276 37.795276 0 0 0 38.828125 75.605469 A 37.795276 37.795276 0 0 0 38.3125 75.59375 A 37.795276 37.795276 0 0 0 37.796875 75.589844 A 37.795276 37.795276 0 0 0 37.785156 75.589844 A 37.795276 37.795276 0 0 0 37.361328 75.59375 A 37.795276 37.795276 0 0 0 36.957031 75.599609 A 37.795276 37.795276 0 0 0 36.326172 75.619141 A 37.795276 37.795276 0 0 0 35.810547 75.642578 A 37.795276 37.795276 0 0 0 35.294922 75.673828 A 37.795276 37.795276 0 0 0 34.779297 75.710938 A 37.795276 37.795276 0 0 0 34.404297 75.744141 A 37.795276 37.795276 0 0 0 33.75 75.808594 A 37.795276 37.795276 0 0 0 33.236328 75.867188 A 37.795276 37.795276 0 0 0 32.863281 75.914062 A 37.795276 37.795276 0 0 0 31.701172 76.085938 A 37.795276 37.795276 0 0 0 31.191406 76.171875 A 37.795276 37.795276 0 0 0 29.591797 76.492188 A 37.795276 37.795276 0 0 0 29.087891 76.607422 A 37.795276 37.795276 0 0 0 28.527344 76.746094 A 37.795276 37.795276 0 0 0 28.083984 76.859375 A 37.795276 37.795276 0 0 0 27.472656 77.029297 A 37.795276 37.795276 0 0 0 27.089844 77.138672 A 37.795276 37.795276 0 0 0 26.59375 77.289062 A 37.795276 37.795276 0 0 0 25.199219 77.751953 A 37.795276 37.795276 0 0 0 24.712891 77.927734 A 37.795276 37.795276 0 0 0 23.175781 78.533203 A 37.795276 37.795276 0 0 0 22.71875 78.728516 A 37.795276 37.795276 0 0 0 20.8125 79.621094 A 37.795276 37.795276 0 0 0 19.929688 80.080078 A 37.795276 37.795276 0 0 0 18.578125 80.841797 A 37.795276 37.795276 0 0 0 18.134766 81.107422 A 37.795276 37.795276 0 0 0 15.916016 82.568359 A 37.795276 37.795276 0 0 0 15.554688 82.828125 A 37.795276 37.795276 0 0 0 14.59375 83.550781 A 37.795276 37.795276 0 0 0 14.320312 83.765625 A 37.795276 37.795276 0 0 0 13.917969 84.089844 A 37.795276 37.795276 0 0 0 13.519531 84.419922 A 37.795276 37.795276 0 0 0 13.125 84.753906 A 37.795276 37.795276 0 0 0 12.351562 85.439453 A 37.795276 37.795276 0 0 0 11.970703 85.791016 A 37.795276 37.795276 0 0 0 11.585938 86.15625 A 37.795276 37.795276 0 0 0 10.556641 87.185547 A 37.795276 37.795276 0 0 0 10.427734 87.320312 A 37.795276 37.795276 0 0 0 10.146484 87.619141 A 37.795276 37.795276 0 0 0 9.1113281 88.775391 A 37.795276 37.795276 0 0 0 8.7773438 89.169922 A 37.795276 37.795276 0 0 0 8.4492188 89.570312 A 37.795276 37.795276 0 0 0 8.1269531 89.972656 A 37.795276 37.795276 0 0 0 7.1542969 91.259766 A 37.795276 37.795276 0 0 0 6.890625 91.630859 A 37.795276 37.795276 0 0 0 6.3066406 92.484375 A 37.795276 37.795276 0 0 0 6.0234375 92.916016 A 37.795276 37.795276 0 0 0 5.4765625 93.792969 A 37.795276 37.795276 0 0 0 5.2109375 94.238281 A 37.795276 37.795276 0 0 0 4.6992188 95.136719 A 37.795276 37.795276 0 0 0 4.453125 95.589844 A 37.795276 37.795276 0 0 0 3.5292969 97.439453 A 37.795276 37.795276 0 0 0 3.3105469 97.919922 A 37.795276 37.795276 0 0 0 2.9355469 98.783203 A 37.795276 37.795276 0 0 0 2.9042969 98.859375 A 37.795276 37.795276 0 0 0 2.7089844 99.337891 A 37.795276 37.795276 0 0 0 2.3378906 100.30273 A 37.795276 37.795276 0 0 0 2.1621094 100.78906 A 37.795276 37.795276 0 0 0 1.6757812 102.26172 A 37.795276 37.795276 0 0 0 1.5273438 102.75586 A 37.795276 37.795276 0 0 0 1.3828125 103.26367 A 37.795276 37.795276 0 0 0 1.25 103.75195 A 37.795276 37.795276 0 0 0 1.1210938 104.25391 A 37.795276 37.795276 0 0 0 1 104.75586 A 37.795276 37.795276 0 0 0 0.87109375 105.32812 A 37.795276 37.795276 0 0 0 0.77734375 105.76562 A 37.795276 37.795276 0 0 0 0.49609375 107.29102 A 37.795276 37.795276 0 0 0 0.41210938 107.82422 A 37.795276 37.795276 0 0 0 0.21875 109.33984 A 37.795276 37.795276 0 0 0 0.00390625 112.95117 A 37.795276 37.795276 0 0 0 0.001953125 113.38672 A 37.795276 37.795276 0 0 0 0.033203125 114.9375 A 37.795276 37.795276 0 0 0 0.12890625 116.48438 A 37.795276 37.795276 0 0 0 0.28710938 118.02734 A 37.795276 37.795276 0 0 0 0.59765625 120.07227 A 37.795276 37.795276 0 0 0 1.8574219 125.08203 A 37.795276 37.795276 0 0 0 2.0195312 125.57227 A 37.795276 37.795276 0 0 0 2.1894531 126.06055 A 37.795276 37.795276 0 0 0 2.5507812 127.0293 A 37.795276 37.795276 0 0 0 3.140625 128.46484 A 37.795276 37.795276 0 0 0 3.5644531 129.40625 A 37.795276 37.795276 0 0 0 3.7871094 129.87305 A 37.795276 37.795276 0 0 0 4.015625 130.33594 A 37.795276 37.795276 0 0 0 4.7402344 131.70898 A 37.795276 37.795276 0 0 0 4.9941406 132.1582 A 37.795276 37.795276 0 0 0 5.5195312 133.04883 A 37.795276 37.795276 0 0 0 5.7910156 133.48828 A 37.795276 37.795276 0 0 0 6.0683594 133.92383 A 37.795276 37.795276 0 0 0 6.3535156 134.35742 A 37.795276 37.795276 0 0 0 6.6425781 134.78516 A 37.795276 37.795276 0 0 0 7.2402344 135.62891 A 37.795276 37.795276 0 0 0 7.546875 136.04492 A 37.795276 37.795276 0 0 0 7.859375 136.45703 A 37.795276 37.795276 0 0 0 8.1777344 136.86328 A 37.795276 37.795276 0 0 0 9.5058594 138.44727 A 37.795276 37.795276 0 0 0 9.8515625 138.83203 A 37.795276 37.795276 0 0 0 10.203125 139.21289 A 37.795276 37.795276 0 0 0 10.558594 139.58789 A 37.795276 37.795276 0 0 0 10.919922 139.95703 A 37.795276 37.795276 0 0 0 11.285156 140.32227 A 37.795276 37.795276 0 0 0 11.65625 140.68359 A 37.795276 37.795276 0 0 0 12.03125 141.03711 A 37.795276 37.795276 0 0 0 13.982422 142.73438 A 37.795276 37.795276 0 0 0 14.384766 143.05664 A 37.795276 37.795276 0 0 0 14.814453 143.39258 A 37.795276 37.795276 0 0 0 15.205078 143.68555 A 37.795276 37.795276 0 0 0 16.042969 144.29297 A 37.795276 37.795276 0 0 0 16.466797 144.58789 A 37.795276 37.795276 0 0 0 17.257812 145.11328 A 37.795276 37.795276 0 0 0 17.480469 145.25586 A 37.795276 37.795276 0 0 0 18.205078 145.70703 A 37.795276 37.795276 0 0 0 18.650391 145.97266 A 37.795276 37.795276 0 0 0 19.097656 146.23047 A 37.795276 37.795276 0 0 0 20.462891 146.97266 A 37.795276 37.795276 0 0 0 20.921875 147.20508 A 37.795276 37.795276 0 0 0 21.384766 147.43164 A 37.795276 37.795276 0 0 0 21.775391 147.61719 A 37.795276 37.795276 0 0 0 22.246094 147.83398 A 37.795276 37.795276 0 0 0 22.679688 148.02539 A 37.795276 37.795276 0 0 0 24.152344 148.63281 A 37.795276 37.795276 0 0 0 24.503906 148.76562 A 37.795276 37.795276 0 0 0 25.121094 148.99219 A 37.795276 37.795276 0 0 0 25.558594 149.14453 A 37.795276 37.795276 0 0 0 25.792969 149.22266 A 37.795276 37.795276 0 0 0 26.181641 149.35156 A 37.795276 37.795276 0 0 0 28.583984 150.04102 A 37.795276 37.795276 0 0 0 29.019531 150.14844 A 37.795276 37.795276 0 0 0 29.589844 150.2793 A 37.795276 37.795276 0 0 0 30.095703 150.38867 A 37.795276 37.795276 0 0 0 30.685547 150.50586 A 37.795276 37.795276 0 0 0 31.193359 150.59961 A 37.795276 37.795276 0 0 0 32.130859 150.75391 A 37.795276 37.795276 0 0 0 32.621094 150.82422 A 37.795276 37.795276 0 0 0 33.154297 150.89453 A 37.795276 37.795276 0 0 0 33.667969 150.95508 A 37.795276 37.795276 0 0 0 34.052734 150.99414 A 37.795276 37.795276 0 0 0 34.3125 151.01953 A 37.795276 37.795276 0 0 0 34.78125 151.06055 A 37.795276 37.795276 0 0 0 34.830078 151.06445 A 37.795276 37.795276 0 0 0 35.212891 151.0918 A 37.795276 37.795276 0 0 0 35.613281 151.11719 A 37.795276 37.795276 0 0 0 36.330078 151.15234 A 37.795276 37.795276 0 0 0 36.761719 151.16602 A 37.795276 37.795276 0 0 0 37.279297 151.17773 A 37.795276 37.795276 0 0 0 37.792969 151.18164 A 37.795276 37.795276 0 0 0 37.796875 151.18164 A 37.795276 37.795276 0 0 0 38.230469 151.17773 A 37.795276 37.795276 0 0 0 38.650391 151.17188 A 37.795276 37.795276 0 0 0 39.263672 151.15234 A 37.795276 37.795276 0 0 0 39.779297 151.12891 A 37.795276 37.795276 0 0 0 40.296875 151.09766 A 37.795276 37.795276 0 0 0 40.8125 151.06055 A 37.795276 37.795276 0 0 0 41.275391 151.01953 A 37.795276 37.795276 0 0 0 41.519531 150.99609 A 37.795276 37.795276 0 0 0 41.923828 150.95508 A 37.795276 37.795276 0 0 0 41.949219 150.95312 A 37.795276 37.795276 0 0 0 42.355469 150.9043 A 37.795276 37.795276 0 0 0 42.791016 150.84961 A 37.795276 37.795276 0 0 0 43.378906 150.76562 A 37.795276 37.795276 0 0 0 43.890625 150.68555 A 37.795276 37.795276 0 0 0 44.400391 150.59961 A 37.795276 37.795276 0 0 0 44.865234 150.51367 A 37.795276 37.795276 0 0 0 45.414062 150.4043 A 37.795276 37.795276 0 0 0 45.919922 150.29688 A 37.795276 37.795276 0 0 0 49.902344 149.18945 A 37.795276 37.795276 0 0 0 50.390625 149.01953 A 37.795276 37.795276 0 0 0 51.361328 148.66211 A 37.795276 37.795276 0 0 0 51.841797 148.47266 A 37.795276 37.795276 0 0 0 52.320312 148.27734 A 37.795276 37.795276 0 0 0 52.796875 148.07617 A 37.795276 37.795276 0 0 0 53.269531 147.86719 A 37.795276 37.795276 0 0 0 53.740234 147.65234 A 37.795276 37.795276 0 0 0 54.207031 147.43164 A 37.795276 37.795276 0 0 0 54.671875 147.20312 A 37.795276 37.795276 0 0 0 55.013672 147.03125 A 37.795276 37.795276 0 0 0 56.044922 146.48242 A 37.795276 37.795276 0 0 0 56.470703 146.24414 A 37.795276 37.795276 0 0 0 56.943359 145.9707 A 37.795276 37.795276 0 0 0 57.386719 145.70703 A 37.795276 37.795276 0 0 0 57.828125 145.43555 A 37.795276 37.795276 0 0 0 58.263672 145.1582 A 37.795276 37.795276 0 0 0 58.697266 144.875 A 37.795276 37.795276 0 0 0 59.125 144.58789 A 37.795276 37.795276 0 0 0 59.429688 144.37695 A 37.795276 37.795276 0 0 0 60.386719 143.68555 A 37.795276 37.795276 0 0 0 60.798828 143.37305 A 37.795276 37.795276 0 0 0 61.207031 143.05664 A 37.795276 37.795276 0 0 0 61.611328 142.73242 A 37.795276 37.795276 0 0 0 62.009766 142.4043 A 37.795276 37.795276 0 0 0 62.404297 142.07031 A 37.795276 37.795276 0 0 0 62.791016 141.73633 A 37.795276 37.795276 0 0 0 63.179688 141.38672 A 37.795276 37.795276 0 0 0 63.560547 141.03711 A 37.795276 37.795276 0 0 0 63.9375 140.68164 A 37.795276 37.795276 0 0 0 64.189453 140.4375 A 37.795276 37.795276 0 0 0 65.035156 139.58594 A 37.795276 37.795276 0 0 0 65.390625 139.21094 A 37.795276 37.795276 0 0 0 65.740234 138.83203 A 37.795276 37.795276 0 0 0 66.085938 138.44727 A 37.795276 37.795276 0 0 0 66.761719 137.66406 A 37.795276 37.795276 0 0 0 67.083984 137.27539 A 37.795276 37.795276 0 0 0 67.414062 136.86328 A 37.795276 37.795276 0 0 0 67.732422 136.45508 A 37.795276 37.795276 0 0 0 68.044922 136.04297 A 37.795276 37.795276 0 0 0 68.269531 135.74219 A 37.795276 37.795276 0 0 0 68.654297 135.20703 A 37.795276 37.795276 0 0 0 68.949219 134.7832 A 37.795276 37.795276 0 0 0 69.240234 134.35547 A 37.795276 37.795276 0 0 0 69.523438 133.92383 A 37.795276 37.795276 0 0 0 69.800781 133.48828 A 37.795276 37.795276 0 0 0 70.853516 131.70703 A 37.795276 37.795276 0 0 0 71.099609 131.25391 A 37.795276 37.795276 0 0 0 71.341797 130.79688 A 37.795276 37.795276 0 0 0 71.576172 130.33594 A 37.795276 37.795276 0 0 0 71.804688 129.87305 A 37.795276 37.795276 0 0 0 72.027344 129.40625 A 37.795276 37.795276 0 0 0 72.244141 128.93555 A 37.795276 37.795276 0 0 0 72.451172 128.4668 A 37.795276 37.795276 0 0 0 72.65625 127.98828 A 37.795276 37.795276 0 0 0 72.851562 127.50977 A 37.795276 37.795276 0 0 0 73 127.13867 A 37.795276 37.795276 0 0 0 73.226562 126.54492 A 37.795276 37.795276 0 0 0 73.402344 126.05859 A 37.795276 37.795276 0 0 0 73.572266 125.57227 A 37.795276 37.795276 0 0 0 73.892578 124.58789 A 37.795276 37.795276 0 0 0 74.011719 124.19531 A 37.795276 37.795276 0 0 0 74.185547 123.5957 A 37.795276 37.795276 0 0 0 74.316406 123.11719 A 37.795276 37.795276 0 0 0 74.451172 122.59766 A 37.795276 37.795276 0 0 0 74.574219 122.0957 A 37.795276 37.795276 0 0 0 74.664062 121.70117 A 37.795276 37.795276 0 0 0 74.707031 121.51172 A 37.795276 37.795276 0 0 0 74.796875 121.08594 A 37.795276 37.795276 0 0 0 74.888672 120.63477 A 37.795276 37.795276 0 0 0 74.994141 120.07031 A 37.795276 37.795276 0 0 0 75.082031 119.5625 A 37.795276 37.795276 0 0 0 75.164062 119.05078 A 37.795276 37.795276 0 0 0 75.238281 118.53906 A 37.795276 37.795276 0 0 0 75.304688 118.02734 A 37.795276 37.795276 0 0 0 75.365234 117.51367 A 37.795276 37.795276 0 0 0 75.402344 117.16602 L 187.54102 117.16602 L 187.54102 226.77148 L 362.56055 117.16602 L 362.56055 226.77148 L 415.82812 226.77148 L 415.82812 117.16602 L 529.32617 117.16602 A 37.795276 37.795276 0 0 0 529.38086 117.67969 A 37.795276 37.795276 0 0 0 529.44336 118.19336 A 37.795276 37.795276 0 0 0 529.96289 121.25 A 37.795276 37.795276 0 0 0 530.07422 121.75586 A 37.795276 37.795276 0 0 0 530.44922 123.25977 A 37.795276 37.795276 0 0 0 531.38086 126.2168 A 37.795276 37.795276 0 0 0 531.9375 127.66602 A 37.795276 37.795276 0 0 0 533.22656 130.48633 A 37.795276 37.795276 0 0 0 533.46289 130.94531 A 37.795276 37.795276 0 0 0 533.95508 131.85352 A 37.795276 37.795276 0 0 0 534.21094 132.30273 A 37.795276 37.795276 0 0 0 534.47266 132.75 A 37.795276 37.795276 0 0 0 534.74023 133.19141 A 37.795276 37.795276 0 0 0 535.29492 134.06445 A 37.795276 37.795276 0 0 0 535.58008 134.49609 A 37.795276 37.795276 0 0 0 536.16992 135.3457 A 37.795276 37.795276 0 0 0 536.47266 135.76367 A 37.795276 37.795276 0 0 0 536.78125 136.17773 A 37.795276 37.795276 0 0 0 537.0957 136.58789 A 37.795276 37.795276 0 0 0 537.41602 136.99414 A 37.795276 37.795276 0 0 0 537.74219 137.39648 A 37.795276 37.795276 0 0 0 538.41016 138.18555 A 37.795276 37.795276 0 0 0 538.75195 138.57227 A 37.795276 37.795276 0 0 0 539.45117 139.33398 A 37.795276 37.795276 0 0 0 539.80859 139.70703 A 37.795276 37.795276 0 0 0 540.17188 140.07617 A 37.795276 37.795276 0 0 0 540.53906 140.43945 A 37.795276 37.795276 0 0 0 540.91211 140.79883 A 37.795276 37.795276 0 0 0 541.28906 141.15234 A 37.795276 37.795276 0 0 0 541.66992 141.5 A 37.795276 37.795276 0 0 0 542.44922 142.17969 A 37.795276 37.795276 0 0 0 542.8457 142.51172 A 37.795276 37.795276 0 0 0 543.24609 142.83984 A 37.795276 37.795276 0 0 0 543.65039 143.16016 A 37.795276 37.795276 0 0 0 544.06055 143.47656 A 37.795276 37.795276 0 0 0 544.47461 143.78516 A 37.795276 37.795276 0 0 0 544.89258 144.08984 A 37.795276 37.795276 0 0 0 545.31445 144.38867 A 37.795276 37.795276 0 0 0 545.74023 144.68164 A 37.795276 37.795276 0 0 0 546.14648 144.95312 A 37.795276 37.795276 0 0 0 547.96289 146.07617 A 37.795276 37.795276 0 0 0 548.37695 146.3125 A 37.795276 37.795276 0 0 0 548.80273 146.55078 A 37.795276 37.795276 0 0 0 548.84961 146.57617 A 37.795276 37.795276 0 0 0 549.28516 146.80859 A 37.795276 37.795276 0 0 0 549.74414 147.04688 A 37.795276 37.795276 0 0 0 550.20508 147.2793 A 37.795276 37.795276 0 0 0 550.64062 147.49023 A 37.795276 37.795276 0 0 0 550.92969 147.62695 A 37.795276 37.795276 0 0 0 551.25977 147.7793 A 37.795276 37.795276 0 0 0 551.60938 147.93555 A 37.795276 37.795276 0 0 0 552.0293 148.11914 A 37.795276 37.795276 0 0 0 552.15039 148.16992 A 37.795276 37.795276 0 0 0 552.56055 148.3418 A 37.795276 37.795276 0 0 0 553.03906 148.53516 A 37.795276 37.795276 0 0 0 553.58984 148.74805 A 37.795276 37.795276 0 0 0 553.95117 148.88281 A 37.795276 37.795276 0 0 0 555.01758 149.25391 A 37.795276 37.795276 0 0 0 555.47461 149.40234 A 37.795276 37.795276 0 0 0 555.9043 149.53711 A 37.795276 37.795276 0 0 0 556.02539 149.57227 A 37.795276 37.795276 0 0 0 556.41797 149.68945 A 37.795276 37.795276 0 0 0 556.75195 149.78516 A 37.795276 37.795276 0 0 0 557.17188 149.90039 A 37.795276 37.795276 0 0 0 557.26758 149.92578 A 37.795276 37.795276 0 0 0 557.63281 150.01953 A 37.795276 37.795276 0 0 0 557.99219 150.10742 A 37.795276 37.795276 0 0 0 558.42383 150.21094 A 37.795276 37.795276 0 0 0 560 150.54102 A 37.795276 37.795276 0 0 0 560.46875 150.625 A 37.795276 37.795276 0 0 0 560.51953 150.63281 A 37.795276 37.795276 0 0 0 560.98828 150.71094 A 37.795276 37.795276 0 0 0 561.625 150.80664 A 37.795276 37.795276 0 0 0 561.91602 150.8457 A 37.795276 37.795276 0 0 0 562.30664 150.89648 A 37.795276 37.795276 0 0 0 562.74609 150.94922 A 37.795276 37.795276 0 0 0 562.85547 150.96094 A 37.795276 37.795276 0 0 0 563.27148 151.00391 A 37.795276 37.795276 0 0 0 563.64453 151.03711 A 37.795276 37.795276 0 0 0 563.95898 151.06445 A 37.795276 37.795276 0 0 0 564.3457 151.0918 A 37.795276 37.795276 0 0 0 564.78516 151.11914 A 37.795276 37.795276 0 0 0 564.91602 151.12695 A 37.795276 37.795276 0 0 0 565.37891 151.14844 A 37.795276 37.795276 0 0 0 565.89453 151.16602 A 37.795276 37.795276 0 0 0 566.41211 151.17773 A 37.795276 37.795276 0 0 0 566.92969 151.18164 A 37.795276 37.795276 0 0 0 566.93164 151.18164 A 37.795276 37.795276 0 0 0 567.36328 151.17773 A 37.795276 37.795276 0 0 0 567.78711 151.17188 A 37.795276 37.795276 0 0 0 568.39648 151.15234 A 37.795276 37.795276 0 0 0 568.91406 151.12891 A 37.795276 37.795276 0 0 0 569.42969 151.09766 A 37.795276 37.795276 0 0 0 569.94531 151.06055 A 37.795276 37.795276 0 0 0 570.41406 151.01953 A 37.795276 37.795276 0 0 0 570.67383 150.99414 A 37.795276 37.795276 0 0 0 571.05078 150.95508 A 37.795276 37.795276 0 0 0 571.05859 150.95508 A 37.795276 37.795276 0 0 0 571.48828 150.9043 A 37.795276 37.795276 0 0 0 571.92969 150.84961 A 37.795276 37.795276 0 0 0 572.51367 150.76562 A 37.795276 37.795276 0 0 0 573.02344 150.68555 A 37.795276 37.795276 0 0 0 573.5332 150.59961 A 37.795276 37.795276 0 0 0 574.04102 150.50586 A 37.795276 37.795276 0 0 0 574.54883 150.4043 A 37.795276 37.795276 0 0 0 575.05469 150.29688 A 37.795276 37.795276 0 0 0 577.06055 149.79688 A 37.795276 37.795276 0 0 0 577.47461 149.67969 A 37.795276 37.795276 0 0 0 578.54492 149.35156 A 37.795276 37.795276 0 0 0 579.03711 149.18945 A 37.795276 37.795276 0 0 0 579.52539 149.01953 A 37.795276 37.795276 0 0 0 580.00781 148.84766 A 37.795276 37.795276 0 0 0 581.45508 148.27734 A 37.795276 37.795276 0 0 0 581.93164 148.07617 A 37.795276 37.795276 0 0 0 582.4043 147.86719 A 37.795276 37.795276 0 0 0 582.875 147.65234 A 37.795276 37.795276 0 0 0 583.3418 147.43164 A 37.795276 37.795276 0 0 0 583.80469 147.20312 A 37.795276 37.795276 0 0 0 584.26562 146.9707 A 37.795276 37.795276 0 0 0 584.72656 146.72852 A 37.795276 37.795276 0 0 0 585.17773 146.48242 A 37.795276 37.795276 0 0 0 585.62891 146.23047 A 37.795276 37.795276 0 0 0 586.07812 145.9707 A 37.795276 37.795276 0 0 0 586.52148 145.70703 A 37.795276 37.795276 0 0 0 586.96094 145.43555 A 37.795276 37.795276 0 0 0 587.39844 145.1582 A 37.795276 37.795276 0 0 0 587.83008 144.875 A 37.795276 37.795276 0 0 0 588.25977 144.58789 A 37.795276 37.795276 0 0 0 588.68359 144.29297 A 37.795276 37.795276 0 0 0 589.10547 143.99219 A 37.795276 37.795276 0 0 0 589.52148 143.68555 A 37.795276 37.795276 0 0 0 589.93359 143.37305 A 37.795276 37.795276 0 0 0 590.3418 143.05664 A 37.795276 37.795276 0 0 0 590.74609 142.73242 A 37.795276 37.795276 0 0 0 591.14453 142.4043 A 37.795276 37.795276 0 0 0 591.53906 142.07031 A 37.795276 37.795276 0 0 0 591.92578 141.73633 A 37.795276 37.795276 0 0 0 592.31445 141.38672 A 37.795276 37.795276 0 0 0 592.69531 141.03711 A 37.795276 37.795276 0 0 0 593.07031 140.68164 A 37.795276 37.795276 0 0 0 593.44141 140.32227 A 37.795276 37.795276 0 0 0 593.86719 139.89844 A 37.795276 37.795276 0 0 0 594.16797 139.58594 A 37.795276 37.795276 0 0 0 594.52344 139.21094 A 37.795276 37.795276 0 0 0 594.875 138.83203 A 37.795276 37.795276 0 0 0 595.2207 138.44727 A 37.795276 37.795276 0 0 0 595.56055 138.05859 A 37.795276 37.795276 0 0 0 595.89453 137.66406 A 37.795276 37.795276 0 0 0 596.22461 137.26562 A 37.795276 37.795276 0 0 0 596.54883 136.86328 A 37.795276 37.795276 0 0 0 596.86719 136.45508 A 37.795276 37.795276 0 0 0 597.17969 136.04297 A 37.795276 37.795276 0 0 0 597.48633 135.62891 A 37.795276 37.795276 0 0 0 597.78906 135.20703 A 37.795276 37.795276 0 0 0 598.08398 134.7832 A 37.795276 37.795276 0 0 0 598.37305 134.35547 A 37.795276 37.795276 0 0 0 598.6582 133.92383 A 37.795276 37.795276 0 0 0 598.93555 133.48828 A 37.795276 37.795276 0 0 0 599.20703 133.04883 A 37.795276 37.795276 0 0 0 599.47266 132.60547 A 37.795276 37.795276 0 0 0 599.73242 132.1582 A 37.795276 37.795276 0 0 0 599.98633 131.70703 A 37.795276 37.795276 0 0 0 600.23438 131.25391 A 37.795276 37.795276 0 0 0 600.47461 130.79688 A 37.795276 37.795276 0 0 0 600.71094 130.33594 A 37.795276 37.795276 0 0 0 600.93945 129.87305 A 37.795276 37.795276 0 0 0 601.16211 129.40625 A 37.795276 37.795276 0 0 0 601.37695 128.93555 A 37.795276 37.795276 0 0 0 601.58594 128.46289 A 37.795276 37.795276 0 0 0 601.78906 127.98828 A 37.795276 37.795276 0 0 0 601.98633 127.50977 A 37.795276 37.795276 0 0 0 602.17578 127.0293 A 37.795276 37.795276 0 0 0 602.35938 126.54492 A 37.795276 37.795276 0 0 0 602.53711 126.05859 A 37.795276 37.795276 0 0 0 602.70703 125.57227 A 37.795276 37.795276 0 0 0 602.86914 125.08008 A 37.795276 37.795276 0 0 0 603.02539 124.58789 A 37.795276 37.795276 0 0 0 603.17578 124.09375 A 37.795276 37.795276 0 0 0 603.31836 123.5957 A 37.795276 37.795276 0 0 0 603.45508 123.09766 A 37.795276 37.795276 0 0 0 603.58398 122.59766 A 37.795276 37.795276 0 0 0 603.70703 122.0957 A 37.795276 37.795276 0 0 0 603.82227 121.5918 A 37.795276 37.795276 0 0 0 603.93164 121.08594 A 37.795276 37.795276 0 0 0 604.0332 120.58008 A 37.795276 37.795276 0 0 0 604.12891 120.07031 A 37.795276 37.795276 0 0 0 604.2168 119.5625 A 37.795276 37.795276 0 0 0 604.29688 119.05078 A 37.795276 37.795276 0 0 0 604.37109 118.53906 A 37.795276 37.795276 0 0 0 604.4375 118.02734 A 37.795276 37.795276 0 0 0 604.49805 117.51367 A 37.795276 37.795276 0 0 0 604.55078 117 A 37.795276 37.795276 0 0 0 604.59766 116.48438 A 37.795276 37.795276 0 0 0 604.63672 115.96875 A 37.795276 37.795276 0 0 0 604.66797 115.45312 A 37.795276 37.795276 0 0 0 604.69336 114.93555 A 37.795276 37.795276 0 0 0 604.71094 114.41992 A 37.795276 37.795276 0 0 0 604.7207 113.90234 A 37.795276 37.795276 0 0 0 604.72461 113.38672 A 37.795276 37.795276 0 0 0 604.72266 112.95117 A 37.795276 37.795276 0 0 0 604.71289 112.43359 A 37.795276 37.795276 0 0 0 604.69531 111.91797 A 37.795276 37.795276 0 0 0 604.67188 111.40039 A 37.795276 37.795276 0 0 0 604.64062 110.88477 A 37.795276 37.795276 0 0 0 604.60352 110.36914 A 37.795276 37.795276 0 0 0 604.55859 109.85547 A 37.795276 37.795276 0 0 0 604.50781 109.33984 A 37.795276 37.795276 0 0 0 604.44922 108.82617 A 37.795276 37.795276 0 0 0 604.38281 108.31445 A 37.795276 37.795276 0 0 0 604.31055 107.80273 A 37.795276 37.795276 0 0 0 604.23047 107.29102 A 37.795276 37.795276 0 0 0 604.14258 106.78125 A 37.795276 37.795276 0 0 0 604.04883 106.27344 A 37.795276 37.795276 0 0 0 603.94922 105.76562 A 37.795276 37.795276 0 0 0 603.83984 105.25977 A 37.795276 37.795276 0 0 0 603.72656 104.75586 A 37.795276 37.795276 0 0 0 603.60547 104.25391 A 37.795276 37.795276 0 0 0 603.47656 103.75391 A 37.795276 37.795276 0 0 0 603.3418 103.25391 A 37.795276 37.795276 0 0 0 603.19922 102.75781 A 37.795276 37.795276 0 0 0 603.05078 102.26172 A 37.795276 37.795276 0 0 0 602.89453 101.76953 A 37.795276 37.795276 0 0 0 602.73242 101.27734 A 37.795276 37.795276 0 0 0 602.56445 100.78906 A 37.795276 37.795276 0 0 0 602.38867 100.30273 A 37.795276 37.795276 0 0 0 602.20508 99.820312 A 37.795276 37.795276 0 0 0 602.01758 99.337891 A 37.795276 37.795276 0 0 0 601.82227 98.859375 A 37.795276 37.795276 0 0 0 601.61914 98.384766 A 37.795276 37.795276 0 0 0 601.41211 97.910156 A 37.795276 37.795276 0 0 0 601.19531 97.441406 A 37.795276 37.795276 0 0 0 600.97461 96.972656 A 37.795276 37.795276 0 0 0 600.74805 96.509766 A 37.795276 37.795276 0 0 0 600.51367 96.048828 A 37.795276 37.795276 0 0 0 600.27344 95.589844 A 37.795276 37.795276 0 0 0 600.23633 95.519531 A 37.795276 37.795276 0 0 0 600.02734 95.136719 A 37.795276 37.795276 0 0 0 599.77344 94.685547 A 37.795276 37.795276 0 0 0 599.51562 94.238281 A 37.795276 37.795276 0 0 0 599.25 93.792969 A 37.795276 37.795276 0 0 0 598.97852 93.353516 A 37.795276 37.795276 0 0 0 598.70117 92.917969 A 37.795276 37.795276 0 0 0 598.41992 92.484375 A 37.795276 37.795276 0 0 0 598.13086 92.056641 A 37.795276 37.795276 0 0 0 597.83594 91.630859 A 37.795276 37.795276 0 0 0 597.53516 91.210938 A 37.795276 37.795276 0 0 0 597.22852 90.792969 A 37.795276 37.795276 0 0 0 596.91797 90.380859 A 37.795276 37.795276 0 0 0 596.86914 90.316406 A 37.795276 37.795276 0 0 0 596.59961 89.972656 A 37.795276 37.795276 0 0 0 596.27734 89.570312 A 37.795276 37.795276 0 0 0 595.94727 89.169922 A 37.795276 37.795276 0 0 0 595.61523 88.775391 A 37.795276 37.795276 0 0 0 595.27539 88.386719 A 37.795276 37.795276 0 0 0 594.92969 88 A 37.795276 37.795276 0 0 0 594.58008 87.619141 A 37.795276 37.795276 0 0 0 594.22461 87.244141 A 37.795276 37.795276 0 0 0 593.86523 86.873047 A 37.795276 37.795276 0 0 0 593.5 86.507812 A 37.795276 37.795276 0 0 0 593.13086 86.146484 A 37.795276 37.795276 0 0 0 592.75586 85.791016 A 37.795276 37.795276 0 0 0 592.375 85.439453 A 37.795276 37.795276 0 0 0 591.99023 85.09375 A 37.795276 37.795276 0 0 0 591.60156 84.753906 A 37.795276 37.795276 0 0 0 591.20703 84.419922 A 37.795276 37.795276 0 0 0 590.80859 84.089844 A 37.795276 37.795276 0 0 0 590.40625 83.765625 A 37.795276 37.795276 0 0 0 589.99805 83.447266 A 37.795276 37.795276 0 0 0 589.58789 83.134766 A 37.795276 37.795276 0 0 0 589.17188 82.828125 A 37.795276 37.795276 0 0 0 588.75195 82.527344 A 37.795276 37.795276 0 0 0 588.32617 82.230469 A 37.795276 37.795276 0 0 0 587.89844 81.941406 A 37.795276 37.795276 0 0 0 587.4668 81.658203 A 37.795276 37.795276 0 0 0 587.03125 81.378906 A 37.795276 37.795276 0 0 0 586.5918 81.107422 A 37.795276 37.795276 0 0 0 586.14844 80.841797 A 37.795276 37.795276 0 0 0 585.70117 80.582031 A 37.795276 37.795276 0 0 0 585.25 80.328125 A 37.795276 37.795276 0 0 0 584.79688 80.080078 A 37.795276 37.795276 0 0 0 584.33984 79.839844 A 37.795276 37.795276 0 0 0 583.87891 79.605469 A 37.795276 37.795276 0 0 0 583.41602 79.375 A 37.795276 37.795276 0 0 0 582.94922 79.154297 A 37.795276 37.795276 0 0 0 582.47852 78.9375 A 37.795276 37.795276 0 0 0 582.00586 78.728516 A 37.795276 37.795276 0 0 0 581.53125 78.525391 A 37.795276 37.795276 0 0 0 581.10156 78.347656 A 37.795276 37.795276 0 0 0 579.60352 77.779297 A 37.795276 37.795276 0 0 0 579.11523 77.609375 A 37.795276 37.795276 0 0 0 578.625 77.445312 A 37.795276 37.795276 0 0 0 578.13086 77.289062 A 37.795276 37.795276 0 0 0 577.63672 77.138672 A 37.795276 37.795276 0 0 0 577.14062 76.996094 A 37.795276 37.795276 0 0 0 576.64062 76.859375 A 37.795276 37.795276 0 0 0 576.14062 76.730469 A 37.795276 37.795276 0 0 0 575.63867 76.607422 A 37.795276 37.795276 0 0 0 575.13477 76.492188 A 37.795276 37.795276 0 0 0 574.62891 76.382812 A 37.795276 37.795276 0 0 0 574.12305 76.28125 A 37.795276 37.795276 0 0 0 573.10547 76.097656 A 37.795276 37.795276 0 0 0 572.59375 76.017578 A 37.795276 37.795276 0 0 0 572.08203 75.943359 A 37.795276 37.795276 0 0 0 571.57031 75.876953 A 37.795276 37.795276 0 0 0 571.05664 75.816406 A 37.795276 37.795276 0 0 0 570.54297 75.763672 A 37.795276 37.795276 0 0 0 569.94922 75.710938 A 37.795276 37.795276 0 0 0 569.51172 75.679688 A 37.795276 37.795276 0 0 0 569.06641 75.650391 A 37.795276 37.795276 0 0 0 568.48047 75.623047 A 37.795276 37.795276 0 0 0 567.96289 75.605469 A 37.795276 37.795276 0 0 0 567.44531 75.59375 A 37.795276 37.795276 0 0 0 566.93164 75.589844 A 37.795276 37.795276 0 0 0 566.91992 75.589844 A 37.795276 37.795276 0 0 0 566.49414 75.59375 A 37.795276 37.795276 0 0 0 566.09375 75.599609 A 37.795276 37.795276 0 0 0 565.46094 75.619141 A 37.795276 37.795276 0 0 0 564.94531 75.642578 A 37.795276 37.795276 0 0 0 564.42773 75.673828 A 37.795276 37.795276 0 0 0 563.91211 75.710938 A 37.795276 37.795276 0 0 0 562.88281 75.808594 A 37.795276 37.795276 0 0 0 562.36914 75.867188 A 37.795276 37.795276 0 0 0 562.00586 75.912109 A 37.795276 37.795276 0 0 0 560.83398 76.085938 A 37.795276 37.795276 0 0 0 560.37695 76.162109 A 37.795276 37.795276 0 0 0 558.72656 76.492188 A 37.795276 37.795276 0 0 0 558.22266 76.607422 A 37.795276 37.795276 0 0 0 557.7207 76.730469 A 37.795276 37.795276 0 0 0 557.21875 76.859375 A 37.795276 37.795276 0 0 0 556.69336 77.003906 A 37.795276 37.795276 0 0 0 556.22461 77.138672 A 37.795276 37.795276 0 0 0 555.72852 77.289062 A 37.795276 37.795276 0 0 0 552.75977 78.347656 A 37.795276 37.795276 0 0 0 552.33008 78.525391 A 37.795276 37.795276 0 0 0 551.85352 78.728516 A 37.795276 37.795276 0 0 0 549.94727 79.621094 A 37.795276 37.795276 0 0 0 549.06445 80.080078 A 37.795276 37.795276 0 0 0 548.58008 80.345703 A 37.795276 37.795276 0 0 0 548.16016 80.582031 A 37.795276 37.795276 0 0 0 547.71289 80.841797 A 37.795276 37.795276 0 0 0 547.26953 81.107422 A 37.795276 37.795276 0 0 0 546.83008 81.378906 A 37.795276 37.795276 0 0 0 546.39453 81.658203 A 37.795276 37.795276 0 0 0 545.4707 82.273438 A 37.795276 37.795276 0 0 0 544.68945 82.828125 A 37.795276 37.795276 0 0 0 543.86133 83.447266 A 37.795276 37.795276 0 0 0 543.45508 83.765625 A 37.795276 37.795276 0 0 0 543.05273 84.089844 A 37.795276 37.795276 0 0 0 542.6543 84.419922 A 37.795276 37.795276 0 0 0 542.25977 84.753906 A 37.795276 37.795276 0 0 0 541.10547 85.791016 A 37.795276 37.795276 0 0 0 540.73047 86.146484 A 37.795276 37.795276 0 0 0 539.63477 87.244141 A 37.795276 37.795276 0 0 0 539.28125 87.619141 A 37.795276 37.795276 0 0 0 538.92969 88 A 37.795276 37.795276 0 0 0 537.91211 89.169922 A 37.795276 37.795276 0 0 0 537.26172 89.972656 A 37.795276 37.795276 0 0 0 536.94336 90.380859 A 37.795276 37.795276 0 0 0 536.02539 91.630859 A 37.795276 37.795276 0 0 0 535.73047 92.054688 A 37.795276 37.795276 0 0 0 533.58789 95.589844 A 37.795276 37.795276 0 0 0 531.29688 100.78906 A 37.795276 37.795276 0 0 0 529.32617 109.60547 L 415.82812 109.60547 L 415.82812 0 L 362.56055 0 L 362.56055 109.60547 L 187.54102 0 z M 37.796875 83.150391 A 30.23622 30.23622 0 0 1 68.033203 113.38672 A 30.23622 30.23622 0 0 1 37.796875 143.62109 A 30.23622 30.23622 0 0 1 7.5605469 113.38672 A 30.23622 30.23622 0 0 1 37.796875 83.150391 z M 566.93164 83.150391 A 30.23622 30.23622 0 0 1 597.16797 113.38672 A 30.23622 30.23622 0 0 1 566.93164 143.62109 A 30.23622 30.23622 0 0 1 536.69531 113.38672 A 30.23622 30.23622 0 0 1 566.93164 83.150391 z "
       transform="scale(0.26458333)" />
  </g>
</svg>
