<?xml version="1.0" encoding="UTF-8" standalone="no"?>
<svg
   xmlns:osb="http://www.openswatchbook.org/uri/2009/osb"
   xmlns:dc="http://purl.org/dc/elements/1.1/"
   xmlns:cc="http://creativecommons.org/ns#"
   xmlns:rdf="http://www.w3.org/1999/02/22-rdf-syntax-ns#"
   xmlns:svg="http://www.w3.org/2000/svg"
   xmlns="http://www.w3.org/2000/svg"
   xmlns:sodipodi="http://sodipodi.sourceforge.net/DTD/sodipodi-0.dtd"
   xmlns:inkscape="http://www.inkscape.org/namespaces/inkscape"
   width="160mm"
   height="60mm"
   viewBox="0 0 160 60"
   version="1.1"
   id="capacitorsvg"
   inkscape:version="1.0.2-2 (e86c870879, 2021-01-15)"
   sodipodi:docname="Inductor.svg">
  <sodipodi:namedview
     pagecolor="#ffffff"
     bordercolor="#666666"
     borderopacity="1"
     objecttolerance="10"
     gridtolerance="10"
     guidetolerance="10"
     inkscape:pageopacity="0"
     inkscape:pageshadow="2"
     inkscape:window-width="1368"
     inkscape:window-height="850"
     id="namedview21"
     showgrid="false"
     inkscape:zoom="0.86152016"
     inkscape:cx="273.23887"
     inkscape:cy="174.8067"
     inkscape:window-x="-6"
     inkscape:window-y="-6"
     inkscape:window-maximized="1"
     inkscape:current-layer="draw_layer"
     inkscape:document-rotation="0" />
  <metadata
     id="metadata5">
    <rdf:RDF>
      <cc:Work
         rdf:about="">
        <dc:format>image/svg+xml</dc:format>
        <dc:type
           rdf:resource="http://purl.org/dc/dcmitype/StillImage" />
        <dc:title />
      </cc:Work>
    </rdf:RDF>
  </metadata>
  <defs
     id="defs2">
    <inkscape:path-effect
       effect="bspline"
       id="path-effect848"
       is_visible="true"
       lpeversion="1"
       weight="33.333333"
       steps="2"
       helper_size="0"
       apply_no_weight="true"
       apply_with_weight="true"
       only_selected="false" />
    <inkscape:path-effect
       effect="bspline"
       id="path-effect21"
       is_visible="true"
       lpeversion="1"
       weight="33.333333"
       steps="2"
       helper_size="0"
       apply_no_weight="true"
       apply_with_weight="true"
       only_selected="false" />
    <linearGradient
       id="linearGradient2783"
       osb:paint="solid">
      <stop
         style="stop-color:#000000;stop-opacity:1;"
         offset="0"
         id="stop2781" />
    </linearGradient>
  </defs>
  <g
     inkscape:groupmode="layer"
     id="draw_layer"
     transform="translate(0,0)"
     inkscape:label="#draw_layer">
    <path
       id="path22"
       style="fill:#000000;fill-opacity:1;stroke:none;stroke-width:1.933;stroke-linejoin:round;stroke-miterlimit:4;stroke-dasharray:none;stroke-dashoffset:0;stroke-opacity:1"
       d="M 302.34375 52.914062 A 61.250525 60.468167 0 0 0 301.6543 52.919922 A 61.250525 60.468167 0 0 0 301.00586 52.929688 A 61.250525 60.468167 0 0 0 300.98047 52.929688 A 61.250525 60.468167 0 0 0 300.16406 52.955078 A 61.250525 60.468167 0 0 0 299.97852 52.960938 A 61.250525 60.468167 0 0 0 299.14258 52.998047 A 61.250525 60.468167 0 0 0 298.30273 53.048828 A 61.250525 60.468167 0 0 0 297.46875 53.107422 A 61.250525 60.468167 0 0 0 295.79883 53.263672 A 61.250525 60.468167 0 0 0 294.9668 53.357422 A 61.250525 60.468167 0 0 0 294.37891 53.429688 A 61.250525 60.468167 0 0 0 294.28906 53.441406 A 61.250525 60.468167 0 0 0 293.54883 53.544922 A 61.250525 60.468167 0 0 0 292.80859 53.658203 A 61.250525 60.468167 0 0 0 292.48047 53.707031 A 61.250525 60.468167 0 0 0 291.73828 53.830078 A 61.250525 60.468167 0 0 0 289.06445 54.357422 A 61.250525 60.468167 0 0 0 288.24805 54.541016 A 61.250525 60.468167 0 0 0 287.43359 54.738281 A 61.250525 60.468167 0 0 0 286.62109 54.945312 A 61.250525 60.468167 0 0 0 285.76953 55.175781 A 61.250525 60.468167 0 0 0 285.75 55.181641 A 61.250525 60.468167 0 0 0 285.00977 55.392578 A 61.250525 60.468167 0 0 0 284.20703 55.632812 A 61.250525 60.468167 0 0 0 283.4082 55.882812 A 61.250525 60.468167 0 0 0 282.61328 56.144531 A 61.250525 60.468167 0 0 0 281.82227 56.416016 A 61.250525 60.468167 0 0 0 279.39453 57.326172 A 61.250525 60.468167 0 0 0 278.69922 57.611328 A 61.250525 60.468167 0 0 0 277.92578 57.935547 A 61.250525 60.468167 0 0 0 274.83789 59.363281 A 61.250525 60.468167 0 0 0 274.75195 59.40625 A 61.250525 60.468167 0 0 0 274.08984 59.742188 A 61.250525 60.468167 0 0 0 273.40625 60.097656 A 61.250525 60.468167 0 0 0 272.67188 60.494141 A 61.250525 60.468167 0 0 0 272.62305 60.523438 A 61.250525 60.468167 0 0 0 271.94336 60.900391 A 61.250525 60.468167 0 0 0 271.21875 61.316406 A 61.250525 60.468167 0 0 0 270.5 61.742188 A 61.250525 60.468167 0 0 0 269.78711 62.175781 A 61.250525 60.468167 0 0 0 269.08203 62.623047 A 61.250525 60.468167 0 0 0 268.38281 63.076172 A 61.250525 60.468167 0 0 0 267.58398 63.607422 A 61.250525 60.468167 0 0 0 267.48047 63.679688 A 61.250525 60.468167 0 0 0 266.89844 64.082031 A 61.250525 60.468167 0 0 0 266.31836 64.494141 A 61.250525 60.468167 0 0 0 264.97656 65.484375 A 61.250525 60.468167 0 0 0 264.31836 65.994141 A 61.250525 60.468167 0 0 0 263.66602 66.513672 A 61.250525 60.468167 0 0 0 263.01953 67.041016 A 61.250525 60.468167 0 0 0 262.38086 67.576172 A 61.250525 60.468167 0 0 0 260.50977 69.234375 A 61.250525 60.468167 0 0 0 259.90234 69.802734 A 61.250525 60.468167 0 0 0 259.30078 70.380859 A 61.250525 60.468167 0 0 0 258.70898 70.966797 A 61.250525 60.468167 0 0 0 258.12695 71.560547 A 61.250525 60.468167 0 0 0 257.55469 72.160156 A 61.250525 60.468167 0 0 0 256.98438 72.769531 A 61.250525 60.468167 0 0 0 256.42773 73.384766 A 61.250525 60.468167 0 0 0 255.33594 74.640625 A 61.250525 60.468167 0 0 0 254.28125 75.925781 A 61.250525 60.468167 0 0 0 253.76562 76.578125 A 61.250525 60.468167 0 0 0 253.25977 77.238281 A 61.250525 60.468167 0 0 0 252.27734 78.578125 A 61.250525 60.468167 0 0 0 251.80078 79.255859 A 61.250525 60.468167 0 0 0 250.87305 80.634766 A 61.250525 60.468167 0 0 0 250.42383 81.333984 A 61.250525 60.468167 0 0 0 248.72656 84.183594 A 61.250525 60.468167 0 0 0 248.32812 84.912109 A 61.250525 60.468167 0 0 0 247.55859 86.380859 A 61.250525 60.468167 0 0 0 246.83008 87.871094 A 61.250525 60.468167 0 0 0 246.14453 89.380859 A 61.250525 60.468167 0 0 0 244.61523 93.230469 A 61.250525 60.468167 0 0 0 244.16992 94.515625 A 61.250525 60.468167 0 0 0 244.00195 94.015625 A 61.250525 60.468167 0 0 0 243.73047 93.234375 A 61.250525 60.468167 0 0 0 243.44531 92.457031 A 61.250525 60.468167 0 0 0 243.14844 91.683594 A 61.250525 60.468167 0 0 0 242.84375 90.912109 A 61.250525 60.468167 0 0 0 242.52734 90.146484 A 61.250525 60.468167 0 0 0 242.19922 89.388672 A 61.250525 60.468167 0 0 0 241.86328 88.628906 A 61.250525 60.468167 0 0 0 241.51172 87.878906 A 61.250525 60.468167 0 0 0 241.1543 87.128906 A 61.250525 60.468167 0 0 0 240.78711 86.388672 A 61.250525 60.468167 0 0 0 240.40625 85.650391 A 61.250525 60.468167 0 0 0 240.01758 84.916016 A 61.250525 60.468167 0 0 0 239.95508 84.804688 A 61.250525 60.468167 0 0 0 239.61719 84.191406 A 61.250525 60.468167 0 0 0 239.20508 83.46875 A 61.250525 60.468167 0 0 0 238.78711 82.753906 A 61.250525 60.468167 0 0 0 238.35742 82.041016 A 61.250525 60.468167 0 0 0 237.91797 81.337891 A 61.250525 60.468167 0 0 0 237.4668 80.640625 A 61.250525 60.468167 0 0 0 237.01172 79.947266 A 61.250525 60.468167 0 0 0 236.54297 79.263672 A 61.250525 60.468167 0 0 0 236.06641 78.582031 A 61.250525 60.468167 0 0 0 235.57812 77.910156 A 61.250525 60.468167 0 0 0 235.08203 77.242188 A 61.250525 60.468167 0 0 0 234.57812 76.582031 A 61.250525 60.468167 0 0 0 234.49805 76.478516 A 61.250525 60.468167 0 0 0 234.0625 75.929688 A 61.250525 60.468167 0 0 0 233.53906 75.285156 A 61.250525 60.468167 0 0 0 233.00586 74.644531 A 61.250525 60.468167 0 0 0 232.4668 74.013672 A 61.250525 60.468167 0 0 0 231.91602 73.392578 A 61.250525 60.468167 0 0 0 231.35352 72.771484 A 61.250525 60.468167 0 0 0 230.78711 72.162109 A 61.250525 60.468167 0 0 0 230.21094 71.5625 A 61.250525 60.468167 0 0 0 229.62891 70.96875 A 61.250525 60.468167 0 0 0 229.03711 70.382812 A 61.250525 60.468167 0 0 0 228.43945 69.804688 A 61.250525 60.468167 0 0 0 227.83203 69.236328 A 61.250525 60.468167 0 0 0 227.21484 68.675781 A 61.250525 60.468167 0 0 0 226.58984 68.123047 A 61.250525 60.468167 0 0 0 225.96094 67.578125 A 61.250525 60.468167 0 0 0 225.32031 67.044922 A 61.250525 60.468167 0 0 0 224.67578 66.515625 A 61.250525 60.468167 0 0 0 224.02344 65.998047 A 61.250525 60.468167 0 0 0 223.36133 65.488281 A 61.250525 60.468167 0 0 0 222.69727 64.988281 A 61.250525 60.468167 0 0 0 222.02344 64.498047 A 61.250525 60.468167 0 0 0 221.3418 64.015625 A 61.250525 60.468167 0 0 0 220.65234 63.541016 A 61.250525 60.468167 0 0 0 219.95898 63.078125 A 61.250525 60.468167 0 0 0 219.25977 62.625 A 61.250525 60.468167 0 0 0 218.55469 62.179688 A 61.250525 60.468167 0 0 0 217.8418 61.744141 A 61.250525 60.468167 0 0 0 217.12305 61.320312 A 61.250525 60.468167 0 0 0 216.39844 60.904297 A 61.250525 60.468167 0 0 0 215.66797 60.498047 A 61.250525 60.468167 0 0 0 214.93359 60.101562 A 61.250525 60.468167 0 0 0 214.19336 59.716797 A 61.250525 60.468167 0 0 0 213.44531 59.341797 A 61.250525 60.468167 0 0 0 212.69531 58.972656 A 61.250525 60.468167 0 0 0 211.93945 58.619141 A 61.250525 60.468167 0 0 0 211.17578 58.273438 A 61.250525 60.468167 0 0 0 210.41016 57.9375 A 61.250525 60.468167 0 0 0 209.64062 57.613281 A 61.250525 60.468167 0 0 0 208.94531 57.328125 A 61.250525 60.468167 0 0 0 207.38086 56.732422 A 61.250525 60.468167 0 0 0 206.65234 56.470703 A 61.250525 60.468167 0 0 0 206.51758 56.419922 A 61.250525 60.468167 0 0 0 205.72461 56.148438 A 61.250525 60.468167 0 0 0 204.93164 55.884766 A 61.250525 60.468167 0 0 0 204.13086 55.634766 A 61.250525 60.468167 0 0 0 203.33008 55.394531 A 61.250525 60.468167 0 0 0 202.52539 55.166016 A 61.250525 60.468167 0 0 0 201.71484 54.947266 A 61.250525 60.468167 0 0 0 200.9043 54.742188 A 61.250525 60.468167 0 0 0 200.0918 54.544922 A 61.250525 60.468167 0 0 0 199.27539 54.359375 A 61.250525 60.468167 0 0 0 198.45508 54.185547 A 61.250525 60.468167 0 0 0 197.63477 54.023438 A 61.250525 60.468167 0 0 0 195.98633 53.728516 A 61.250525 60.468167 0 0 0 195.15625 53.601562 A 61.250525 60.468167 0 0 0 194.32812 53.482422 A 61.250525 60.468167 0 0 0 193.49805 53.375 A 61.250525 60.468167 0 0 0 192.66602 53.279297 A 61.250525 60.468167 0 0 0 191.83398 53.195312 A 61.250525 60.468167 0 0 0 190.87109 53.109375 A 61.250525 60.468167 0 0 0 190.16211 53.060547 A 61.250525 60.468167 0 0 0 189.44141 53.013672 A 61.250525 60.468167 0 0 0 189.13672 52.998047 A 61.250525 60.468167 0 0 0 188.49023 52.970703 A 61.250525 60.468167 0 0 0 187.65234 52.941406 A 61.250525 60.468167 0 0 0 186.8125 52.923828 A 61.250525 60.468167 0 0 0 185.98047 52.917969 A 61.250525 60.468167 0 0 0 185.96289 52.917969 A 61.250525 60.468167 0 0 0 185.27148 52.923828 A 61.250525 60.468167 0 0 0 184.62305 52.933594 A 61.250525 60.468167 0 0 0 184.59961 52.933594 A 61.250525 60.468167 0 0 0 183.7832 52.958984 A 61.250525 60.468167 0 0 0 183.5957 52.964844 A 61.250525 60.468167 0 0 0 182.75977 53.001953 A 61.250525 60.468167 0 0 0 181.92188 53.050781 A 61.250525 60.468167 0 0 0 181.08594 53.111328 A 61.250525 60.468167 0 0 0 179.41797 53.267578 A 61.250525 60.468167 0 0 0 178.58594 53.361328 A 61.250525 60.468167 0 0 0 177.99609 53.433594 A 61.250525 60.468167 0 0 0 177.9082 53.445312 A 61.250525 60.468167 0 0 0 177.16602 53.548828 A 61.250525 60.468167 0 0 0 176.42578 53.662109 A 61.250525 60.468167 0 0 0 176.09766 53.710938 A 61.250525 60.468167 0 0 0 175.35742 53.833984 A 61.250525 60.468167 0 0 0 172.68164 54.361328 A 61.250525 60.468167 0 0 0 171.86523 54.544922 A 61.250525 60.468167 0 0 0 171.05273 54.742188 A 61.250525 60.468167 0 0 0 170.23828 54.949219 A 61.250525 60.468167 0 0 0 169.38672 55.179688 A 61.250525 60.468167 0 0 0 169.36914 55.185547 A 61.250525 60.468167 0 0 0 168.62891 55.396484 A 61.250525 60.468167 0 0 0 167.82422 55.636719 A 61.250525 60.468167 0 0 0 167.02539 55.886719 A 61.250525 60.468167 0 0 0 166.23242 56.148438 A 61.250525 60.468167 0 0 0 165.44141 56.419922 A 61.250525 60.468167 0 0 0 163.01367 57.330078 A 61.250525 60.468167 0 0 0 162.31641 57.613281 A 61.250525 60.468167 0 0 0 161.54492 57.939453 A 61.250525 60.468167 0 0 0 158.45508 59.367188 A 61.250525 60.468167 0 0 0 158.36914 59.410156 A 61.250525 60.468167 0 0 0 157.70898 59.744141 A 61.250525 60.468167 0 0 0 157.02539 60.101562 A 61.250525 60.468167 0 0 0 156.29102 60.498047 A 61.250525 60.468167 0 0 0 156.24219 60.527344 A 61.250525 60.468167 0 0 0 155.56055 60.904297 A 61.250525 60.468167 0 0 0 154.83594 61.320312 A 61.250525 60.468167 0 0 0 154.11719 61.746094 A 61.250525 60.468167 0 0 0 153.4043 62.179688 A 61.250525 60.468167 0 0 0 152.69922 62.626953 A 61.250525 60.468167 0 0 0 152 63.080078 A 61.250525 60.468167 0 0 0 151.20312 63.611328 A 61.250525 60.468167 0 0 0 151.09766 63.683594 A 61.250525 60.468167 0 0 0 150.51562 64.085938 A 61.250525 60.468167 0 0 0 149.93555 64.498047 A 61.250525 60.468167 0 0 0 148.59375 65.488281 A 61.250525 60.468167 0 0 0 147.93555 65.998047 A 61.250525 60.468167 0 0 0 147.2832 66.517578 A 61.250525 60.468167 0 0 0 146.63867 67.044922 A 61.250525 60.468167 0 0 0 145.99805 67.580078 A 61.250525 60.468167 0 0 0 144.12891 69.238281 A 61.250525 60.468167 0 0 0 143.52148 69.806641 A 61.250525 60.468167 0 0 0 142.91992 70.384766 A 61.250525 60.468167 0 0 0 142.32812 70.96875 A 61.250525 60.468167 0 0 0 141.74414 71.564453 A 61.250525 60.468167 0 0 0 141.17188 72.164062 A 61.250525 60.468167 0 0 0 140.60156 72.773438 A 61.250525 60.468167 0 0 0 140.04492 73.388672 A 61.250525 60.468167 0 0 0 138.95312 74.644531 A 61.250525 60.468167 0 0 0 137.89844 75.929688 A 61.250525 60.468167 0 0 0 137.38281 76.582031 A 61.250525 60.468167 0 0 0 136.87695 77.242188 A 61.250525 60.468167 0 0 0 135.89648 78.582031 A 61.250525 60.468167 0 0 0 135.41797 79.259766 A 61.250525 60.468167 0 0 0 134.49023 80.638672 A 61.250525 60.468167 0 0 0 134.04102 81.337891 A 61.250525 60.468167 0 0 0 132.34375 84.1875 A 61.250525 60.468167 0 0 0 131.94531 84.916016 A 61.250525 60.468167 0 0 0 131.17578 86.384766 A 61.250525 60.468167 0 0 0 130.44922 87.875 A 61.250525 60.468167 0 0 0 129.76172 89.384766 A 61.250525 60.468167 0 0 0 128.23242 93.234375 A 61.250525 60.468167 0 0 0 127.69531 94.798828 A 61.250525 60.468167 0 0 0 125.03906 107.33984 L 125.03516 107.33789 A 61.250525 60.468167 0 0 0 125.00391 107.60742 A 61.250525 60.468167 0 0 0 124.93164 108.42969 A 61.250525 60.468167 0 0 0 124.86914 109.25391 A 61.250525 60.468167 0 0 0 124.8457 109.60547 L 75.398438 109.60547 A 37.79295 37.793514 0 0 0 75.373047 109.3418 A 37.79295 37.793514 0 0 0 75.314453 108.82812 A 37.79295 37.793514 0 0 0 75.248047 108.31641 A 37.79295 37.793514 0 0 0 75.175781 107.80469 A 37.79295 37.793514 0 0 0 75.095703 107.29297 A 37.79295 37.793514 0 0 0 75.005859 106.7832 A 37.79295 37.793514 0 0 0 74.914062 106.27539 A 37.79295 37.793514 0 0 0 74.814453 105.76758 A 37.79295 37.793514 0 0 0 74.705078 105.26172 A 37.79295 37.793514 0 0 0 74.591797 104.75781 A 37.79295 37.793514 0 0 0 74.470703 104.25586 A 37.79295 37.793514 0 0 0 74.341797 103.75586 A 37.79295 37.793514 0 0 0 74.207031 103.25586 A 37.79295 37.793514 0 0 0 74.064453 102.75977 A 37.79295 37.793514 0 0 0 73.916016 102.26367 A 37.79295 37.793514 0 0 0 73.759766 101.77148 A 37.79295 37.793514 0 0 0 73.597656 101.2793 A 37.79295 37.793514 0 0 0 73.429688 100.79102 A 37.79295 37.793514 0 0 0 73.253906 100.30469 A 37.79295 37.793514 0 0 0 73.070312 99.822266 A 37.79295 37.793514 0 0 0 72.882812 99.339844 A 37.79295 37.793514 0 0 0 72.6875 98.861328 A 37.79295 37.793514 0 0 0 72.484375 98.386719 A 37.79295 37.793514 0 0 0 72.277344 97.912109 A 37.79295 37.793514 0 0 0 72.060547 97.443359 A 37.79295 37.793514 0 0 0 71.839844 96.974609 A 37.79295 37.793514 0 0 0 71.613281 96.511719 A 37.79295 37.793514 0 0 0 71.378906 96.050781 A 37.79295 37.793514 0 0 0 71.138672 95.591797 A 37.79295 37.793514 0 0 0 71.099609 95.521484 A 37.79295 37.793514 0 0 0 70.890625 95.138672 A 37.79295 37.793514 0 0 0 70.636719 94.6875 A 37.79295 37.793514 0 0 0 70.378906 94.240234 A 37.79295 37.793514 0 0 0 70.113281 93.794922 A 37.79295 37.793514 0 0 0 69.841797 93.355469 A 37.79295 37.793514 0 0 0 69.564453 92.919922 A 37.79295 37.793514 0 0 0 69.283203 92.486328 A 37.79295 37.793514 0 0 0 68.994141 92.058594 A 37.79295 37.793514 0 0 0 68.699219 91.632812 A 37.79295 37.793514 0 0 0 68.398438 91.212891 A 37.79295 37.793514 0 0 0 68.091797 90.794922 A 37.79295 37.793514 0 0 0 67.78125 90.382812 A 37.79295 37.793514 0 0 0 67.732422 90.318359 A 37.79295 37.793514 0 0 0 67.462891 89.974609 A 37.79295 37.793514 0 0 0 67.140625 89.572266 A 37.79295 37.793514 0 0 0 66.8125 89.171875 A 37.79295 37.793514 0 0 0 66.478516 88.777344 A 37.79295 37.793514 0 0 0 66.138672 88.388672 A 37.79295 37.793514 0 0 0 65.792969 88 A 37.79295 37.793514 0 0 0 65.443359 87.619141 A 37.79295 37.793514 0 0 0 65.087891 87.244141 A 37.79295 37.793514 0 0 0 64.728516 86.873047 A 37.79295 37.793514 0 0 0 64.363281 86.507812 A 37.79295 37.793514 0 0 0 63.994141 86.146484 A 37.79295 37.793514 0 0 0 63.619141 85.791016 A 37.79295 37.793514 0 0 0 63.238281 85.439453 A 37.79295 37.793514 0 0 0 62.853516 85.09375 A 37.79295 37.793514 0 0 0 62.464844 84.753906 A 37.79295 37.793514 0 0 0 62.070312 84.419922 A 37.79295 37.793514 0 0 0 61.671875 84.089844 A 37.79295 37.793514 0 0 0 61.269531 83.765625 A 37.79295 37.793514 0 0 0 60.861328 83.447266 A 37.79295 37.793514 0 0 0 60.451172 83.134766 A 37.79295 37.793514 0 0 0 60.035156 82.828125 A 37.79295 37.793514 0 0 0 59.615234 82.527344 A 37.79295 37.793514 0 0 0 59.189453 82.230469 A 37.79295 37.793514 0 0 0 58.761719 81.941406 A 37.79295 37.793514 0 0 0 58.330078 81.658203 A 37.79295 37.793514 0 0 0 57.894531 81.378906 A 37.79295 37.793514 0 0 0 57.455078 81.107422 A 37.79295 37.793514 0 0 0 57.011719 80.841797 A 37.79295 37.793514 0 0 0 56.564453 80.582031 A 37.79295 37.793514 0 0 0 56.113281 80.328125 A 37.79295 37.793514 0 0 0 55.660156 80.080078 A 37.79295 37.793514 0 0 0 55.203125 79.839844 A 37.79295 37.793514 0 0 0 54.742188 79.605469 A 37.79295 37.793514 0 0 0 54.279297 79.375 A 37.79295 37.793514 0 0 0 53.8125 79.154297 A 37.79295 37.793514 0 0 0 53.341797 78.9375 A 37.79295 37.793514 0 0 0 52.869141 78.728516 A 37.79295 37.793514 0 0 0 52.394531 78.525391 A 37.79295 37.793514 0 0 0 51.964844 78.347656 A 37.79295 37.793514 0 0 0 51 77.974609 A 37.79295 37.793514 0 0 0 50.550781 77.810547 A 37.79295 37.793514 0 0 0 50.466797 77.779297 A 37.79295 37.793514 0 0 0 49.978516 77.609375 A 37.79295 37.793514 0 0 0 49.488281 77.445312 A 37.79295 37.793514 0 0 0 48.994141 77.289062 A 37.79295 37.793514 0 0 0 48.501953 77.138672 A 37.79295 37.793514 0 0 0 48.005859 76.996094 A 37.79295 37.793514 0 0 0 47.505859 76.859375 A 37.79295 37.793514 0 0 0 47.005859 76.730469 A 37.79295 37.793514 0 0 0 46.503906 76.607422 A 37.79295 37.793514 0 0 0 46 76.492188 A 37.79295 37.793514 0 0 0 45.494141 76.382812 A 37.79295 37.793514 0 0 0 44.988281 76.28125 A 37.79295 37.793514 0 0 0 43.970703 76.097656 A 37.79295 37.793514 0 0 0 43.458984 76.017578 A 37.79295 37.793514 0 0 0 42.947266 75.943359 A 37.79295 37.793514 0 0 0 42.435547 75.876953 A 37.79295 37.793514 0 0 0 41.921875 75.816406 A 37.79295 37.793514 0 0 0 41.408203 75.763672 A 37.79295 37.793514 0 0 0 40.814453 75.710938 A 37.79295 37.793514 0 0 0 40.376953 75.679688 A 37.79295 37.793514 0 0 0 39.931641 75.650391 A 37.79295 37.793514 0 0 0 39.744141 75.640625 A 37.79295 37.793514 0 0 0 39.345703 75.623047 A 37.79295 37.793514 0 0 0 38.828125 75.605469 A 37.79295 37.793514 0 0 0 38.310547 75.59375 A 37.79295 37.793514 0 0 0 37.796875 75.589844 A 37.79295 37.793514 0 0 0 37.785156 75.589844 A 37.79295 37.793514 0 0 0 37.359375 75.59375 A 37.79295 37.793514 0 0 0 36.958984 75.599609 A 37.79295 37.793514 0 0 0 36.943359 75.599609 A 37.79295 37.793514 0 0 0 36.439453 75.615234 A 37.79295 37.793514 0 0 0 36.324219 75.619141 A 37.79295 37.793514 0 0 0 35.808594 75.642578 A 37.79295 37.793514 0 0 0 35.291016 75.673828 A 37.79295 37.793514 0 0 0 34.775391 75.710938 A 37.79295 37.793514 0 0 0 33.746094 75.808594 A 37.79295 37.793514 0 0 0 33.232422 75.867188 A 37.79295 37.793514 0 0 0 32.869141 75.912109 A 37.79295 37.793514 0 0 0 32.814453 75.919922 A 37.79295 37.793514 0 0 0 32.357422 75.984375 A 37.79295 37.793514 0 0 0 31.900391 76.054688 A 37.79295 37.793514 0 0 0 31.699219 76.085938 A 37.79295 37.793514 0 0 0 31.242188 76.162109 A 37.79295 37.793514 0 0 0 29.591797 76.492188 A 37.79295 37.793514 0 0 0 29.087891 76.607422 A 37.79295 37.793514 0 0 0 28.585938 76.730469 A 37.79295 37.793514 0 0 0 28.083984 76.859375 A 37.79295 37.793514 0 0 0 27.558594 77.003906 A 37.79295 37.793514 0 0 0 27.546875 77.007812 A 37.79295 37.793514 0 0 0 27.089844 77.138672 A 37.79295 37.793514 0 0 0 26.59375 77.289062 A 37.79295 37.793514 0 0 0 26.101562 77.445312 A 37.79295 37.793514 0 0 0 25.611328 77.609375 A 37.79295 37.793514 0 0 0 25.123047 77.779297 A 37.79295 37.793514 0 0 0 23.625 78.347656 A 37.79295 37.793514 0 0 0 23.195312 78.525391 A 37.79295 37.793514 0 0 0 22.71875 78.728516 A 37.79295 37.793514 0 0 0 20.8125 79.621094 A 37.79295 37.793514 0 0 0 20.759766 79.648438 A 37.79295 37.793514 0 0 0 20.351562 79.857422 A 37.79295 37.793514 0 0 0 19.929688 80.080078 A 37.79295 37.793514 0 0 0 19.476562 80.328125 A 37.79295 37.793514 0 0 0 19.447266 80.345703 A 37.79295 37.793514 0 0 0 19.027344 80.582031 A 37.79295 37.793514 0 0 0 18.580078 80.841797 A 37.79295 37.793514 0 0 0 18.136719 81.107422 A 37.79295 37.793514 0 0 0 17.697266 81.378906 A 37.79295 37.793514 0 0 0 17.261719 81.658203 A 37.79295 37.793514 0 0 0 16.830078 81.941406 A 37.79295 37.793514 0 0 0 16.337891 82.273438 A 37.79295 37.793514 0 0 0 16.273438 82.318359 A 37.79295 37.793514 0 0 0 15.914062 82.570312 A 37.79295 37.793514 0 0 0 15.556641 82.828125 A 37.79295 37.793514 0 0 0 14.728516 83.447266 A 37.79295 37.793514 0 0 0 14.322266 83.765625 A 37.79295 37.793514 0 0 0 13.919922 84.089844 A 37.79295 37.793514 0 0 0 13.521484 84.419922 A 37.79295 37.793514 0 0 0 13.126953 84.753906 A 37.79295 37.793514 0 0 0 11.972656 85.791016 A 37.79295 37.793514 0 0 0 11.597656 86.146484 A 37.79295 37.793514 0 0 0 11.226562 86.507812 A 37.79295 37.793514 0 0 0 10.861328 86.873047 A 37.79295 37.793514 0 0 0 10.501953 87.244141 A 37.79295 37.793514 0 0 0 10.148438 87.619141 A 37.79295 37.793514 0 0 0 9.796875 88 A 37.79295 37.793514 0 0 0 9.453125 88.384766 A 37.79295 37.793514 0 0 0 8.7792969 89.169922 A 37.79295 37.793514 0 0 0 8.1289062 89.972656 A 37.79295 37.793514 0 0 0 7.8105469 90.380859 A 37.79295 37.793514 0 0 0 7.4980469 90.792969 A 37.79295 37.793514 0 0 0 6.8925781 91.630859 A 37.79295 37.793514 0 0 0 6.5976562 92.054688 A 37.79295 37.793514 0 0 0 6.0253906 92.916016 A 37.79295 37.793514 0 0 0 5.7480469 93.353516 A 37.79295 37.793514 0 0 0 4.7011719 95.134766 A 37.79295 37.793514 0 0 0 4.4550781 95.589844 A 37.79295 37.793514 0 0 0 3.9804688 96.507812 A 37.79295 37.793514 0 0 0 3.53125 97.439453 A 37.79295 37.793514 0 0 0 3.1074219 98.382812 A 37.79295 37.793514 0 0 0 2.1640625 100.78906 A 37.79295 37.793514 0 0 0 1.8320312 101.76758 A 37.79295 37.793514 0 0 0 0.19335938 109.60547 L 0.19140625 109.60547 A 37.79295 37.793514 0 0 0 0.17382812 109.77344 A 37.79295 37.793514 0 0 0 0.12890625 110.28711 A 37.79295 37.793514 0 0 0 0.08984375 110.80273 A 37.79295 37.793514 0 0 0 0.0546875 111.31836 A 37.79295 37.793514 0 0 0 0.033203125 111.83594 A 37.79295 37.793514 0 0 0 0.013671875 112.35156 A 37.79295 37.793514 0 0 0 0.001953125 112.86914 A 37.79295 37.793514 0 0 0 0 113.38672 A 37.79295 37.793514 0 0 0 0.001953125 113.82031 A 37.79295 37.793514 0 0 0 0.013671875 114.33789 A 37.79295 37.793514 0 0 0 0.029296875 114.85352 A 37.79295 37.793514 0 0 0 0.05078125 115.37109 A 37.79295 37.793514 0 0 0 0.08203125 115.88672 A 37.79295 37.793514 0 0 0 0.11914062 116.40234 A 37.79295 37.793514 0 0 0 0.1640625 116.91797 A 37.79295 37.793514 0 0 0 0.19140625 117.16602 L 0.19335938 117.16602 A 37.79295 37.793514 0 0 0 0.24804688 117.67969 A 37.79295 37.793514 0 0 0 0.31054688 118.19336 A 37.79295 37.793514 0 0 0 0.37890625 118.70508 A 37.79295 37.793514 0 0 0 0.45507812 119.2168 A 37.79295 37.793514 0 0 0 0.83007812 121.25 A 37.79295 37.793514 0 0 0 0.94140625 121.75586 A 37.79295 37.793514 0 0 0 1.3164062 123.25977 A 37.79295 37.793514 0 0 0 2.2480469 126.2168 A 37.79295 37.793514 0 0 0 2.6113281 127.18359 A 37.79295 37.793514 0 0 0 2.8046875 127.66406 A 37.79295 37.793514 0 0 0 3.4199219 129.08789 A 37.79295 37.793514 0 0 0 4.09375 130.48438 A 37.79295 37.793514 0 0 0 4.3300781 130.94336 A 37.79295 37.793514 0 0 0 4.5742188 131.40039 A 37.79295 37.793514 0 0 0 4.8222656 131.85156 A 37.79295 37.793514 0 0 0 5.078125 132.30078 A 37.79295 37.793514 0 0 0 5.3398438 132.74805 A 37.79295 37.793514 0 0 0 5.6074219 133.18945 A 37.79295 37.793514 0 0 0 5.8808594 133.62695 A 37.79295 37.793514 0 0 0 6.1621094 134.0625 A 37.79295 37.793514 0 0 0 6.4472656 134.49414 A 37.79295 37.793514 0 0 0 6.7304688 134.91016 A 37.79295 37.793514 0 0 0 6.7480469 134.93359 A 37.79295 37.793514 0 0 0 7.0371094 135.34375 A 37.79295 37.793514 0 0 0 7.3398438 135.76172 A 37.79295 37.793514 0 0 0 7.6484375 136.17578 A 37.79295 37.793514 0 0 0 7.9628906 136.58594 A 37.79295 37.793514 0 0 0 8.2832031 136.99219 A 37.79295 37.793514 0 0 0 8.609375 137.39453 A 37.79295 37.793514 0 0 0 9.2773438 138.18359 A 37.79295 37.793514 0 0 0 9.6191406 138.57031 A 37.79295 37.793514 0 0 0 10.318359 139.33203 A 37.79295 37.793514 0 0 0 10.675781 139.70508 A 37.79295 37.793514 0 0 0 11.039062 140.07422 A 37.79295 37.793514 0 0 0 11.40625 140.4375 A 37.79295 37.793514 0 0 0 11.779297 140.79688 A 37.79295 37.793514 0 0 0 12.15625 141.15039 A 37.79295 37.793514 0 0 0 12.537109 141.49805 A 37.79295 37.793514 0 0 0 12.923828 141.83984 A 37.79295 37.793514 0 0 0 13.316406 142.17773 A 37.79295 37.793514 0 0 0 13.712891 142.50977 A 37.79295 37.793514 0 0 0 14.113281 142.83789 A 37.79295 37.793514 0 0 0 14.517578 143.1582 A 37.79295 37.793514 0 0 0 14.927734 143.47461 A 37.79295 37.793514 0 0 0 15.341797 143.7832 A 37.79295 37.793514 0 0 0 15.759766 144.08789 A 37.79295 37.793514 0 0 0 16.181641 144.38672 A 37.79295 37.793514 0 0 0 16.607422 144.67969 A 37.79295 37.793514 0 0 0 17.011719 144.94922 A 37.79295 37.793514 0 0 0 17.013672 144.95117 A 37.79295 37.793514 0 0 0 17.017578 144.95312 A 37.79295 37.793514 0 0 0 17.433594 145.22266 A 37.79295 37.793514 0 0 0 17.462891 145.24219 A 37.79295 37.793514 0 0 0 17.871094 145.5 A 37.79295 37.793514 0 0 0 17.90625 145.51953 A 37.79295 37.793514 0 0 0 18.277344 145.74805 A 37.79295 37.793514 0 0 0 18.830078 146.07422 A 37.79295 37.793514 0 0 0 19.244141 146.31055 A 37.79295 37.793514 0 0 0 19.628906 146.52539 A 37.79295 37.793514 0 0 0 19.669922 146.54883 A 37.79295 37.793514 0 0 0 19.716797 146.57422 A 37.79295 37.793514 0 0 0 19.734375 146.58398 A 37.79295 37.793514 0 0 0 20.152344 146.80664 A 37.79295 37.793514 0 0 0 20.611328 147.04492 A 37.79295 37.793514 0 0 0 21.072266 147.27734 A 37.79295 37.793514 0 0 0 21.466797 147.46875 A 37.79295 37.793514 0 0 0 21.507812 147.48828 A 37.79295 37.793514 0 0 0 21.796875 147.625 A 37.79295 37.793514 0 0 0 22.126953 147.77734 A 37.79295 37.793514 0 0 0 22.154297 147.78906 A 37.79295 37.793514 0 0 0 22.476562 147.93359 A 37.79295 37.793514 0 0 0 22.859375 148.10156 A 37.79295 37.793514 0 0 0 22.896484 148.11719 A 37.79295 37.793514 0 0 0 23.017578 148.16797 A 37.79295 37.793514 0 0 0 23.427734 148.33984 A 37.79295 37.793514 0 0 0 23.90625 148.5332 A 37.79295 37.793514 0 0 0 24.457031 148.74609 A 37.79295 37.793514 0 0 0 24.818359 148.88086 A 37.79295 37.793514 0 0 0 25.884766 149.25195 A 37.79295 37.793514 0 0 0 25.916016 149.26172 A 37.79295 37.793514 0 0 0 26.34375 149.40039 A 37.79295 37.793514 0 0 0 26.773438 149.53516 A 37.79295 37.793514 0 0 0 26.892578 149.57031 A 37.79295 37.793514 0 0 0 27.271484 149.68359 A 37.79295 37.793514 0 0 0 27.287109 149.6875 A 37.79295 37.793514 0 0 0 27.621094 149.7832 A 37.79295 37.793514 0 0 0 28.041016 149.89844 A 37.79295 37.793514 0 0 0 28.136719 149.92383 A 37.79295 37.793514 0 0 0 28.501953 150.01758 A 37.79295 37.793514 0 0 0 28.861328 150.10547 A 37.79295 37.793514 0 0 0 29.292969 150.20898 A 37.79295 37.793514 0 0 0 29.873047 150.33789 A 37.79295 37.793514 0 0 0 30.302734 150.42773 A 37.79295 37.793514 0 0 0 30.869141 150.53906 A 37.79295 37.793514 0 0 0 30.986328 150.56055 A 37.79295 37.793514 0 0 0 31.287109 150.61328 A 37.79295 37.793514 0 0 0 31.337891 150.62305 A 37.79295 37.793514 0 0 0 31.388672 150.63281 A 37.79295 37.793514 0 0 0 31.826172 150.70508 A 37.79295 37.793514 0 0 0 31.855469 150.71094 A 37.79295 37.793514 0 0 0 32.492188 150.80664 A 37.79295 37.793514 0 0 0 32.523438 150.81055 A 37.79295 37.793514 0 0 0 32.783203 150.8457 A 37.79295 37.793514 0 0 0 33.173828 150.89648 A 37.79295 37.793514 0 0 0 33.613281 150.94922 A 37.79295 37.793514 0 0 0 33.722656 150.96094 A 37.79295 37.793514 0 0 0 34.138672 151.00391 A 37.79295 37.793514 0 0 0 34.511719 151.03711 A 37.79295 37.793514 0 0 0 34.792969 151.0625 A 37.79295 37.793514 0 0 0 34.826172 151.06445 A 37.79295 37.793514 0 0 0 35.212891 151.0918 A 37.79295 37.793514 0 0 0 35.652344 151.11914 A 37.79295 37.793514 0 0 0 35.783203 151.12695 A 37.79295 37.793514 0 0 0 36.246094 151.14844 A 37.79295 37.793514 0 0 0 36.761719 151.16602 A 37.79295 37.793514 0 0 0 37.279297 151.17773 A 37.79295 37.793514 0 0 0 37.796875 151.18164 A 37.79295 37.793514 0 0 0 37.798828 151.18164 A 37.79295 37.793514 0 0 0 38.230469 151.17773 A 37.79295 37.793514 0 0 0 38.654297 151.17188 A 37.79295 37.793514 0 0 0 39.263672 151.15234 A 37.79295 37.793514 0 0 0 39.78125 151.12891 A 37.79295 37.793514 0 0 0 40.296875 151.09766 A 37.79295 37.793514 0 0 0 40.8125 151.06055 A 37.79295 37.793514 0 0 0 41.28125 151.01953 A 37.79295 37.793514 0 0 0 41.541016 150.99414 A 37.79295 37.793514 0 0 0 41.917969 150.95508 A 37.79295 37.793514 0 0 0 41.925781 150.95508 A 37.79295 37.793514 0 0 0 42.355469 150.9043 A 37.79295 37.793514 0 0 0 42.796875 150.84961 A 37.79295 37.793514 0 0 0 42.984375 150.82227 A 37.79295 37.793514 0 0 0 43.380859 150.76562 A 37.79295 37.793514 0 0 0 43.890625 150.68555 A 37.79295 37.793514 0 0 0 44.398438 150.59961 A 37.79295 37.793514 0 0 0 44.90625 150.50586 A 37.79295 37.793514 0 0 0 45.414062 150.4043 A 37.79295 37.793514 0 0 0 45.919922 150.29688 A 37.79295 37.793514 0 0 0 46.925781 150.06055 A 37.79295 37.793514 0 0 0 47.925781 149.79688 A 37.79295 37.793514 0 0 0 48.339844 149.67969 A 37.79295 37.793514 0 0 0 48.689453 149.57617 A 37.79295 37.793514 0 0 0 49 149.48242 A 37.79295 37.793514 0 0 0 49.410156 149.35156 A 37.79295 37.793514 0 0 0 49.902344 149.18945 A 37.79295 37.793514 0 0 0 50.390625 149.01953 A 37.79295 37.793514 0 0 0 50.873047 148.84766 A 37.79295 37.793514 0 0 0 50.876953 148.8457 A 37.79295 37.793514 0 0 0 51.361328 148.66211 A 37.79295 37.793514 0 0 0 51.837891 148.47656 A 37.79295 37.793514 0 0 0 52.320312 148.27734 A 37.79295 37.793514 0 0 0 52.796875 148.07617 A 37.79295 37.793514 0 0 0 53.269531 147.86719 A 37.79295 37.793514 0 0 0 53.740234 147.65234 A 37.79295 37.793514 0 0 0 54.207031 147.43164 A 37.79295 37.793514 0 0 0 54.669922 147.20312 A 37.79295 37.793514 0 0 0 55.130859 146.9707 A 37.79295 37.793514 0 0 0 55.591797 146.72852 A 37.79295 37.793514 0 0 0 56.042969 146.48242 A 37.79295 37.793514 0 0 0 56.494141 146.23047 A 37.79295 37.793514 0 0 0 56.943359 145.9707 A 37.79295 37.793514 0 0 0 57.386719 145.70703 A 37.79295 37.793514 0 0 0 57.826172 145.43555 A 37.79295 37.793514 0 0 0 58.263672 145.1582 A 37.79295 37.793514 0 0 0 58.695312 144.875 A 37.79295 37.793514 0 0 0 59.125 144.58789 A 37.79295 37.793514 0 0 0 59.548828 144.29297 A 37.79295 37.793514 0 0 0 59.970703 143.99219 A 37.79295 37.793514 0 0 0 60.386719 143.68555 A 37.79295 37.793514 0 0 0 60.798828 143.37305 A 37.79295 37.793514 0 0 0 61.207031 143.05664 A 37.79295 37.793514 0 0 0 61.611328 142.73242 A 37.79295 37.793514 0 0 0 62.009766 142.4043 A 37.79295 37.793514 0 0 0 62.404297 142.07031 A 37.79295 37.793514 0 0 0 62.791016 141.73633 A 37.79295 37.793514 0 0 0 63.179688 141.38672 A 37.79295 37.793514 0 0 0 63.560547 141.03711 A 37.79295 37.793514 0 0 0 63.935547 140.68164 A 37.79295 37.793514 0 0 0 64.306641 140.32227 A 37.79295 37.793514 0 0 0 64.673828 139.95703 A 37.79295 37.793514 0 0 0 64.732422 139.89844 A 37.79295 37.793514 0 0 0 65.033203 139.58594 A 37.79295 37.793514 0 0 0 65.388672 139.21094 A 37.79295 37.793514 0 0 0 65.740234 138.83203 A 37.79295 37.793514 0 0 0 66.085938 138.44727 A 37.79295 37.793514 0 0 0 66.425781 138.05859 A 37.79295 37.793514 0 0 0 66.759766 137.66406 A 37.79295 37.793514 0 0 0 67.089844 137.26562 A 37.79295 37.793514 0 0 0 67.414062 136.86328 A 37.79295 37.793514 0 0 0 67.732422 136.45508 A 37.79295 37.793514 0 0 0 68.044922 136.04297 A 37.79295 37.793514 0 0 0 68.351562 135.62891 A 37.79295 37.793514 0 0 0 68.654297 135.20703 A 37.79295 37.793514 0 0 0 68.949219 134.7832 A 37.79295 37.793514 0 0 0 69.238281 134.35547 A 37.79295 37.793514 0 0 0 69.523438 133.92383 A 37.79295 37.793514 0 0 0 69.800781 133.48828 A 37.79295 37.793514 0 0 0 70.070312 133.04883 A 37.79295 37.793514 0 0 0 70.337891 132.60547 A 37.79295 37.793514 0 0 0 70.595703 132.1582 A 37.79295 37.793514 0 0 0 70.851562 131.70703 A 37.79295 37.793514 0 0 0 71.097656 131.25391 A 37.79295 37.793514 0 0 0 71.339844 130.79688 A 37.79295 37.793514 0 0 0 71.574219 130.33594 A 37.79295 37.793514 0 0 0 71.804688 129.87305 A 37.79295 37.793514 0 0 0 72.027344 129.40625 A 37.79295 37.793514 0 0 0 72.240234 128.93555 A 37.79295 37.793514 0 0 0 72.449219 128.46289 A 37.79295 37.793514 0 0 0 72.652344 127.98828 A 37.79295 37.793514 0 0 0 72.849609 127.50977 A 37.79295 37.793514 0 0 0 73.039062 127.0293 A 37.79295 37.793514 0 0 0 73.222656 126.54492 A 37.79295 37.793514 0 0 0 73.400391 126.05859 A 37.79295 37.793514 0 0 0 73.570312 125.57227 A 37.79295 37.793514 0 0 0 73.732422 125.08008 A 37.79295 37.793514 0 0 0 73.888672 124.58789 A 37.79295 37.793514 0 0 0 74.039062 124.09375 A 37.79295 37.793514 0 0 0 74.181641 123.5957 A 37.79295 37.793514 0 0 0 74.318359 123.09766 A 37.79295 37.793514 0 0 0 74.447266 122.59766 A 37.79295 37.793514 0 0 0 74.570312 122.0957 A 37.79295 37.793514 0 0 0 74.685547 121.5918 A 37.79295 37.793514 0 0 0 74.794922 121.08594 A 37.79295 37.793514 0 0 0 74.896484 120.58008 A 37.79295 37.793514 0 0 0 74.992188 120.07031 A 37.79295 37.793514 0 0 0 75.080078 119.5625 A 37.79295 37.793514 0 0 0 75.160156 119.05078 A 37.79295 37.793514 0 0 0 75.234375 118.53906 A 37.79295 37.793514 0 0 0 75.300781 118.02734 A 37.79295 37.793514 0 0 0 75.361328 117.51367 A 37.79295 37.793514 0 0 0 75.396484 117.16602 L 105.82617 117.16602 L 124.84375 117.16602 L 134.05469 117.16602 A 52.066149 51.400337 0 0 1 133.91211 113.38672 A 52.066149 51.400337 0 0 1 185.97852 61.986328 A 52.066149 51.400337 0 0 1 238.04492 113.38672 A 52.066149 51.400337 0 0 1 237.90234 117.16602 L 250.4375 117.16602 A 52.066149 51.400337 0 0 1 250.29492 113.38477 A 52.066149 51.400337 0 0 1 302.14258 61.984375 A 52.066149 51.400337 0 0 1 302.36133 61.984375 A 52.066149 51.400337 0 0 1 354.42773 113.38477 A 52.066149 51.400337 0 0 1 354.28711 117.16602 L 366.82031 117.16602 A 52.066149 51.400337 0 0 1 366.67969 113.38477 A 52.066149 51.400337 0 0 1 418.74414 61.984375 A 52.066149 51.400337 0 0 1 470.81055 113.38477 A 52.066149 51.400337 0 0 1 470.66992 117.16602 L 479.87305 117.16602 L 498.89844 117.16602 L 529.32422 117.16602 L 529.32617 117.16602 A 37.795276 37.795276 0 0 0 529.38086 117.67969 A 37.795276 37.795276 0 0 0 529.44336 118.19336 A 37.795276 37.795276 0 0 0 529.51172 118.70508 A 37.795276 37.795276 0 0 0 529.58789 119.2168 A 37.795276 37.795276 0 0 0 529.96289 121.25 A 37.795276 37.795276 0 0 0 530.07422 121.75586 A 37.795276 37.795276 0 0 0 530.44922 123.25977 A 37.795276 37.795276 0 0 0 531.38086 126.2168 A 37.795276 37.795276 0 0 0 531.74414 127.18359 A 37.795276 37.795276 0 0 0 531.9375 127.66602 A 37.795276 37.795276 0 0 0 532.55273 129.08984 A 37.795276 37.795276 0 0 0 533.22656 130.48633 A 37.795276 37.795276 0 0 0 533.46289 130.94531 A 37.795276 37.795276 0 0 0 533.70703 131.40234 A 37.795276 37.795276 0 0 0 533.95508 131.85352 A 37.795276 37.795276 0 0 0 534.21094 132.30273 A 37.795276 37.795276 0 0 0 534.47266 132.75 A 37.795276 37.795276 0 0 0 534.74023 133.19141 A 37.795276 37.795276 0 0 0 535.01367 133.62891 A 37.795276 37.795276 0 0 0 535.29492 134.06445 A 37.795276 37.795276 0 0 0 535.58008 134.49609 A 37.795276 37.795276 0 0 0 535.86328 134.91211 A 37.795276 37.795276 0 0 0 535.88086 134.93555 A 37.795276 37.795276 0 0 0 536.16992 135.3457 A 37.795276 37.795276 0 0 0 536.47266 135.76367 A 37.795276 37.795276 0 0 0 536.78125 136.17773 A 37.795276 37.795276 0 0 0 537.0957 136.58789 A 37.795276 37.795276 0 0 0 537.41602 136.99414 A 37.795276 37.795276 0 0 0 537.74219 137.39648 A 37.795276 37.795276 0 0 0 538.41016 138.18555 A 37.795276 37.795276 0 0 0 538.75195 138.57227 A 37.795276 37.795276 0 0 0 539.45117 139.33398 A 37.795276 37.795276 0 0 0 539.80859 139.70703 A 37.795276 37.795276 0 0 0 540.17188 140.07617 A 37.795276 37.795276 0 0 0 540.53906 140.43945 A 37.795276 37.795276 0 0 0 540.91211 140.79883 A 37.795276 37.795276 0 0 0 541.28906 141.15234 A 37.795276 37.795276 0 0 0 541.66992 141.5 A 37.795276 37.795276 0 0 0 542.05664 141.8418 A 37.795276 37.795276 0 0 0 542.44922 142.17969 A 37.795276 37.795276 0 0 0 542.8457 142.51172 A 37.795276 37.795276 0 0 0 543.24609 142.83984 A 37.795276 37.795276 0 0 0 543.65039 143.16016 A 37.795276 37.795276 0 0 0 544.06055 143.47656 A 37.795276 37.795276 0 0 0 544.47461 143.78516 A 37.795276 37.795276 0 0 0 544.89258 144.08984 A 37.795276 37.795276 0 0 0 545.31445 144.38867 A 37.795276 37.795276 0 0 0 545.74023 144.68164 A 37.795276 37.795276 0 0 0 546.14453 144.95117 A 37.795276 37.795276 0 0 0 546.14648 144.95312 A 37.795276 37.795276 0 0 0 546.15039 144.95508 A 37.795276 37.795276 0 0 0 546.56641 145.22461 A 37.795276 37.795276 0 0 0 546.59766 145.24414 A 37.795276 37.795276 0 0 0 547.00586 145.50195 A 37.795276 37.795276 0 0 0 547.03906 145.52148 A 37.795276 37.795276 0 0 0 547.41016 145.75 A 37.795276 37.795276 0 0 0 547.96289 146.07617 A 37.795276 37.795276 0 0 0 548.37695 146.3125 A 37.795276 37.795276 0 0 0 548.76172 146.52734 A 37.795276 37.795276 0 0 0 548.80273 146.55078 A 37.795276 37.795276 0 0 0 548.84961 146.57617 A 37.795276 37.795276 0 0 0 548.86719 146.58594 A 37.795276 37.795276 0 0 0 549.28516 146.80859 A 37.795276 37.795276 0 0 0 549.74414 147.04688 A 37.795276 37.795276 0 0 0 550.20508 147.2793 A 37.795276 37.795276 0 0 0 550.59961 147.4707 A 37.795276 37.795276 0 0 0 550.64062 147.49023 A 37.795276 37.795276 0 0 0 550.92969 147.62695 A 37.795276 37.795276 0 0 0 551.25977 147.7793 A 37.795276 37.795276 0 0 0 551.28711 147.79102 A 37.795276 37.795276 0 0 0 551.60938 147.93555 A 37.795276 37.795276 0 0 0 551.99219 148.10352 A 37.795276 37.795276 0 0 0 552.0293 148.11914 A 37.795276 37.795276 0 0 0 552.15039 148.16992 A 37.795276 37.795276 0 0 0 552.56055 148.3418 A 37.795276 37.795276 0 0 0 553.03906 148.53516 A 37.795276 37.795276 0 0 0 553.58984 148.74805 A 37.795276 37.795276 0 0 0 553.95117 148.88281 A 37.795276 37.795276 0 0 0 555.01758 149.25391 A 37.795276 37.795276 0 0 0 555.04688 149.26367 A 37.795276 37.795276 0 0 0 555.47461 149.40234 A 37.795276 37.795276 0 0 0 555.9043 149.53711 A 37.795276 37.795276 0 0 0 556.02539 149.57227 A 37.795276 37.795276 0 0 0 556.4043 149.68555 A 37.795276 37.795276 0 0 0 556.41797 149.68945 A 37.795276 37.795276 0 0 0 556.75195 149.78516 A 37.795276 37.795276 0 0 0 557.17188 149.90039 A 37.795276 37.795276 0 0 0 557.26758 149.92578 A 37.795276 37.795276 0 0 0 557.63281 150.01953 A 37.795276 37.795276 0 0 0 557.99219 150.10742 A 37.795276 37.795276 0 0 0 558.42383 150.21094 A 37.795276 37.795276 0 0 0 559.00391 150.33984 A 37.795276 37.795276 0 0 0 559.43359 150.42969 A 37.795276 37.795276 0 0 0 560 150.54102 A 37.795276 37.795276 0 0 0 560.11719 150.5625 A 37.795276 37.795276 0 0 0 560.41797 150.61523 A 37.795276 37.795276 0 0 0 560.46875 150.625 A 37.795276 37.795276 0 0 0 560.51953 150.63281 A 37.795276 37.795276 0 0 0 560.95703 150.70508 A 37.795276 37.795276 0 0 0 560.98828 150.71094 A 37.795276 37.795276 0 0 0 561.625 150.80664 A 37.795276 37.795276 0 0 0 561.65625 150.81055 A 37.795276 37.795276 0 0 0 561.91602 150.8457 A 37.795276 37.795276 0 0 0 562.30664 150.89648 A 37.795276 37.795276 0 0 0 562.74609 150.94922 A 37.795276 37.795276 0 0 0 562.85547 150.96094 A 37.795276 37.795276 0 0 0 563.27148 151.00391 A 37.795276 37.795276 0 0 0 563.64453 151.03711 A 37.795276 37.795276 0 0 0 563.92578 151.0625 A 37.795276 37.795276 0 0 0 563.95898 151.06445 A 37.795276 37.795276 0 0 0 564.3457 151.0918 A 37.795276 37.795276 0 0 0 564.78516 151.11914 A 37.795276 37.795276 0 0 0 564.91602 151.12695 A 37.795276 37.795276 0 0 0 565.37891 151.14844 A 37.795276 37.795276 0 0 0 565.89453 151.16602 A 37.795276 37.795276 0 0 0 566.41211 151.17773 A 37.795276 37.795276 0 0 0 566.92969 151.18164 A 37.795276 37.795276 0 0 0 566.93164 151.18164 A 37.795276 37.795276 0 0 0 567.36328 151.17773 A 37.795276 37.795276 0 0 0 567.78711 151.17188 A 37.795276 37.795276 0 0 0 568.39648 151.15234 A 37.795276 37.795276 0 0 0 568.91406 151.12891 A 37.795276 37.795276 0 0 0 569.42969 151.09766 A 37.795276 37.795276 0 0 0 569.94531 151.06055 A 37.795276 37.795276 0 0 0 570.41406 151.01953 A 37.795276 37.795276 0 0 0 570.67383 150.99414 A 37.795276 37.795276 0 0 0 571.05078 150.95508 A 37.795276 37.795276 0 0 0 571.05859 150.95508 A 37.795276 37.795276 0 0 0 571.48828 150.9043 A 37.795276 37.795276 0 0 0 571.92969 150.84961 A 37.795276 37.795276 0 0 0 572.11719 150.82227 A 37.795276 37.795276 0 0 0 572.51367 150.76562 A 37.795276 37.795276 0 0 0 573.02344 150.68555 A 37.795276 37.795276 0 0 0 573.5332 150.59961 A 37.795276 37.795276 0 0 0 574.04102 150.50586 A 37.795276 37.795276 0 0 0 574.54883 150.4043 A 37.795276 37.795276 0 0 0 575.05469 150.29688 A 37.795276 37.795276 0 0 0 576.06055 150.06055 A 37.795276 37.795276 0 0 0 577.06055 149.79688 A 37.795276 37.795276 0 0 0 577.47461 149.67969 A 37.795276 37.795276 0 0 0 577.82422 149.57617 A 37.795276 37.795276 0 0 0 578.13477 149.48242 A 37.795276 37.795276 0 0 0 578.54492 149.35156 A 37.795276 37.795276 0 0 0 579.03711 149.18945 A 37.795276 37.795276 0 0 0 579.52539 149.01953 A 37.795276 37.795276 0 0 0 580.00781 148.84766 A 37.795276 37.795276 0 0 0 580.01172 148.8457 A 37.795276 37.795276 0 0 0 580.49609 148.66211 A 37.795276 37.795276 0 0 0 580.97266 148.47656 A 37.795276 37.795276 0 0 0 581.45508 148.27734 A 37.795276 37.795276 0 0 0 581.93164 148.07617 A 37.795276 37.795276 0 0 0 582.4043 147.86719 A 37.795276 37.795276 0 0 0 582.875 147.65234 A 37.795276 37.795276 0 0 0 583.3418 147.43164 A 37.795276 37.795276 0 0 0 583.80469 147.20312 A 37.795276 37.795276 0 0 0 584.26562 146.9707 A 37.795276 37.795276 0 0 0 584.72656 146.72852 A 37.795276 37.795276 0 0 0 585.17773 146.48242 A 37.795276 37.795276 0 0 0 585.62891 146.23047 A 37.795276 37.795276 0 0 0 586.07812 145.9707 A 37.795276 37.795276 0 0 0 586.52148 145.70703 A 37.795276 37.795276 0 0 0 586.96094 145.43555 A 37.795276 37.795276 0 0 0 587.39844 145.1582 A 37.795276 37.795276 0 0 0 587.83008 144.875 A 37.795276 37.795276 0 0 0 588.25977 144.58789 A 37.795276 37.795276 0 0 0 588.68359 144.29297 A 37.795276 37.795276 0 0 0 589.10547 143.99219 A 37.795276 37.795276 0 0 0 589.52148 143.68555 A 37.795276 37.795276 0 0 0 589.93359 143.37305 A 37.795276 37.795276 0 0 0 590.3418 143.05664 A 37.795276 37.795276 0 0 0 590.74609 142.73242 A 37.795276 37.795276 0 0 0 591.14453 142.4043 A 37.795276 37.795276 0 0 0 591.53906 142.07031 A 37.795276 37.795276 0 0 0 591.92578 141.73633 A 37.795276 37.795276 0 0 0 592.31445 141.38672 A 37.795276 37.795276 0 0 0 592.69531 141.03711 A 37.795276 37.795276 0 0 0 593.07031 140.68164 A 37.795276 37.795276 0 0 0 593.44141 140.32227 A 37.795276 37.795276 0 0 0 593.80859 139.95703 A 37.795276 37.795276 0 0 0 593.86719 139.89844 A 37.795276 37.795276 0 0 0 594.16797 139.58594 A 37.795276 37.795276 0 0 0 594.52344 139.21094 A 37.795276 37.795276 0 0 0 594.875 138.83203 A 37.795276 37.795276 0 0 0 595.2207 138.44727 A 37.795276 37.795276 0 0 0 595.56055 138.05859 A 37.795276 37.795276 0 0 0 595.89453 137.66406 A 37.795276 37.795276 0 0 0 596.22461 137.26562 A 37.795276 37.795276 0 0 0 596.54883 136.86328 A 37.795276 37.795276 0 0 0 596.86719 136.45508 A 37.795276 37.795276 0 0 0 597.17969 136.04297 A 37.795276 37.795276 0 0 0 597.48633 135.62891 A 37.795276 37.795276 0 0 0 597.78906 135.20703 A 37.795276 37.795276 0 0 0 598.08398 134.7832 A 37.795276 37.795276 0 0 0 598.37305 134.35547 A 37.795276 37.795276 0 0 0 598.6582 133.92383 A 37.795276 37.795276 0 0 0 598.93555 133.48828 A 37.795276 37.795276 0 0 0 599.20703 133.04883 A 37.795276 37.795276 0 0 0 599.47266 132.60547 A 37.795276 37.795276 0 0 0 599.73242 132.1582 A 37.795276 37.795276 0 0 0 599.98633 131.70703 A 37.795276 37.795276 0 0 0 600.23438 131.25391 A 37.795276 37.795276 0 0 0 600.47461 130.79688 A 37.795276 37.795276 0 0 0 600.71094 130.33594 A 37.795276 37.795276 0 0 0 600.93945 129.87305 A 37.795276 37.795276 0 0 0 601.16211 129.40625 A 37.795276 37.795276 0 0 0 601.37695 128.93555 A 37.795276 37.795276 0 0 0 601.58594 128.46289 A 37.795276 37.795276 0 0 0 601.78906 127.98828 A 37.795276 37.795276 0 0 0 601.98633 127.50977 A 37.795276 37.795276 0 0 0 602.17578 127.0293 A 37.795276 37.795276 0 0 0 602.35938 126.54492 A 37.795276 37.795276 0 0 0 602.53711 126.05859 A 37.795276 37.795276 0 0 0 602.70703 125.57227 A 37.795276 37.795276 0 0 0 602.86914 125.08008 A 37.795276 37.795276 0 0 0 603.02539 124.58789 A 37.795276 37.795276 0 0 0 603.17578 124.09375 A 37.795276 37.795276 0 0 0 603.31836 123.5957 A 37.795276 37.795276 0 0 0 603.45508 123.09766 A 37.795276 37.795276 0 0 0 603.58398 122.59766 A 37.795276 37.795276 0 0 0 603.70703 122.0957 A 37.795276 37.795276 0 0 0 603.82227 121.5918 A 37.795276 37.795276 0 0 0 603.93164 121.08594 A 37.795276 37.795276 0 0 0 604.0332 120.58008 A 37.795276 37.795276 0 0 0 604.12891 120.07031 A 37.795276 37.795276 0 0 0 604.2168 119.5625 A 37.795276 37.795276 0 0 0 604.29688 119.05078 A 37.795276 37.795276 0 0 0 604.37109 118.53906 A 37.795276 37.795276 0 0 0 604.4375 118.02734 A 37.795276 37.795276 0 0 0 604.49805 117.51367 A 37.795276 37.795276 0 0 0 604.55078 117 A 37.795276 37.795276 0 0 0 604.59766 116.48438 A 37.795276 37.795276 0 0 0 604.63672 115.96875 A 37.795276 37.795276 0 0 0 604.66797 115.45312 A 37.795276 37.795276 0 0 0 604.69336 114.93555 A 37.795276 37.795276 0 0 0 604.71094 114.41992 A 37.795276 37.795276 0 0 0 604.7207 113.90234 A 37.795276 37.795276 0 0 0 604.72461 113.38672 A 37.795276 37.795276 0 0 0 604.72266 112.95117 A 37.795276 37.795276 0 0 0 604.71289 112.43359 A 37.795276 37.795276 0 0 0 604.69531 111.91797 A 37.795276 37.795276 0 0 0 604.67188 111.40039 A 37.795276 37.795276 0 0 0 604.64062 110.88477 A 37.795276 37.795276 0 0 0 604.60352 110.36914 A 37.795276 37.795276 0 0 0 604.55859 109.85547 A 37.795276 37.795276 0 0 0 604.50781 109.33984 A 37.795276 37.795276 0 0 0 604.44922 108.82617 A 37.795276 37.795276 0 0 0 604.38281 108.31445 A 37.795276 37.795276 0 0 0 604.31055 107.80273 A 37.795276 37.795276 0 0 0 604.23047 107.29102 A 37.795276 37.795276 0 0 0 604.14258 106.78125 A 37.795276 37.795276 0 0 0 604.04883 106.27344 A 37.795276 37.795276 0 0 0 603.94922 105.76562 A 37.795276 37.795276 0 0 0 603.83984 105.25977 A 37.795276 37.795276 0 0 0 603.72656 104.75586 A 37.795276 37.795276 0 0 0 603.60547 104.25391 A 37.795276 37.795276 0 0 0 603.47656 103.75391 A 37.795276 37.795276 0 0 0 603.3418 103.25391 A 37.795276 37.795276 0 0 0 603.19922 102.75781 A 37.795276 37.795276 0 0 0 603.05078 102.26172 A 37.795276 37.795276 0 0 0 602.89453 101.76953 A 37.795276 37.795276 0 0 0 602.73242 101.27734 A 37.795276 37.795276 0 0 0 602.56445 100.78906 A 37.795276 37.795276 0 0 0 602.38867 100.30273 A 37.795276 37.795276 0 0 0 602.20508 99.820312 A 37.795276 37.795276 0 0 0 602.01758 99.337891 A 37.795276 37.795276 0 0 0 601.82227 98.859375 A 37.795276 37.795276 0 0 0 601.61914 98.384766 A 37.795276 37.795276 0 0 0 601.41211 97.910156 A 37.795276 37.795276 0 0 0 601.19531 97.441406 A 37.795276 37.795276 0 0 0 600.97461 96.972656 A 37.795276 37.795276 0 0 0 600.74805 96.509766 A 37.795276 37.795276 0 0 0 600.51367 96.048828 A 37.795276 37.795276 0 0 0 600.27344 95.589844 A 37.795276 37.795276 0 0 0 600.23633 95.519531 A 37.795276 37.795276 0 0 0 600.02734 95.136719 A 37.795276 37.795276 0 0 0 599.77344 94.685547 A 37.795276 37.795276 0 0 0 599.51562 94.238281 A 37.795276 37.795276 0 0 0 599.25 93.792969 A 37.795276 37.795276 0 0 0 598.97852 93.353516 A 37.795276 37.795276 0 0 0 598.70117 92.917969 A 37.795276 37.795276 0 0 0 598.41992 92.484375 A 37.795276 37.795276 0 0 0 598.13086 92.056641 A 37.795276 37.795276 0 0 0 597.83594 91.630859 A 37.795276 37.795276 0 0 0 597.53516 91.210938 A 37.795276 37.795276 0 0 0 597.22852 90.792969 A 37.795276 37.795276 0 0 0 596.91797 90.380859 A 37.795276 37.795276 0 0 0 596.86914 90.316406 A 37.795276 37.795276 0 0 0 596.59961 89.972656 A 37.795276 37.795276 0 0 0 596.27734 89.570312 A 37.795276 37.795276 0 0 0 595.94727 89.169922 A 37.795276 37.795276 0 0 0 595.61523 88.775391 A 37.795276 37.795276 0 0 0 595.27539 88.386719 A 37.795276 37.795276 0 0 0 594.92969 88 A 37.795276 37.795276 0 0 0 594.58008 87.619141 A 37.795276 37.795276 0 0 0 594.22461 87.244141 A 37.795276 37.795276 0 0 0 593.86523 86.873047 A 37.795276 37.795276 0 0 0 593.5 86.507812 A 37.795276 37.795276 0 0 0 593.13086 86.146484 A 37.795276 37.795276 0 0 0 592.75586 85.791016 A 37.795276 37.795276 0 0 0 592.375 85.439453 A 37.795276 37.795276 0 0 0 591.99023 85.09375 A 37.795276 37.795276 0 0 0 591.60156 84.753906 A 37.795276 37.795276 0 0 0 591.20703 84.419922 A 37.795276 37.795276 0 0 0 590.80859 84.089844 A 37.795276 37.795276 0 0 0 590.40625 83.765625 A 37.795276 37.795276 0 0 0 589.99805 83.447266 A 37.795276 37.795276 0 0 0 589.58789 83.134766 A 37.795276 37.795276 0 0 0 589.17188 82.828125 A 37.795276 37.795276 0 0 0 588.75195 82.527344 A 37.795276 37.795276 0 0 0 588.32617 82.230469 A 37.795276 37.795276 0 0 0 587.89844 81.941406 A 37.795276 37.795276 0 0 0 587.4668 81.658203 A 37.795276 37.795276 0 0 0 587.03125 81.378906 A 37.795276 37.795276 0 0 0 586.5918 81.107422 A 37.795276 37.795276 0 0 0 586.14844 80.841797 A 37.795276 37.795276 0 0 0 585.70117 80.582031 A 37.795276 37.795276 0 0 0 585.25 80.328125 A 37.795276 37.795276 0 0 0 584.79688 80.080078 A 37.795276 37.795276 0 0 0 584.33984 79.839844 A 37.795276 37.795276 0 0 0 583.87891 79.605469 A 37.795276 37.795276 0 0 0 583.41602 79.375 A 37.795276 37.795276 0 0 0 582.94922 79.154297 A 37.795276 37.795276 0 0 0 582.47852 78.9375 A 37.795276 37.795276 0 0 0 582.00586 78.728516 A 37.795276 37.795276 0 0 0 581.53125 78.525391 A 37.795276 37.795276 0 0 0 581.10156 78.347656 A 37.795276 37.795276 0 0 0 580.13672 77.974609 A 37.795276 37.795276 0 0 0 579.6875 77.810547 A 37.795276 37.795276 0 0 0 579.60352 77.779297 A 37.795276 37.795276 0 0 0 579.11523 77.609375 A 37.795276 37.795276 0 0 0 578.625 77.445312 A 37.795276 37.795276 0 0 0 578.13086 77.289062 A 37.795276 37.795276 0 0 0 577.63672 77.138672 A 37.795276 37.795276 0 0 0 577.14062 76.996094 A 37.795276 37.795276 0 0 0 576.64062 76.859375 A 37.795276 37.795276 0 0 0 576.14062 76.730469 A 37.795276 37.795276 0 0 0 575.63867 76.607422 A 37.795276 37.795276 0 0 0 575.13477 76.492188 A 37.795276 37.795276 0 0 0 574.62891 76.382812 A 37.795276 37.795276 0 0 0 574.12305 76.28125 A 37.795276 37.795276 0 0 0 573.10547 76.097656 A 37.795276 37.795276 0 0 0 572.59375 76.017578 A 37.795276 37.795276 0 0 0 572.08203 75.943359 A 37.795276 37.795276 0 0 0 571.57031 75.876953 A 37.795276 37.795276 0 0 0 571.05664 75.816406 A 37.795276 37.795276 0 0 0 570.54297 75.763672 A 37.795276 37.795276 0 0 0 569.94922 75.710938 A 37.795276 37.795276 0 0 0 569.51172 75.679688 A 37.795276 37.795276 0 0 0 569.06641 75.650391 A 37.795276 37.795276 0 0 0 568.87891 75.640625 A 37.795276 37.795276 0 0 0 568.48047 75.623047 A 37.795276 37.795276 0 0 0 567.96289 75.605469 A 37.795276 37.795276 0 0 0 567.44531 75.59375 A 37.795276 37.795276 0 0 0 566.93164 75.589844 A 37.795276 37.795276 0 0 0 566.91992 75.589844 A 37.795276 37.795276 0 0 0 566.49414 75.59375 A 37.795276 37.795276 0 0 0 566.09375 75.599609 A 37.795276 37.795276 0 0 0 566.08008 75.599609 A 37.795276 37.795276 0 0 0 565.57617 75.615234 A 37.795276 37.795276 0 0 0 565.46094 75.619141 A 37.795276 37.795276 0 0 0 564.94531 75.642578 A 37.795276 37.795276 0 0 0 564.42773 75.673828 A 37.795276 37.795276 0 0 0 563.91211 75.710938 A 37.795276 37.795276 0 0 0 562.88281 75.808594 A 37.795276 37.795276 0 0 0 562.36914 75.867188 A 37.795276 37.795276 0 0 0 562.00586 75.912109 A 37.795276 37.795276 0 0 0 561.95117 75.919922 A 37.795276 37.795276 0 0 0 561.49414 75.984375 A 37.795276 37.795276 0 0 0 561.03711 76.054688 A 37.795276 37.795276 0 0 0 560.83398 76.085938 A 37.795276 37.795276 0 0 0 560.37695 76.162109 A 37.795276 37.795276 0 0 0 558.72656 76.492188 A 37.795276 37.795276 0 0 0 558.22266 76.607422 A 37.795276 37.795276 0 0 0 557.7207 76.730469 A 37.795276 37.795276 0 0 0 557.21875 76.859375 A 37.795276 37.795276 0 0 0 556.69336 77.003906 A 37.795276 37.795276 0 0 0 556.68164 77.007812 A 37.795276 37.795276 0 0 0 556.22461 77.138672 A 37.795276 37.795276 0 0 0 555.72852 77.289062 A 37.795276 37.795276 0 0 0 555.23633 77.445312 A 37.795276 37.795276 0 0 0 554.74609 77.609375 A 37.795276 37.795276 0 0 0 554.25781 77.779297 A 37.795276 37.795276 0 0 0 552.75977 78.347656 A 37.795276 37.795276 0 0 0 552.33008 78.525391 A 37.795276 37.795276 0 0 0 551.85352 78.728516 A 37.795276 37.795276 0 0 0 549.94727 79.621094 A 37.795276 37.795276 0 0 0 549.89453 79.648438 A 37.795276 37.795276 0 0 0 549.48633 79.857422 A 37.795276 37.795276 0 0 0 549.06445 80.080078 A 37.795276 37.795276 0 0 0 548.61133 80.328125 A 37.795276 37.795276 0 0 0 548.58008 80.345703 A 37.795276 37.795276 0 0 0 548.16016 80.582031 A 37.795276 37.795276 0 0 0 547.71289 80.841797 A 37.795276 37.795276 0 0 0 547.26953 81.107422 A 37.795276 37.795276 0 0 0 546.83008 81.378906 A 37.795276 37.795276 0 0 0 546.39453 81.658203 A 37.795276 37.795276 0 0 0 545.96289 81.941406 A 37.795276 37.795276 0 0 0 545.4707 82.273438 A 37.795276 37.795276 0 0 0 545.40625 82.318359 A 37.795276 37.795276 0 0 0 545.04688 82.570312 A 37.795276 37.795276 0 0 0 544.68945 82.828125 A 37.795276 37.795276 0 0 0 543.86133 83.447266 A 37.795276 37.795276 0 0 0 543.45508 83.765625 A 37.795276 37.795276 0 0 0 543.05273 84.089844 A 37.795276 37.795276 0 0 0 542.6543 84.419922 A 37.795276 37.795276 0 0 0 542.25977 84.753906 A 37.795276 37.795276 0 0 0 541.10547 85.791016 A 37.795276 37.795276 0 0 0 540.73047 86.146484 A 37.795276 37.795276 0 0 0 540.35938 86.507812 A 37.795276 37.795276 0 0 0 539.99414 86.873047 A 37.795276 37.795276 0 0 0 539.63477 87.244141 A 37.795276 37.795276 0 0 0 539.28125 87.619141 A 37.795276 37.795276 0 0 0 538.92969 88 A 37.795276 37.795276 0 0 0 538.58594 88.384766 A 37.795276 37.795276 0 0 0 537.91211 89.169922 A 37.795276 37.795276 0 0 0 537.26172 89.972656 A 37.795276 37.795276 0 0 0 536.94336 90.380859 A 37.795276 37.795276 0 0 0 536.63086 90.792969 A 37.795276 37.795276 0 0 0 536.02539 91.630859 A 37.795276 37.795276 0 0 0 535.73047 92.054688 A 37.795276 37.795276 0 0 0 535.1582 92.916016 A 37.795276 37.795276 0 0 0 534.88086 93.353516 A 37.795276 37.795276 0 0 0 533.83398 95.134766 A 37.795276 37.795276 0 0 0 533.58789 95.589844 A 37.795276 37.795276 0 0 0 533.11328 96.507812 A 37.795276 37.795276 0 0 0 532.66406 97.439453 A 37.795276 37.795276 0 0 0 532.24023 98.382812 A 37.795276 37.795276 0 0 0 531.29688 100.78906 A 37.795276 37.795276 0 0 0 530.96484 101.76758 A 37.795276 37.795276 0 0 0 529.32617 109.60547 L 529.32422 109.60547 L 479.87305 109.60547 A 61.250525 60.468167 0 0 0 479.85938 109.38477 A 61.250525 60.468167 0 0 0 479.79883 108.55859 A 61.250525 60.468167 0 0 0 479.72656 107.73828 A 61.250525 60.468167 0 0 0 479.64453 106.91211 A 61.250525 60.468167 0 0 0 479.54883 106.0918 A 61.250525 60.468167 0 0 0 479.44141 105.27148 A 61.250525 60.468167 0 0 0 479.32422 104.45312 A 61.250525 60.468167 0 0 0 479.19336 103.63477 A 61.250525 60.468167 0 0 0 479.05078 102.81836 A 61.250525 60.468167 0 0 0 478.90039 102.00586 A 61.250525 60.468167 0 0 0 478.73828 101.19531 A 61.250525 60.468167 0 0 0 478.5625 100.38477 A 61.250525 60.468167 0 0 0 478.37891 99.578125 A 61.250525 60.468167 0 0 0 478.18164 98.775391 A 61.250525 60.468167 0 0 0 477.97266 97.976562 A 61.250525 60.468167 0 0 0 477.75391 97.175781 A 61.250525 60.468167 0 0 0 477.52344 96.382812 A 61.250525 60.468167 0 0 0 477.2832 95.587891 A 61.250525 60.468167 0 0 0 477.0293 94.800781 A 61.250525 60.468167 0 0 0 476.76758 94.013672 A 61.250525 60.468167 0 0 0 476.49414 93.232422 A 61.250525 60.468167 0 0 0 476.20898 92.455078 A 61.250525 60.468167 0 0 0 475.91211 91.681641 A 61.250525 60.468167 0 0 0 475.60742 90.910156 A 61.250525 60.468167 0 0 0 475.29102 90.144531 A 61.250525 60.468167 0 0 0 474.96289 89.386719 A 61.250525 60.468167 0 0 0 474.62695 88.626953 A 61.250525 60.468167 0 0 0 474.27539 87.876953 A 61.250525 60.468167 0 0 0 473.91797 87.126953 A 61.250525 60.468167 0 0 0 473.55078 86.386719 A 61.250525 60.468167 0 0 0 473.17188 85.648438 A 61.250525 60.468167 0 0 0 472.78125 84.914062 A 61.250525 60.468167 0 0 0 472.7207 84.802734 A 61.250525 60.468167 0 0 0 472.38086 84.189453 A 61.250525 60.468167 0 0 0 471.9707 83.466797 A 61.250525 60.468167 0 0 0 471.55273 82.751953 A 61.250525 60.468167 0 0 0 471.12109 82.039062 A 61.250525 60.468167 0 0 0 470.68164 81.335938 A 61.250525 60.468167 0 0 0 470.23242 80.638672 A 61.250525 60.468167 0 0 0 469.77734 79.945312 A 61.250525 60.468167 0 0 0 469.30859 79.261719 A 61.250525 60.468167 0 0 0 468.83008 78.580078 A 61.250525 60.468167 0 0 0 468.3418 77.908203 A 61.250525 60.468167 0 0 0 467.8457 77.240234 A 61.250525 60.468167 0 0 0 467.3418 76.580078 A 61.250525 60.468167 0 0 0 467.26367 76.476562 A 61.250525 60.468167 0 0 0 466.82617 75.927734 A 61.250525 60.468167 0 0 0 466.30469 75.283203 A 61.250525 60.468167 0 0 0 465.76953 74.642578 A 61.250525 60.468167 0 0 0 465.23047 74.011719 A 61.250525 60.468167 0 0 0 464.67969 73.390625 A 61.250525 60.468167 0 0 0 464.11914 72.769531 A 61.250525 60.468167 0 0 0 463.55273 72.160156 A 61.250525 60.468167 0 0 0 462.97656 71.560547 A 61.250525 60.468167 0 0 0 462.39258 70.966797 A 61.250525 60.468167 0 0 0 461.80273 70.380859 A 61.250525 60.468167 0 0 0 461.20312 69.802734 A 61.250525 60.468167 0 0 0 460.5957 69.234375 A 61.250525 60.468167 0 0 0 459.97852 68.673828 A 61.250525 60.468167 0 0 0 459.35547 68.121094 A 61.250525 60.468167 0 0 0 458.72461 67.576172 A 61.250525 60.468167 0 0 0 458.08594 67.042969 A 61.250525 60.468167 0 0 0 457.43945 66.513672 A 61.250525 60.468167 0 0 0 456.78711 65.996094 A 61.250525 60.468167 0 0 0 456.12695 65.486328 A 61.250525 60.468167 0 0 0 455.46094 64.986328 A 61.250525 60.468167 0 0 0 454.78711 64.496094 A 61.250525 60.468167 0 0 0 454.10742 64.013672 A 61.250525 60.468167 0 0 0 453.41602 63.539062 A 61.250525 60.468167 0 0 0 452.72461 63.076172 A 61.250525 60.468167 0 0 0 452.02344 62.623047 A 61.250525 60.468167 0 0 0 451.31836 62.175781 A 61.250525 60.468167 0 0 0 450.60547 61.742188 A 61.250525 60.468167 0 0 0 449.88672 61.316406 A 61.250525 60.468167 0 0 0 449.16211 60.902344 A 61.250525 60.468167 0 0 0 448.43164 60.496094 A 61.250525 60.468167 0 0 0 447.69727 60.097656 A 61.250525 60.468167 0 0 0 446.95703 59.714844 A 61.250525 60.468167 0 0 0 446.20898 59.339844 A 61.250525 60.468167 0 0 0 445.45898 58.970703 A 61.250525 60.468167 0 0 0 444.70312 58.617188 A 61.250525 60.468167 0 0 0 443.93945 58.271484 A 61.250525 60.468167 0 0 0 443.17383 57.935547 A 61.250525 60.468167 0 0 0 442.4043 57.611328 A 61.250525 60.468167 0 0 0 441.70898 57.326172 A 61.250525 60.468167 0 0 0 440.14453 56.730469 A 61.250525 60.468167 0 0 0 439.41797 56.466797 A 61.250525 60.468167 0 0 0 439.28125 56.417969 A 61.250525 60.468167 0 0 0 438.49023 56.144531 A 61.250525 60.468167 0 0 0 437.69531 55.882812 A 61.250525 60.468167 0 0 0 436.89453 55.632812 A 61.250525 60.468167 0 0 0 436.09375 55.392578 A 61.250525 60.468167 0 0 0 435.28906 55.164062 A 61.250525 60.468167 0 0 0 434.47852 54.945312 A 61.250525 60.468167 0 0 0 433.66992 54.738281 A 61.250525 60.468167 0 0 0 432.85547 54.542969 A 61.250525 60.468167 0 0 0 432.03906 54.357422 A 61.250525 60.468167 0 0 0 431.21875 54.183594 A 61.250525 60.468167 0 0 0 430.40039 54.019531 A 61.250525 60.468167 0 0 0 428.75 53.726562 A 61.250525 60.468167 0 0 0 427.92188 53.597656 A 61.250525 60.468167 0 0 0 427.0918 53.480469 A 61.250525 60.468167 0 0 0 426.26172 53.373047 A 61.250525 60.468167 0 0 0 425.42969 53.277344 A 61.250525 60.468167 0 0 0 424.59766 53.191406 A 61.250525 60.468167 0 0 0 423.63477 53.107422 A 61.250525 60.468167 0 0 0 422.92578 53.058594 A 61.250525 60.468167 0 0 0 422.20508 53.009766 A 61.250525 60.468167 0 0 0 421.90039 52.996094 A 61.250525 60.468167 0 0 0 421.25586 52.96875 A 61.250525 60.468167 0 0 0 420.41602 52.939453 A 61.250525 60.468167 0 0 0 419.57812 52.921875 A 61.250525 60.468167 0 0 0 418.74609 52.914062 A 61.250525 60.468167 0 0 0 418.72656 52.914062 A 61.250525 60.468167 0 0 0 418.03711 52.919922 A 61.250525 60.468167 0 0 0 417.38672 52.929688 A 61.250525 60.468167 0 0 0 417.36523 52.929688 A 61.250525 60.468167 0 0 0 416.54883 52.955078 A 61.250525 60.468167 0 0 0 416.36133 52.960938 A 61.250525 60.468167 0 0 0 415.52539 52.998047 A 61.250525 60.468167 0 0 0 414.6875 53.048828 A 61.250525 60.468167 0 0 0 413.85156 53.107422 A 61.250525 60.468167 0 0 0 412.18359 53.263672 A 61.250525 60.468167 0 0 0 411.35156 53.357422 A 61.250525 60.468167 0 0 0 410.76172 53.429688 A 61.250525 60.468167 0 0 0 410.67383 53.443359 A 61.250525 60.468167 0 0 0 409.93359 53.546875 A 61.250525 60.468167 0 0 0 409.19141 53.658203 A 61.250525 60.468167 0 0 0 408.86328 53.708984 A 61.250525 60.468167 0 0 0 408.12305 53.830078 A 61.250525 60.468167 0 0 0 405.44727 54.359375 A 61.250525 60.468167 0 0 0 404.63086 54.542969 A 61.250525 60.468167 0 0 0 403.81836 54.740234 A 61.250525 60.468167 0 0 0 403.00391 54.947266 A 61.250525 60.468167 0 0 0 402.15234 55.177734 A 61.250525 60.468167 0 0 0 402.13477 55.183594 A 61.250525 60.468167 0 0 0 401.39258 55.392578 A 61.250525 60.468167 0 0 0 400.58984 55.632812 A 61.250525 60.468167 0 0 0 399.79102 55.882812 A 61.250525 60.468167 0 0 0 398.99805 56.146484 A 61.250525 60.468167 0 0 0 398.20703 56.417969 A 61.250525 60.468167 0 0 0 395.7793 57.328125 A 61.250525 60.468167 0 0 0 395.08203 57.611328 A 61.250525 60.468167 0 0 0 394.31055 57.9375 A 61.250525 60.468167 0 0 0 391.2207 59.365234 A 61.250525 60.468167 0 0 0 391.13477 59.408203 A 61.250525 60.468167 0 0 0 390.47461 59.742188 A 61.250525 60.468167 0 0 0 389.79102 60.099609 A 61.250525 60.468167 0 0 0 389.05664 60.496094 A 61.250525 60.468167 0 0 0 389.00781 60.523438 A 61.250525 60.468167 0 0 0 388.32617 60.902344 A 61.250525 60.468167 0 0 0 387.60156 61.318359 A 61.250525 60.468167 0 0 0 386.88281 61.742188 A 61.250525 60.468167 0 0 0 386.16992 62.177734 A 61.250525 60.468167 0 0 0 385.46484 62.623047 A 61.250525 60.468167 0 0 0 384.76562 63.076172 A 61.250525 60.468167 0 0 0 383.96875 63.607422 A 61.250525 60.468167 0 0 0 383.86328 63.679688 A 61.250525 60.468167 0 0 0 383.28125 64.083984 A 61.250525 60.468167 0 0 0 382.70117 64.496094 A 61.250525 60.468167 0 0 0 381.35938 65.486328 A 61.250525 60.468167 0 0 0 380.70117 65.996094 A 61.250525 60.468167 0 0 0 380.04883 66.513672 A 61.250525 60.468167 0 0 0 379.4043 67.042969 A 61.250525 60.468167 0 0 0 378.76367 67.576172 A 61.250525 60.468167 0 0 0 376.89453 69.236328 A 61.250525 60.468167 0 0 0 376.28516 69.804688 A 61.250525 60.468167 0 0 0 375.68359 70.382812 A 61.250525 60.468167 0 0 0 375.09375 70.966797 A 61.250525 60.468167 0 0 0 374.50977 71.560547 A 61.250525 60.468167 0 0 0 373.9375 72.160156 A 61.250525 60.468167 0 0 0 373.36719 72.769531 A 61.250525 60.468167 0 0 0 372.81055 73.386719 A 61.250525 60.468167 0 0 0 371.71875 74.642578 A 61.250525 60.468167 0 0 0 370.66406 75.925781 A 61.250525 60.468167 0 0 0 370.14844 76.580078 A 61.250525 60.468167 0 0 0 369.64258 77.238281 A 61.250525 60.468167 0 0 0 368.66211 78.580078 A 61.250525 60.468167 0 0 0 368.18359 79.257812 A 61.250525 60.468167 0 0 0 367.25586 80.634766 A 61.250525 60.468167 0 0 0 366.80664 81.335938 A 61.250525 60.468167 0 0 0 365.10938 84.185547 A 61.250525 60.468167 0 0 0 364.71094 84.914062 A 61.250525 60.468167 0 0 0 363.94141 86.382812 A 61.250525 60.468167 0 0 0 363.21484 87.873047 A 61.250525 60.468167 0 0 0 362.52734 89.380859 A 61.250525 60.468167 0 0 0 360.99805 93.230469 A 61.250525 60.468167 0 0 0 360.55273 94.515625 A 61.250525 60.468167 0 0 0 360.38477 94.013672 A 61.250525 60.468167 0 0 0 360.11328 93.232422 A 61.250525 60.468167 0 0 0 359.82812 92.455078 A 61.250525 60.468167 0 0 0 359.5293 91.681641 A 61.250525 60.468167 0 0 0 359.22656 90.910156 A 61.250525 60.468167 0 0 0 358.91016 90.144531 A 61.250525 60.468167 0 0 0 358.58008 89.386719 A 61.250525 60.468167 0 0 0 358.24414 88.626953 A 61.250525 60.468167 0 0 0 357.89453 87.876953 A 61.250525 60.468167 0 0 0 357.53516 87.126953 A 61.250525 60.468167 0 0 0 357.16797 86.386719 A 61.250525 60.468167 0 0 0 356.78906 85.648438 A 61.250525 60.468167 0 0 0 356.39844 84.914062 A 61.250525 60.468167 0 0 0 356.33789 84.802734 A 61.250525 60.468167 0 0 0 356 84.189453 A 61.250525 60.468167 0 0 0 355.58789 83.466797 A 61.250525 60.468167 0 0 0 355.16992 82.751953 A 61.250525 60.468167 0 0 0 354.74023 82.039062 A 61.250525 60.468167 0 0 0 354.29883 81.335938 A 61.250525 60.468167 0 0 0 353.84961 80.638672 A 61.250525 60.468167 0 0 0 353.39453 79.945312 A 61.250525 60.468167 0 0 0 352.92578 79.261719 A 61.250525 60.468167 0 0 0 352.44727 78.580078 A 61.250525 60.468167 0 0 0 351.96094 77.908203 A 61.250525 60.468167 0 0 0 351.46289 77.240234 A 61.250525 60.468167 0 0 0 350.96094 76.580078 A 61.250525 60.468167 0 0 0 350.88086 76.476562 A 61.250525 60.468167 0 0 0 350.44531 75.927734 A 61.250525 60.468167 0 0 0 349.92188 75.283203 A 61.250525 60.468167 0 0 0 349.38672 74.642578 A 61.250525 60.468167 0 0 0 348.84961 74.011719 A 61.250525 60.468167 0 0 0 348.29883 73.390625 A 61.250525 60.468167 0 0 0 347.73633 72.769531 A 61.250525 60.468167 0 0 0 347.16992 72.160156 A 61.250525 60.468167 0 0 0 346.59375 71.560547 A 61.250525 60.468167 0 0 0 346.01172 70.966797 A 61.250525 60.468167 0 0 0 345.41992 70.380859 A 61.250525 60.468167 0 0 0 344.82227 69.802734 A 61.250525 60.468167 0 0 0 344.21289 69.234375 A 61.250525 60.468167 0 0 0 343.5957 68.671875 A 61.250525 60.468167 0 0 0 342.97266 68.119141 A 61.250525 60.468167 0 0 0 342.34375 67.576172 A 61.250525 60.468167 0 0 0 341.70312 67.041016 A 61.250525 60.468167 0 0 0 341.05859 66.513672 A 61.250525 60.468167 0 0 0 340.40625 65.994141 A 61.250525 60.468167 0 0 0 339.74414 65.484375 A 61.250525 60.468167 0 0 0 339.08008 64.984375 A 61.250525 60.468167 0 0 0 338.40625 64.494141 A 61.250525 60.468167 0 0 0 337.72461 64.013672 A 61.250525 60.468167 0 0 0 337.03516 63.539062 A 61.250525 60.468167 0 0 0 336.3418 63.076172 A 61.250525 60.468167 0 0 0 335.64258 62.623047 A 61.250525 60.468167 0 0 0 334.93555 62.175781 A 61.250525 60.468167 0 0 0 334.22461 61.742188 A 61.250525 60.468167 0 0 0 333.50586 61.316406 A 61.250525 60.468167 0 0 0 332.78125 60.900391 A 61.250525 60.468167 0 0 0 332.04883 60.494141 A 61.250525 60.468167 0 0 0 331.31445 60.097656 A 61.250525 60.468167 0 0 0 330.57422 59.712891 A 61.250525 60.468167 0 0 0 329.82812 59.337891 A 61.250525 60.468167 0 0 0 329.07812 58.96875 A 61.250525 60.468167 0 0 0 328.32031 58.617188 A 61.250525 60.468167 0 0 0 327.55859 58.269531 A 61.250525 60.468167 0 0 0 326.79297 57.935547 A 61.250525 60.468167 0 0 0 326.02344 57.609375 A 61.250525 60.468167 0 0 0 325.32617 57.326172 A 61.250525 60.468167 0 0 0 323.76367 56.728516 A 61.250525 60.468167 0 0 0 323.03516 56.466797 A 61.250525 60.468167 0 0 0 322.89844 56.416016 A 61.250525 60.468167 0 0 0 322.10742 56.144531 A 61.250525 60.468167 0 0 0 321.3125 55.882812 A 61.250525 60.468167 0 0 0 320.51172 55.632812 A 61.250525 60.468167 0 0 0 319.71094 55.390625 A 61.250525 60.468167 0 0 0 318.9082 55.164062 A 61.250525 60.468167 0 0 0 318.09766 54.945312 A 61.250525 60.468167 0 0 0 317.28711 54.738281 A 61.250525 60.468167 0 0 0 316.47461 54.541016 A 61.250525 60.468167 0 0 0 315.65625 54.357422 A 61.250525 60.468167 0 0 0 314.83789 54.181641 A 61.250525 60.468167 0 0 0 314.01758 54.019531 A 61.250525 60.468167 0 0 0 312.36914 53.726562 A 61.250525 60.468167 0 0 0 311.53906 53.597656 A 61.250525 60.468167 0 0 0 310.70898 53.478516 A 61.250525 60.468167 0 0 0 309.88086 53.373047 A 61.250525 60.468167 0 0 0 309.04883 53.275391 A 61.250525 60.468167 0 0 0 308.21484 53.191406 A 61.250525 60.468167 0 0 0 307.25391 53.107422 A 61.250525 60.468167 0 0 0 306.54492 53.056641 A 61.250525 60.468167 0 0 0 305.82227 53.009766 A 61.250525 60.468167 0 0 0 305.51953 52.994141 A 61.250525 60.468167 0 0 0 304.87305 52.966797 A 61.250525 60.468167 0 0 0 304.03516 52.939453 A 61.250525 60.468167 0 0 0 303.19531 52.919922 A 61.250525 60.468167 0 0 0 302.36328 52.914062 A 61.250525 60.468167 0 0 0 302.34375 52.914062 z M 37.794922 81.259766 A 32.125985 32.125985 0 0 1 69.921875 113.38672 A 32.125985 32.125985 0 0 1 37.794922 145.51172 A 32.125985 32.125985 0 0 1 5.6699219 113.38672 A 32.125985 32.125985 0 0 1 37.794922 81.259766 z M 566.92969 81.259766 A 32.125863 32.126909 0 0 1 599.05469 113.38672 A 32.125863 32.126909 0 0 1 566.92969 145.51172 A 32.125863 32.126909 0 0 1 534.80273 113.38672 A 32.125863 32.126909 0 0 1 566.92969 81.259766 z "
       transform="scale(0.26458333)" />
    <circle
       style="fill:none;fill-opacity:1;fill-rule:evenodd;stroke:none;stroke-width:0.563612;stroke-linecap:butt;stroke-linejoin:miter;stroke-miterlimit:4;stroke-dasharray:none;stroke-opacity:1;paint-order:fill markers stroke"
       cx="10"
       cy="30"
       id="circle14-7"
       r="8.5" />
    <circle
       style="fill:none;fill-opacity:1;fill-rule:evenodd;stroke:none;stroke-width:0.563612;stroke-linecap:butt;stroke-linejoin:miter;stroke-miterlimit:4;stroke-dasharray:none;stroke-opacity:1;paint-order:fill markers stroke"
       cx="150"
       cy="30"
       id="circle14-7-5"
       r="8.5" />
  </g>
</svg>
