<?xml version="1.0" encoding="UTF-8" standalone="no"?>
<svg
   xmlns:osb="http://www.openswatchbook.org/uri/2009/osb"
   xmlns:dc="http://purl.org/dc/elements/1.1/"
   xmlns:cc="http://creativecommons.org/ns#"
   xmlns:rdf="http://www.w3.org/1999/02/22-rdf-syntax-ns#"
   xmlns:svg="http://www.w3.org/2000/svg"
   xmlns="http://www.w3.org/2000/svg"
   xmlns:sodipodi="http://sodipodi.sourceforge.net/DTD/sodipodi-0.dtd"
   xmlns:inkscape="http://www.inkscape.org/namespaces/inkscape"
   width="160mm"
   height="60mm"
   viewBox="0 0 160 60"
   version="1.1"
   id="capacitorsvg"
   inkscape:version="1.0.2-2 (e86c870879, 2021-01-15)"
   sodipodi:docname="LED.svg">
  <sodipodi:namedview
     pagecolor="#ffffff"
     bordercolor="#666666"
     borderopacity="1"
     objecttolerance="10"
     gridtolerance="10"
     guidetolerance="10"
     inkscape:pageopacity="0"
     inkscape:pageshadow="2"
     inkscape:window-width="958"
     inkscape:window-height="1003"
     id="namedview21"
     showgrid="false"
     inkscape:zoom="0.92677825"
     inkscape:cx="122.14777"
     inkscape:cy="94.56231"
     inkscape:window-x="-8"
     inkscape:window-y="0"
     inkscape:window-maximized="0"
     inkscape:current-layer="draw_layer"
     inkscape:document-rotation="0" />
  <metadata
     id="metadata5">
    <rdf:RDF>
      <cc:Work
         rdf:about="">
        <dc:format>image/svg+xml</dc:format>
        <dc:type
           rdf:resource="http://purl.org/dc/dcmitype/StillImage" />
        <dc:title />
      </cc:Work>
    </rdf:RDF>
  </metadata>
  <defs
     id="defs2">
    <inkscape:path-effect
       effect="bspline"
       id="path-effect25"
       is_visible="true"
       lpeversion="1"
       weight="33.333333"
       steps="2"
       helper_size="0"
       apply_no_weight="true"
       apply_with_weight="true"
       only_selected="false" />
    <inkscape:path-effect
       effect="bspline"
       id="path-effect14"
       is_visible="true"
       lpeversion="1"
       weight="33.333333"
       steps="2"
       helper_size="0"
       apply_no_weight="true"
       apply_with_weight="true"
       only_selected="false" />
    <linearGradient
       id="linearGradient2783"
       osb:paint="solid">
      <stop
         style="stop-color:#000000;stop-opacity:1;"
         offset="0"
         id="stop2781" />
    </linearGradient>
  </defs>
  <g
     inkscape:groupmode="layer"
     id="draw_layer"
     transform="translate(0,0)"
     inkscape:label="#draw_layer">
    <path
       id="path22"
       style="fill:#000000;fill-opacity:1;stroke:none;stroke-width:1.93539;stroke-linejoin:round;stroke-miterlimit:4;stroke-dasharray:none;stroke-dashoffset:0;stroke-opacity:1"
       d="M 283.71094 0 L 257.01367 11.558594 L 268.49023 16.964844 L 245.66992 53.212891 L 251.86328 56.029297 L 274.63477 19.859375 L 286.08984 25.257812 L 283.71094 0 z M 321.50586 0 L 294.81055 11.558594 L 306.28516 16.964844 L 283.46484 53.212891 L 289.6582 56.029297 L 312.42969 19.859375 L 323.88477 25.257812 L 321.50586 0 z M 187.51172 37.794922 L 187.51172 109.60742 L 75.589844 109.60742 A 37.889156 37.793435 0 0 0 75.564453 109.3418 A 37.889156 37.793435 0 0 0 75.505859 108.82812 A 37.889156 37.793435 0 0 0 75.439453 108.31641 A 37.889156 37.793435 0 0 0 75.367188 107.80469 A 37.889156 37.793435 0 0 0 75.287109 107.29297 A 37.889156 37.793435 0 0 0 75.197266 106.7832 A 37.889156 37.793435 0 0 0 75.105469 106.27539 A 37.889156 37.793435 0 0 0 75.005859 105.76758 A 37.889156 37.793435 0 0 0 74.894531 105.26172 A 37.889156 37.793435 0 0 0 74.78125 104.75781 A 37.889156 37.793435 0 0 0 74.660156 104.25586 A 37.889156 37.793435 0 0 0 74.53125 103.75586 A 37.889156 37.793435 0 0 0 74.396484 103.25586 A 37.889156 37.793435 0 0 0 74.253906 102.75977 A 37.889156 37.793435 0 0 0 74.103516 102.26367 A 37.889156 37.793435 0 0 0 73.947266 101.77148 A 37.889156 37.793435 0 0 0 73.785156 101.2793 A 37.889156 37.793435 0 0 0 73.617188 100.79102 A 37.889156 37.793435 0 0 0 73.441406 100.30469 A 37.889156 37.793435 0 0 0 73.255859 99.822266 A 37.889156 37.793435 0 0 0 73.068359 99.339844 A 37.889156 37.793435 0 0 0 72.873047 98.861328 A 37.889156 37.793435 0 0 0 72.669922 98.386719 A 37.889156 37.793435 0 0 0 72.460938 97.912109 A 37.889156 37.793435 0 0 0 72.244141 97.443359 A 37.889156 37.793435 0 0 0 72.023438 96.974609 A 37.889156 37.793435 0 0 0 71.794922 96.511719 A 37.889156 37.793435 0 0 0 71.560547 96.050781 A 37.889156 37.793435 0 0 0 71.320312 95.591797 A 37.889156 37.793435 0 0 0 71.28125 95.521484 A 37.889156 37.793435 0 0 0 71.070312 95.138672 A 37.889156 37.793435 0 0 0 70.816406 94.6875 A 37.889156 37.793435 0 0 0 70.558594 94.240234 A 37.889156 37.793435 0 0 0 70.291016 93.794922 A 37.889156 37.793435 0 0 0 70.019531 93.355469 A 37.889156 37.793435 0 0 0 69.742188 92.919922 A 37.889156 37.793435 0 0 0 69.458984 92.486328 A 37.889156 37.793435 0 0 0 69.169922 92.060547 A 37.889156 37.793435 0 0 0 68.875 91.634766 A 37.889156 37.793435 0 0 0 68.572266 91.214844 A 37.889156 37.793435 0 0 0 68.265625 90.796875 A 37.889156 37.793435 0 0 0 67.953125 90.384766 A 37.889156 37.793435 0 0 0 67.904297 90.320312 A 37.889156 37.793435 0 0 0 67.634766 89.976562 A 37.889156 37.793435 0 0 0 67.3125 89.574219 A 37.889156 37.793435 0 0 0 66.982422 89.173828 A 37.889156 37.793435 0 0 0 66.648438 88.779297 A 37.889156 37.793435 0 0 0 66.306641 88.390625 A 37.889156 37.793435 0 0 0 65.960938 88.001953 A 37.889156 37.793435 0 0 0 65.609375 87.621094 A 37.889156 37.793435 0 0 0 65.253906 87.246094 A 37.889156 37.793435 0 0 0 64.892578 86.875 A 37.889156 37.793435 0 0 0 64.527344 86.509766 A 37.889156 37.793435 0 0 0 64.15625 86.148438 A 37.889156 37.793435 0 0 0 63.78125 85.792969 A 37.889156 37.793435 0 0 0 63.398438 85.441406 A 37.889156 37.793435 0 0 0 63.013672 85.095703 A 37.889156 37.793435 0 0 0 62.623047 84.755859 A 37.889156 37.793435 0 0 0 62.228516 84.421875 A 37.889156 37.793435 0 0 0 61.828125 84.091797 A 37.889156 37.793435 0 0 0 61.425781 83.767578 A 37.889156 37.793435 0 0 0 61.015625 83.449219 A 37.889156 37.793435 0 0 0 60.605469 83.136719 A 37.889156 37.793435 0 0 0 60.1875 82.830078 A 37.889156 37.793435 0 0 0 59.767578 82.529297 A 37.889156 37.793435 0 0 0 59.339844 82.232422 A 37.889156 37.793435 0 0 0 58.912109 81.943359 A 37.889156 37.793435 0 0 0 58.478516 81.660156 A 37.889156 37.793435 0 0 0 58.042969 81.380859 A 37.889156 37.793435 0 0 0 57.601562 81.109375 A 37.889156 37.793435 0 0 0 57.15625 80.84375 A 37.889156 37.793435 0 0 0 56.708984 80.583984 A 37.889156 37.793435 0 0 0 56.255859 80.330078 A 37.889156 37.793435 0 0 0 55.802734 80.082031 A 37.889156 37.793435 0 0 0 55.34375 79.841797 A 37.889156 37.793435 0 0 0 54.880859 79.607422 A 37.889156 37.793435 0 0 0 54.417969 79.376953 A 37.889156 37.793435 0 0 0 53.949219 79.15625 A 37.889156 37.793435 0 0 0 53.478516 78.939453 A 37.889156 37.793435 0 0 0 53.003906 78.730469 A 37.889156 37.793435 0 0 0 52.527344 78.527344 A 37.889156 37.793435 0 0 0 52.097656 78.349609 A 37.889156 37.793435 0 0 0 51.130859 77.976562 A 37.889156 37.793435 0 0 0 50.679688 77.8125 A 37.889156 37.793435 0 0 0 50.595703 77.78125 A 37.889156 37.793435 0 0 0 50.105469 77.611328 A 37.889156 37.793435 0 0 0 49.615234 77.447266 A 37.889156 37.793435 0 0 0 49.119141 77.291016 A 37.889156 37.793435 0 0 0 48.625 77.140625 A 37.889156 37.793435 0 0 0 48.128906 76.998047 A 37.889156 37.793435 0 0 0 47.626953 76.861328 A 37.889156 37.793435 0 0 0 47.125 76.732422 A 37.889156 37.793435 0 0 0 46.623047 76.609375 A 37.889156 37.793435 0 0 0 46.117188 76.494141 A 37.889156 37.793435 0 0 0 45.609375 76.384766 A 37.889156 37.793435 0 0 0 45.103516 76.283203 A 37.889156 37.793435 0 0 0 44.082031 76.099609 A 37.889156 37.793435 0 0 0 43.570312 76.019531 A 37.889156 37.793435 0 0 0 43.056641 75.945312 A 37.889156 37.793435 0 0 0 42.542969 75.878906 A 37.889156 37.793435 0 0 0 42.029297 75.818359 A 37.889156 37.793435 0 0 0 41.513672 75.765625 A 37.889156 37.793435 0 0 0 40.917969 75.712891 A 37.889156 37.793435 0 0 0 40.480469 75.681641 A 37.889156 37.793435 0 0 0 40.033203 75.652344 A 37.889156 37.793435 0 0 0 39.845703 75.640625 A 37.889156 37.793435 0 0 0 39.445312 75.623047 A 37.889156 37.793435 0 0 0 38.927734 75.605469 A 37.889156 37.793435 0 0 0 38.408203 75.59375 A 37.889156 37.793435 0 0 0 37.892578 75.589844 A 37.889156 37.793435 0 0 0 37.880859 75.589844 A 37.889156 37.793435 0 0 0 37.455078 75.59375 A 37.889156 37.793435 0 0 0 37.052734 75.599609 A 37.889156 37.793435 0 0 0 37.037109 75.599609 A 37.889156 37.793435 0 0 0 36.533203 75.615234 A 37.889156 37.793435 0 0 0 36.416016 75.619141 A 37.889156 37.793435 0 0 0 35.900391 75.642578 A 37.889156 37.793435 0 0 0 35.380859 75.673828 A 37.889156 37.793435 0 0 0 34.863281 75.710938 A 37.889156 37.793435 0 0 0 33.832031 75.808594 A 37.889156 37.793435 0 0 0 33.316406 75.867188 A 37.889156 37.793435 0 0 0 32.953125 75.912109 A 37.889156 37.793435 0 0 0 32.898438 75.919922 A 37.889156 37.793435 0 0 0 32.439453 75.984375 A 37.889156 37.793435 0 0 0 31.982422 76.054688 A 37.889156 37.793435 0 0 0 31.779297 76.085938 A 37.889156 37.793435 0 0 0 31.322266 76.162109 A 37.889156 37.793435 0 0 0 29.667969 76.492188 A 37.889156 37.793435 0 0 0 29.162109 76.607422 A 37.889156 37.793435 0 0 0 28.658203 76.730469 A 37.889156 37.793435 0 0 0 28.15625 76.859375 A 37.889156 37.793435 0 0 0 27.628906 77.003906 A 37.889156 37.793435 0 0 0 27.617188 77.007812 A 37.889156 37.793435 0 0 0 27.158203 77.138672 A 37.889156 37.793435 0 0 0 26.662109 77.289062 A 37.889156 37.793435 0 0 0 26.167969 77.445312 A 37.889156 37.793435 0 0 0 25.675781 77.609375 A 37.889156 37.793435 0 0 0 25.1875 77.779297 A 37.889156 37.793435 0 0 0 23.685547 78.347656 A 37.889156 37.793435 0 0 0 23.253906 78.525391 A 37.889156 37.793435 0 0 0 22.777344 78.728516 A 37.889156 37.793435 0 0 0 20.865234 79.621094 A 37.889156 37.793435 0 0 0 20.8125 79.648438 A 37.889156 37.793435 0 0 0 20.404297 79.857422 A 37.889156 37.793435 0 0 0 19.980469 80.080078 A 37.889156 37.793435 0 0 0 19.525391 80.328125 A 37.889156 37.793435 0 0 0 19.496094 80.345703 A 37.889156 37.793435 0 0 0 19.076172 80.582031 A 37.889156 37.793435 0 0 0 18.626953 80.841797 A 37.889156 37.793435 0 0 0 18.183594 81.107422 A 37.889156 37.793435 0 0 0 17.742188 81.378906 A 37.889156 37.793435 0 0 0 17.306641 81.658203 A 37.889156 37.793435 0 0 0 16.873047 81.941406 A 37.889156 37.793435 0 0 0 16.378906 82.273438 A 37.889156 37.793435 0 0 0 16.314453 82.318359 A 37.889156 37.793435 0 0 0 15.955078 82.570312 A 37.889156 37.793435 0 0 0 15.595703 82.828125 A 37.889156 37.793435 0 0 0 14.765625 83.447266 A 37.889156 37.793435 0 0 0 14.359375 83.765625 A 37.889156 37.793435 0 0 0 13.955078 84.089844 A 37.889156 37.793435 0 0 0 13.556641 84.419922 A 37.889156 37.793435 0 0 0 13.160156 84.753906 A 37.889156 37.793435 0 0 0 12.003906 85.791016 A 37.889156 37.793435 0 0 0 11.626953 86.146484 A 37.889156 37.793435 0 0 0 11.255859 86.507812 A 37.889156 37.793435 0 0 0 10.888672 86.873047 A 37.889156 37.793435 0 0 0 10.529297 87.244141 A 37.889156 37.793435 0 0 0 10.173828 87.619141 A 37.889156 37.793435 0 0 0 9.8222656 88 A 37.889156 37.793435 0 0 0 9.4765625 88.384766 A 37.889156 37.793435 0 0 0 8.8027344 89.169922 A 37.889156 37.793435 0 0 0 8.1503906 89.972656 A 37.889156 37.793435 0 0 0 7.8300781 90.380859 A 37.889156 37.793435 0 0 0 7.5175781 90.792969 A 37.889156 37.793435 0 0 0 6.9101562 91.630859 A 37.889156 37.793435 0 0 0 6.6152344 92.054688 A 37.889156 37.793435 0 0 0 6.0410156 92.916016 A 37.889156 37.793435 0 0 0 5.7636719 93.353516 A 37.889156 37.793435 0 0 0 4.7128906 95.134766 A 37.889156 37.793435 0 0 0 4.4667969 95.589844 A 37.889156 37.793435 0 0 0 3.9902344 96.507812 A 37.889156 37.793435 0 0 0 3.5410156 97.439453 A 37.889156 37.793435 0 0 0 3.1152344 98.382812 A 37.889156 37.793435 0 0 0 2.1699219 100.78906 A 37.889156 37.793435 0 0 0 1.8359375 101.76562 A 37.889156 37.793435 0 0 0 0.19335938 109.60352 L 0.19140625 109.60352 A 37.889156 37.793435 0 0 0 0.17382812 109.77148 A 37.889156 37.793435 0 0 0 0.12890625 110.28516 A 37.889156 37.793435 0 0 0 0.08984375 110.80078 A 37.889156 37.793435 0 0 0 0.0546875 111.31641 A 37.889156 37.793435 0 0 0 0.033203125 111.83398 A 37.889156 37.793435 0 0 0 0.013671875 112.34961 A 37.889156 37.793435 0 0 0 0.001953125 112.86719 A 37.889156 37.793435 0 0 0 0 113.38672 A 37.889156 37.793435 0 0 0 0.001953125 113.82031 A 37.889156 37.793435 0 0 0 0.013671875 114.33789 A 37.889156 37.793435 0 0 0 0.029296875 114.85352 A 37.889156 37.793435 0 0 0 0.05078125 115.37109 A 37.889156 37.793435 0 0 0 0.08203125 115.88672 A 37.889156 37.793435 0 0 0 0.11914062 116.40234 A 37.889156 37.793435 0 0 0 0.1640625 116.91797 A 37.889156 37.793435 0 0 0 0.19140625 117.16602 L 0.19335938 117.16602 A 37.889156 37.793435 0 0 0 0.24804688 117.67969 A 37.889156 37.793435 0 0 0 0.31054688 118.19336 A 37.889156 37.793435 0 0 0 0.37890625 118.70508 A 37.889156 37.793435 0 0 0 0.45703125 119.2168 A 37.889156 37.793435 0 0 0 0.83203125 121.25 A 37.889156 37.793435 0 0 0 0.94335938 121.75586 A 37.889156 37.793435 0 0 0 1.3203125 123.25977 A 37.889156 37.793435 0 0 0 2.2539062 126.2168 A 37.889156 37.793435 0 0 0 2.6171875 127.18359 A 37.889156 37.793435 0 0 0 2.8125 127.66602 A 37.889156 37.793435 0 0 0 3.4277344 129.08984 A 37.889156 37.793435 0 0 0 4.1035156 130.48633 A 37.889156 37.793435 0 0 0 4.3417969 130.94531 A 37.889156 37.793435 0 0 0 4.5859375 131.40234 A 37.889156 37.793435 0 0 0 4.8339844 131.85352 A 37.889156 37.793435 0 0 0 5.0917969 132.30273 A 37.889156 37.793435 0 0 0 5.3535156 132.75 A 37.889156 37.793435 0 0 0 5.6210938 133.19141 A 37.889156 37.793435 0 0 0 5.8964844 133.62891 A 37.889156 37.793435 0 0 0 6.1777344 134.06445 A 37.889156 37.793435 0 0 0 6.4628906 134.49609 A 37.889156 37.793435 0 0 0 6.7480469 134.91211 A 37.889156 37.793435 0 0 0 6.765625 134.93555 A 37.889156 37.793435 0 0 0 7.0546875 135.3457 A 37.889156 37.793435 0 0 0 7.359375 135.76367 A 37.889156 37.793435 0 0 0 7.6679688 136.17773 A 37.889156 37.793435 0 0 0 7.9824219 136.58789 A 37.889156 37.793435 0 0 0 8.3046875 136.99414 A 37.889156 37.793435 0 0 0 8.6308594 137.39648 A 37.889156 37.793435 0 0 0 9.3007812 138.18555 A 37.889156 37.793435 0 0 0 9.6445312 138.57227 A 37.889156 37.793435 0 0 0 10.34375 139.33398 A 37.889156 37.793435 0 0 0 10.703125 139.70703 A 37.889156 37.793435 0 0 0 11.066406 140.07617 A 37.889156 37.793435 0 0 0 11.435547 140.43945 A 37.889156 37.793435 0 0 0 11.808594 140.79883 A 37.889156 37.793435 0 0 0 12.1875 141.15234 A 37.889156 37.793435 0 0 0 12.568359 141.5 A 37.889156 37.793435 0 0 0 12.957031 141.8418 A 37.889156 37.793435 0 0 0 13.349609 142.17969 A 37.889156 37.793435 0 0 0 13.748047 142.51172 A 37.889156 37.793435 0 0 0 14.148438 142.83984 A 37.889156 37.793435 0 0 0 14.554688 143.16016 A 37.889156 37.793435 0 0 0 14.964844 143.47656 A 37.889156 37.793435 0 0 0 15.380859 143.78516 A 37.889156 37.793435 0 0 0 15.800781 144.08984 A 37.889156 37.793435 0 0 0 16.222656 144.38867 A 37.889156 37.793435 0 0 0 16.650391 144.68164 A 37.889156 37.793435 0 0 0 17.054688 144.95117 A 37.889156 37.793435 0 0 0 17.056641 144.95312 A 37.889156 37.793435 0 0 0 17.060547 144.95508 A 37.889156 37.793435 0 0 0 17.478516 145.22461 A 37.889156 37.793435 0 0 0 17.507812 145.24414 A 37.889156 37.793435 0 0 0 17.916016 145.50195 A 37.889156 37.793435 0 0 0 17.951172 145.52148 A 37.889156 37.793435 0 0 0 18.324219 145.75 A 37.889156 37.793435 0 0 0 18.878906 146.07617 A 37.889156 37.793435 0 0 0 19.292969 146.3125 A 37.889156 37.793435 0 0 0 19.679688 146.52734 A 37.889156 37.793435 0 0 0 19.720703 146.55078 A 37.889156 37.793435 0 0 0 19.767578 146.57422 A 37.889156 37.793435 0 0 0 19.785156 146.58594 A 37.889156 37.793435 0 0 0 20.203125 146.80859 A 37.889156 37.793435 0 0 0 20.664062 147.04688 A 37.889156 37.793435 0 0 0 21.125 147.2793 A 37.889156 37.793435 0 0 0 21.521484 147.4707 A 37.889156 37.793435 0 0 0 21.5625 147.48828 A 37.889156 37.793435 0 0 0 21.851562 147.625 A 37.889156 37.793435 0 0 0 22.183594 147.77734 A 37.889156 37.793435 0 0 0 22.210938 147.78906 A 37.889156 37.793435 0 0 0 22.533203 147.93359 A 37.889156 37.793435 0 0 0 22.917969 148.10156 A 37.889156 37.793435 0 0 0 22.955078 148.11719 A 37.889156 37.793435 0 0 0 23.076172 148.16797 A 37.889156 37.793435 0 0 0 23.488281 148.33984 A 37.889156 37.793435 0 0 0 23.966797 148.5332 A 37.889156 37.793435 0 0 0 24.519531 148.74609 A 37.889156 37.793435 0 0 0 24.880859 148.88086 A 37.889156 37.793435 0 0 0 25.951172 149.25195 A 37.889156 37.793435 0 0 0 25.982422 149.26172 A 37.889156 37.793435 0 0 0 26.410156 149.40039 A 37.889156 37.793435 0 0 0 26.841797 149.53516 A 37.889156 37.793435 0 0 0 26.960938 149.57031 A 37.889156 37.793435 0 0 0 27.341797 149.68359 A 37.889156 37.793435 0 0 0 27.357422 149.6875 A 37.889156 37.793435 0 0 0 27.691406 149.7832 A 37.889156 37.793435 0 0 0 28.113281 149.89844 A 37.889156 37.793435 0 0 0 28.208984 149.92383 A 37.889156 37.793435 0 0 0 28.574219 150.01758 A 37.889156 37.793435 0 0 0 28.935547 150.10547 A 37.889156 37.793435 0 0 0 29.367188 150.20898 A 37.889156 37.793435 0 0 0 29.949219 150.33789 A 37.889156 37.793435 0 0 0 30.378906 150.42773 A 37.889156 37.793435 0 0 0 30.947266 150.53906 A 37.889156 37.793435 0 0 0 31.064453 150.56055 A 37.889156 37.793435 0 0 0 31.367188 150.61328 A 37.889156 37.793435 0 0 0 31.417969 150.62305 A 37.889156 37.793435 0 0 0 31.46875 150.63086 A 37.889156 37.793435 0 0 0 31.90625 150.70312 A 37.889156 37.793435 0 0 0 31.9375 150.70898 A 37.889156 37.793435 0 0 0 32.574219 150.80469 A 37.889156 37.793435 0 0 0 32.605469 150.80859 A 37.889156 37.793435 0 0 0 32.867188 150.84375 A 37.889156 37.793435 0 0 0 33.257812 150.89453 A 37.889156 37.793435 0 0 0 33.699219 150.94727 A 37.889156 37.793435 0 0 0 33.808594 150.95898 A 37.889156 37.793435 0 0 0 34.224609 151.00195 A 37.889156 37.793435 0 0 0 34.599609 151.03516 A 37.889156 37.793435 0 0 0 34.880859 151.06055 A 37.889156 37.793435 0 0 0 34.914062 151.0625 A 37.889156 37.793435 0 0 0 35.302734 151.08984 A 37.889156 37.793435 0 0 0 35.742188 151.11914 A 37.889156 37.793435 0 0 0 35.875 151.12695 A 37.889156 37.793435 0 0 0 36.337891 151.14844 A 37.889156 37.793435 0 0 0 36.855469 151.16602 A 37.889156 37.793435 0 0 0 37.375 151.17773 A 37.889156 37.793435 0 0 0 37.892578 151.18164 A 37.889156 37.793435 0 0 0 37.894531 151.18164 A 37.889156 37.793435 0 0 0 38.328125 151.17773 A 37.889156 37.793435 0 0 0 38.751953 151.17188 A 37.889156 37.793435 0 0 0 39.363281 151.15234 A 37.889156 37.793435 0 0 0 39.882812 151.12891 A 37.889156 37.793435 0 0 0 40.400391 151.09766 A 37.889156 37.793435 0 0 0 40.916016 151.06055 A 37.889156 37.793435 0 0 0 41.386719 151.01953 A 37.889156 37.793435 0 0 0 41.646484 150.99414 A 37.889156 37.793435 0 0 0 42.025391 150.95508 A 37.889156 37.793435 0 0 0 42.033203 150.95508 A 37.889156 37.793435 0 0 0 42.462891 150.9043 A 37.889156 37.793435 0 0 0 42.90625 150.84961 A 37.889156 37.793435 0 0 0 43.09375 150.82227 A 37.889156 37.793435 0 0 0 43.492188 150.76562 A 37.889156 37.793435 0 0 0 44.001953 150.68555 A 37.889156 37.793435 0 0 0 44.511719 150.59961 A 37.889156 37.793435 0 0 0 45.021484 150.50586 A 37.889156 37.793435 0 0 0 45.529297 150.4043 A 37.889156 37.793435 0 0 0 46.037109 150.29688 A 37.889156 37.793435 0 0 0 47.044922 150.06055 A 37.889156 37.793435 0 0 0 48.048828 149.79688 A 37.889156 37.793435 0 0 0 48.462891 149.67969 A 37.889156 37.793435 0 0 0 48.814453 149.57617 A 37.889156 37.793435 0 0 0 49.125 149.48242 A 37.889156 37.793435 0 0 0 49.535156 149.35156 A 37.889156 37.793435 0 0 0 50.029297 149.18945 A 37.889156 37.793435 0 0 0 50.519531 149.01953 A 37.889156 37.793435 0 0 0 51.001953 148.84766 A 37.889156 37.793435 0 0 0 51.005859 148.8457 A 37.889156 37.793435 0 0 0 51.492188 148.66211 A 37.889156 37.793435 0 0 0 51.970703 148.47656 A 37.889156 37.793435 0 0 0 52.453125 148.27734 A 37.889156 37.793435 0 0 0 52.931641 148.07617 A 37.889156 37.793435 0 0 0 53.404297 147.86719 A 37.889156 37.793435 0 0 0 53.876953 147.65234 A 37.889156 37.793435 0 0 0 54.345703 147.43164 A 37.889156 37.793435 0 0 0 54.808594 147.20312 A 37.889156 37.793435 0 0 0 55.271484 146.9707 A 37.889156 37.793435 0 0 0 55.732422 146.72852 A 37.889156 37.793435 0 0 0 56.185547 146.48242 A 37.889156 37.793435 0 0 0 56.638672 146.23047 A 37.889156 37.793435 0 0 0 57.087891 145.9707 A 37.889156 37.793435 0 0 0 57.533203 145.70703 A 37.889156 37.793435 0 0 0 57.972656 145.43555 A 37.889156 37.793435 0 0 0 58.412109 145.1582 A 37.889156 37.793435 0 0 0 58.84375 144.875 A 37.889156 37.793435 0 0 0 59.275391 144.58789 A 37.889156 37.793435 0 0 0 59.701172 144.29297 A 37.889156 37.793435 0 0 0 60.123047 143.99219 A 37.889156 37.793435 0 0 0 60.541016 143.68555 A 37.889156 37.793435 0 0 0 60.953125 143.37305 A 37.889156 37.793435 0 0 0 61.363281 143.05664 A 37.889156 37.793435 0 0 0 61.767578 142.73242 A 37.889156 37.793435 0 0 0 62.167969 142.4043 A 37.889156 37.793435 0 0 0 62.5625 142.07031 A 37.889156 37.793435 0 0 0 62.951172 141.73633 A 37.889156 37.793435 0 0 0 63.339844 141.38672 A 37.889156 37.793435 0 0 0 63.722656 141.03711 A 37.889156 37.793435 0 0 0 64.097656 140.68164 A 37.889156 37.793435 0 0 0 64.470703 140.32227 A 37.889156 37.793435 0 0 0 64.837891 139.95703 A 37.889156 37.793435 0 0 0 64.896484 139.89844 A 37.889156 37.793435 0 0 0 65.199219 139.58594 A 37.889156 37.793435 0 0 0 65.554688 139.21094 A 37.889156 37.793435 0 0 0 65.908203 138.83203 A 37.889156 37.793435 0 0 0 66.253906 138.44727 A 37.889156 37.793435 0 0 0 66.595703 138.05859 A 37.889156 37.793435 0 0 0 66.929688 137.66406 A 37.889156 37.793435 0 0 0 67.259766 137.26562 A 37.889156 37.793435 0 0 0 67.585938 136.86328 A 37.889156 37.793435 0 0 0 67.904297 136.45508 A 37.889156 37.793435 0 0 0 68.21875 136.04297 A 37.889156 37.793435 0 0 0 68.525391 135.62891 A 37.889156 37.793435 0 0 0 68.828125 135.20703 A 37.889156 37.793435 0 0 0 69.125 134.7832 A 37.889156 37.793435 0 0 0 69.414062 134.35547 A 37.889156 37.793435 0 0 0 69.701172 133.92578 A 37.889156 37.793435 0 0 0 69.978516 133.49023 A 37.889156 37.793435 0 0 0 70.248047 133.05078 A 37.889156 37.793435 0 0 0 70.517578 132.60742 A 37.889156 37.793435 0 0 0 70.775391 132.16016 A 37.889156 37.793435 0 0 0 71.03125 131.70898 A 37.889156 37.793435 0 0 0 71.279297 131.25586 A 37.889156 37.793435 0 0 0 71.521484 130.79883 A 37.889156 37.793435 0 0 0 71.755859 130.33789 A 37.889156 37.793435 0 0 0 71.988281 129.875 A 37.889156 37.793435 0 0 0 72.210938 129.4082 A 37.889156 37.793435 0 0 0 72.423828 128.9375 A 37.889156 37.793435 0 0 0 72.632812 128.46484 A 37.889156 37.793435 0 0 0 72.837891 127.99023 A 37.889156 37.793435 0 0 0 73.035156 127.51172 A 37.889156 37.793435 0 0 0 73.224609 127.03125 A 37.889156 37.793435 0 0 0 73.408203 126.54688 A 37.889156 37.793435 0 0 0 73.587891 126.06055 A 37.889156 37.793435 0 0 0 73.757812 125.57422 A 37.889156 37.793435 0 0 0 73.919922 125.08203 A 37.889156 37.793435 0 0 0 74.076172 124.58984 A 37.889156 37.793435 0 0 0 74.228516 124.0957 A 37.889156 37.793435 0 0 0 74.371094 123.59766 A 37.889156 37.793435 0 0 0 74.507812 123.09961 A 37.889156 37.793435 0 0 0 74.636719 122.59961 A 37.889156 37.793435 0 0 0 74.759766 122.09766 A 37.889156 37.793435 0 0 0 74.875 121.59375 A 37.889156 37.793435 0 0 0 74.986328 121.08789 A 37.889156 37.793435 0 0 0 75.087891 120.58203 A 37.889156 37.793435 0 0 0 75.183594 120.07227 A 37.889156 37.793435 0 0 0 75.271484 119.56445 A 37.889156 37.793435 0 0 0 75.351562 119.05273 A 37.889156 37.793435 0 0 0 75.425781 118.54102 A 37.889156 37.793435 0 0 0 75.492188 118.0293 A 37.889156 37.793435 0 0 0 75.552734 117.51562 A 37.889156 37.793435 0 0 0 75.587891 117.16602 L 75.587891 115.5918 L 187.51172 115.5918 L 187.51172 187.4043 L 363.65039 115.09375 L 363.65039 187.4043 L 417.25781 187.4043 L 417.25781 115.5918 L 529.32422 115.5918 L 529.32422 117.16992 A 37.888615 37.795196 0 0 0 529.37891 117.68359 A 37.888615 37.795196 0 0 0 529.44141 118.19727 A 37.888615 37.795196 0 0 0 529.50977 118.70898 A 37.888615 37.795196 0 0 0 529.58789 119.2207 A 37.888615 37.795196 0 0 0 529.96289 121.25391 A 37.888615 37.795196 0 0 0 530.07422 121.75977 A 37.888615 37.795196 0 0 0 530.44922 123.26367 A 37.888615 37.795196 0 0 0 531.38477 126.2207 A 37.888615 37.795196 0 0 0 531.74805 127.1875 A 37.888615 37.795196 0 0 0 531.94141 127.66992 A 37.888615 37.795196 0 0 0 532.55859 129.09375 A 37.888615 37.795196 0 0 0 533.23438 130.49023 A 37.888615 37.795196 0 0 0 533.4707 130.94922 A 37.888615 37.795196 0 0 0 533.7168 131.40625 A 37.888615 37.795196 0 0 0 533.96484 131.85742 A 37.888615 37.795196 0 0 0 534.22266 132.30664 A 37.888615 37.795196 0 0 0 534.48438 132.75391 A 37.888615 37.795196 0 0 0 534.75195 133.19531 A 37.888615 37.795196 0 0 0 535.02734 133.63281 A 37.888615 37.795196 0 0 0 535.30859 134.06836 A 37.888615 37.795196 0 0 0 535.59375 134.5 A 37.888615 37.795196 0 0 0 535.87695 134.91602 A 37.888615 37.795196 0 0 0 535.89648 134.93945 A 37.888615 37.795196 0 0 0 536.1875 135.34961 A 37.888615 37.795196 0 0 0 536.49023 135.76758 A 37.888615 37.795196 0 0 0 536.79688 136.18164 A 37.888615 37.795196 0 0 0 537.11328 136.5918 A 37.888615 37.795196 0 0 0 537.43359 136.99805 A 37.888615 37.795196 0 0 0 537.76172 137.40039 A 37.888615 37.795196 0 0 0 538.42969 138.18945 A 37.888615 37.795196 0 0 0 538.77344 138.57617 A 37.888615 37.795196 0 0 0 539.47461 139.33789 A 37.888615 37.795196 0 0 0 539.83203 139.71094 A 37.888615 37.795196 0 0 0 540.19727 140.08008 A 37.888615 37.795196 0 0 0 540.56445 140.44336 A 37.888615 37.795196 0 0 0 540.93945 140.80273 A 37.888615 37.795196 0 0 0 541.31641 141.15625 A 37.888615 37.795196 0 0 0 541.69922 141.50391 A 37.888615 37.795196 0 0 0 542.08594 141.8457 A 37.888615 37.795196 0 0 0 542.48047 142.18359 A 37.888615 37.795196 0 0 0 542.87695 142.51562 A 37.888615 37.795196 0 0 0 543.2793 142.84375 A 37.888615 37.795196 0 0 0 543.68359 143.16406 A 37.888615 37.795196 0 0 0 544.0957 143.48047 A 37.888615 37.795196 0 0 0 544.50977 143.78906 A 37.888615 37.795196 0 0 0 544.92969 144.09375 A 37.888615 37.795196 0 0 0 545.35156 144.39258 A 37.888615 37.795196 0 0 0 545.7793 144.68555 A 37.888615 37.795196 0 0 0 546.18359 144.95508 A 37.888615 37.795196 0 0 0 546.18555 144.95703 A 37.888615 37.795196 0 0 0 546.18945 144.95898 A 37.888615 37.795196 0 0 0 546.60742 145.22852 A 37.888615 37.795196 0 0 0 546.63672 145.24805 A 37.888615 37.795196 0 0 0 547.04688 145.50586 A 37.888615 37.795196 0 0 0 547.08008 145.52539 A 37.888615 37.795196 0 0 0 547.45312 145.75391 A 37.888615 37.795196 0 0 0 548.00781 146.08008 A 37.888615 37.795196 0 0 0 548.42188 146.31641 A 37.888615 37.795196 0 0 0 548.80664 146.53125 A 37.888615 37.795196 0 0 0 548.84961 146.55469 A 37.888615 37.795196 0 0 0 548.89648 146.58008 A 37.888615 37.795196 0 0 0 548.91602 146.58984 A 37.888615 37.795196 0 0 0 549.33594 146.8125 A 37.888615 37.795196 0 0 0 549.79492 147.05078 A 37.888615 37.795196 0 0 0 550.25781 147.2832 A 37.888615 37.795196 0 0 0 550.65234 147.47461 A 37.888615 37.795196 0 0 0 550.69336 147.49219 A 37.888615 37.795196 0 0 0 550.98438 147.62891 A 37.888615 37.795196 0 0 0 551.31445 147.78125 A 37.888615 37.795196 0 0 0 551.3418 147.79297 A 37.888615 37.795196 0 0 0 551.66406 147.9375 A 37.888615 37.795196 0 0 0 552.04883 148.10547 A 37.888615 37.795196 0 0 0 552.08789 148.12109 A 37.888615 37.795196 0 0 0 552.20898 148.17188 A 37.888615 37.795196 0 0 0 552.61914 148.34375 A 37.888615 37.795196 0 0 0 553.09961 148.53711 A 37.888615 37.795196 0 0 0 553.65234 148.75 A 37.888615 37.795196 0 0 0 554.01367 148.88477 A 37.888615 37.795196 0 0 0 555.08203 149.25586 A 37.888615 37.795196 0 0 0 555.11328 149.26562 A 37.888615 37.795196 0 0 0 555.54102 149.4043 A 37.888615 37.795196 0 0 0 555.97266 149.53906 A 37.888615 37.795196 0 0 0 556.09375 149.57422 A 37.888615 37.795196 0 0 0 556.47461 149.6875 A 37.888615 37.795196 0 0 0 556.48828 149.69141 A 37.888615 37.795196 0 0 0 556.82422 149.78711 A 37.888615 37.795196 0 0 0 557.24414 149.90234 A 37.888615 37.795196 0 0 0 557.33984 149.92773 A 37.888615 37.795196 0 0 0 557.70703 150.02148 A 37.888615 37.795196 0 0 0 558.06641 150.10938 A 37.888615 37.795196 0 0 0 558.5 150.21289 A 37.888615 37.795196 0 0 0 559.08203 150.3418 A 37.888615 37.795196 0 0 0 559.51172 150.43164 A 37.888615 37.795196 0 0 0 560.08008 150.54297 A 37.888615 37.795196 0 0 0 560.19727 150.56445 A 37.888615 37.795196 0 0 0 560.5 150.61719 A 37.888615 37.795196 0 0 0 560.55078 150.62695 A 37.888615 37.795196 0 0 0 560.60156 150.63477 A 37.888615 37.795196 0 0 0 561.03906 150.70703 A 37.888615 37.795196 0 0 0 561.07031 150.71289 A 37.888615 37.795196 0 0 0 561.70898 150.80859 A 37.888615 37.795196 0 0 0 561.73828 150.8125 A 37.888615 37.795196 0 0 0 561.99609 150.84766 A 37.888615 37.795196 0 0 0 562.38867 150.89844 A 37.888615 37.795196 0 0 0 562.83008 150.95117 A 37.888615 37.795196 0 0 0 562.93945 150.96289 A 37.888615 37.795196 0 0 0 563.35547 151.00586 A 37.888615 37.795196 0 0 0 563.73047 151.03906 A 37.888615 37.795196 0 0 0 564.01172 151.06445 A 37.888615 37.795196 0 0 0 564.04492 151.06641 A 37.888615 37.795196 0 0 0 564.43359 151.09375 A 37.888615 37.795196 0 0 0 564.87305 151.12109 A 37.888615 37.795196 0 0 0 565.00586 151.12891 A 37.888615 37.795196 0 0 0 565.46875 151.15039 A 37.888615 37.795196 0 0 0 565.98633 151.16797 A 37.888615 37.795196 0 0 0 566.50391 151.17969 A 37.888615 37.795196 0 0 0 567.02344 151.18359 A 37.888615 37.795196 0 0 0 567.02539 151.18359 A 37.888615 37.795196 0 0 0 567.45898 151.17969 A 37.888615 37.795196 0 0 0 567.88281 151.17383 A 37.888615 37.795196 0 0 0 568.49414 151.1543 A 37.888615 37.795196 0 0 0 569.01367 151.13086 A 37.888615 37.795196 0 0 0 569.5293 151.09961 A 37.888615 37.795196 0 0 0 570.04688 151.0625 A 37.888615 37.795196 0 0 0 570.51562 151.02148 A 37.888615 37.795196 0 0 0 570.77734 150.99609 A 37.888615 37.795196 0 0 0 571.1543 150.95703 A 37.888615 37.795196 0 0 0 571.16211 150.95703 A 37.888615 37.795196 0 0 0 571.59375 150.90625 A 37.888615 37.795196 0 0 0 572.03516 150.85156 A 37.888615 37.795196 0 0 0 572.22266 150.82422 A 37.888615 37.795196 0 0 0 572.62109 150.76758 A 37.888615 37.795196 0 0 0 573.13281 150.6875 A 37.888615 37.795196 0 0 0 573.64258 150.60156 A 37.888615 37.795196 0 0 0 574.15234 150.50781 A 37.888615 37.795196 0 0 0 574.66211 150.40625 A 37.888615 37.795196 0 0 0 575.16797 150.29883 A 37.888615 37.795196 0 0 0 576.17578 150.0625 A 37.888615 37.795196 0 0 0 577.17969 149.79883 A 37.888615 37.795196 0 0 0 577.59375 149.68164 A 37.888615 37.795196 0 0 0 577.94531 149.57812 A 37.888615 37.795196 0 0 0 578.25781 149.48438 A 37.888615 37.795196 0 0 0 578.66992 149.35352 A 37.888615 37.795196 0 0 0 579.16211 149.19141 A 37.888615 37.795196 0 0 0 579.65234 149.02148 A 37.888615 37.795196 0 0 0 580.13477 148.84961 A 37.888615 37.795196 0 0 0 580.13672 148.84766 A 37.888615 37.795196 0 0 0 580.62305 148.66406 A 37.888615 37.795196 0 0 0 581.10156 148.47852 A 37.888615 37.795196 0 0 0 581.58398 148.2793 A 37.888615 37.795196 0 0 0 582.0625 148.07812 A 37.888615 37.795196 0 0 0 582.53516 147.86914 A 37.888615 37.795196 0 0 0 583.00781 147.6543 A 37.888615 37.795196 0 0 0 583.47656 147.43359 A 37.888615 37.795196 0 0 0 583.93945 147.20508 A 37.888615 37.795196 0 0 0 584.40234 146.97266 A 37.888615 37.795196 0 0 0 584.86328 146.73047 A 37.888615 37.795196 0 0 0 585.31641 146.48438 A 37.888615 37.795196 0 0 0 585.76953 146.23242 A 37.888615 37.795196 0 0 0 586.21875 145.97266 A 37.888615 37.795196 0 0 0 586.66406 145.70898 A 37.888615 37.795196 0 0 0 587.10352 145.4375 A 37.888615 37.795196 0 0 0 587.54297 145.16016 A 37.888615 37.795196 0 0 0 587.97461 144.87695 A 37.888615 37.795196 0 0 0 588.40625 144.58984 A 37.888615 37.795196 0 0 0 588.83008 144.29492 A 37.888615 37.795196 0 0 0 589.25391 143.99414 A 37.888615 37.795196 0 0 0 589.66992 143.6875 A 37.888615 37.795196 0 0 0 590.08398 143.375 A 37.888615 37.795196 0 0 0 590.49219 143.05859 A 37.888615 37.795196 0 0 0 590.89844 142.73438 A 37.888615 37.795196 0 0 0 591.29688 142.40625 A 37.888615 37.795196 0 0 0 591.69336 142.07227 A 37.888615 37.795196 0 0 0 592.08008 141.73828 A 37.888615 37.795196 0 0 0 592.4707 141.38867 A 37.888615 37.795196 0 0 0 592.85156 141.03906 A 37.888615 37.795196 0 0 0 593.22852 140.68359 A 37.888615 37.795196 0 0 0 593.59961 140.32422 A 37.888615 37.795196 0 0 0 593.96875 139.95898 A 37.888615 37.795196 0 0 0 594.02734 139.90039 A 37.888615 37.795196 0 0 0 594.32812 139.58789 A 37.888615 37.795196 0 0 0 594.68555 139.21289 A 37.888615 37.795196 0 0 0 595.03711 138.83398 A 37.888615 37.795196 0 0 0 595.38672 138.44922 A 37.888615 37.795196 0 0 0 595.72461 138.06055 A 37.888615 37.795196 0 0 0 596.06055 137.66602 A 37.888615 37.795196 0 0 0 596.39062 137.26758 A 37.888615 37.795196 0 0 0 596.7168 136.86523 A 37.888615 37.795196 0 0 0 597.0332 136.45703 A 37.888615 37.795196 0 0 0 597.34766 136.04492 A 37.888615 37.795196 0 0 0 597.6543 135.63086 A 37.888615 37.795196 0 0 0 597.95898 135.20898 A 37.888615 37.795196 0 0 0 598.25391 134.78516 A 37.888615 37.795196 0 0 0 598.54297 134.35742 A 37.888615 37.795196 0 0 0 598.83203 133.92578 A 37.888615 37.795196 0 0 0 599.10938 133.49023 A 37.888615 37.795196 0 0 0 599.37891 133.05078 A 37.888615 37.795196 0 0 0 599.64844 132.60742 A 37.888615 37.795196 0 0 0 599.90625 132.16016 A 37.888615 37.795196 0 0 0 600.16406 131.70898 A 37.888615 37.795196 0 0 0 600.41016 131.25586 A 37.888615 37.795196 0 0 0 600.65234 130.79883 A 37.888615 37.795196 0 0 0 600.88867 130.33789 A 37.888615 37.795196 0 0 0 601.11914 129.875 A 37.888615 37.795196 0 0 0 601.3418 129.4082 A 37.888615 37.795196 0 0 0 601.55469 128.9375 A 37.888615 37.795196 0 0 0 601.76367 128.46484 A 37.888615 37.795196 0 0 0 601.96875 127.99023 A 37.888615 37.795196 0 0 0 602.16602 127.51172 A 37.888615 37.795196 0 0 0 602.35547 127.03125 A 37.888615 37.795196 0 0 0 602.54102 126.54688 A 37.888615 37.795196 0 0 0 602.71875 126.06055 A 37.888615 37.795196 0 0 0 602.88867 125.57422 A 37.888615 37.795196 0 0 0 603.05078 125.08203 A 37.888615 37.795196 0 0 0 603.20703 124.58984 A 37.888615 37.795196 0 0 0 603.35938 124.0957 A 37.888615 37.795196 0 0 0 603.50195 123.59766 A 37.888615 37.795196 0 0 0 603.63867 123.09961 A 37.888615 37.795196 0 0 0 603.76758 122.59961 A 37.888615 37.795196 0 0 0 603.89062 122.09766 A 37.888615 37.795196 0 0 0 604.00586 121.59375 A 37.888615 37.795196 0 0 0 604.11719 121.08789 A 37.888615 37.795196 0 0 0 604.21875 120.58203 A 37.888615 37.795196 0 0 0 604.31445 120.07227 A 37.888615 37.795196 0 0 0 604.40234 119.56445 A 37.888615 37.795196 0 0 0 604.48242 119.05273 A 37.888615 37.795196 0 0 0 604.55664 118.54102 A 37.888615 37.795196 0 0 0 604.62305 118.0293 A 37.888615 37.795196 0 0 0 604.68359 117.51562 A 37.888615 37.795196 0 0 0 604.73633 117.00195 A 37.888615 37.795196 0 0 0 604.7832 116.48633 A 37.888615 37.795196 0 0 0 604.82227 115.9707 A 37.888615 37.795196 0 0 0 604.85352 115.45508 A 37.888615 37.795196 0 0 0 604.87891 114.9375 A 37.888615 37.795196 0 0 0 604.89844 114.42188 A 37.888615 37.795196 0 0 0 604.91016 113.9043 A 37.888615 37.795196 0 0 0 604.91406 113.38867 A 37.888615 37.795196 0 0 0 604.91211 112.95312 A 37.888615 37.795196 0 0 0 604.90039 112.43555 A 37.888615 37.795196 0 0 0 604.88086 111.91992 A 37.888615 37.795196 0 0 0 604.85938 111.40234 A 37.888615 37.795196 0 0 0 604.82812 110.88672 A 37.888615 37.795196 0 0 0 604.79102 110.37109 A 37.888615 37.795196 0 0 0 604.74609 109.85742 A 37.888615 37.795196 0 0 0 604.69531 109.3418 A 37.888615 37.795196 0 0 0 604.63672 108.82812 A 37.888615 37.795196 0 0 0 604.56836 108.31641 A 37.888615 37.795196 0 0 0 604.49609 107.80469 A 37.888615 37.795196 0 0 0 604.41602 107.29297 A 37.888615 37.795196 0 0 0 604.32812 106.7832 A 37.888615 37.795196 0 0 0 604.23438 106.27539 A 37.888615 37.795196 0 0 0 604.13477 105.76758 A 37.888615 37.795196 0 0 0 604.02539 105.26172 A 37.888615 37.795196 0 0 0 603.91211 104.75781 A 37.888615 37.795196 0 0 0 603.79102 104.25586 A 37.888615 37.795196 0 0 0 603.66016 103.75586 A 37.888615 37.795196 0 0 0 603.52539 103.25586 A 37.888615 37.795196 0 0 0 603.38281 102.75977 A 37.888615 37.795196 0 0 0 603.23438 102.26367 A 37.888615 37.795196 0 0 0 603.07812 101.77148 A 37.888615 37.795196 0 0 0 602.91406 101.2793 A 37.888615 37.795196 0 0 0 602.74609 100.79102 A 37.888615 37.795196 0 0 0 602.57031 100.30469 A 37.888615 37.795196 0 0 0 602.38672 99.822266 A 37.888615 37.795196 0 0 0 602.19922 99.339844 A 37.888615 37.795196 0 0 0 602.00195 98.861328 A 37.888615 37.795196 0 0 0 601.79883 98.386719 A 37.888615 37.795196 0 0 0 601.5918 97.912109 A 37.888615 37.795196 0 0 0 601.375 97.443359 A 37.888615 37.795196 0 0 0 601.15234 96.974609 A 37.888615 37.795196 0 0 0 600.92578 96.511719 A 37.888615 37.795196 0 0 0 600.69141 96.050781 A 37.888615 37.795196 0 0 0 600.44922 95.591797 A 37.888615 37.795196 0 0 0 600.41016 95.521484 A 37.888615 37.795196 0 0 0 600.20117 95.138672 A 37.888615 37.795196 0 0 0 599.94727 94.6875 A 37.888615 37.795196 0 0 0 599.6875 94.240234 A 37.888615 37.795196 0 0 0 599.42188 93.794922 A 37.888615 37.795196 0 0 0 599.15039 93.355469 A 37.888615 37.795196 0 0 0 598.87109 92.919922 A 37.888615 37.795196 0 0 0 598.58984 92.486328 A 37.888615 37.795196 0 0 0 598.30078 92.058594 A 37.888615 37.795196 0 0 0 598.00391 91.632812 A 37.888615 37.795196 0 0 0 597.70312 91.212891 A 37.888615 37.795196 0 0 0 597.39648 90.794922 A 37.888615 37.795196 0 0 0 597.08398 90.382812 A 37.888615 37.795196 0 0 0 597.03516 90.318359 A 37.888615 37.795196 0 0 0 596.76562 89.974609 A 37.888615 37.795196 0 0 0 596.44141 89.572266 A 37.888615 37.795196 0 0 0 596.11133 89.171875 A 37.888615 37.795196 0 0 0 595.77734 88.777344 A 37.888615 37.795196 0 0 0 595.4375 88.388672 A 37.888615 37.795196 0 0 0 595.0918 88.001953 A 37.888615 37.795196 0 0 0 594.74023 87.621094 A 37.888615 37.795196 0 0 0 594.38477 87.246094 A 37.888615 37.795196 0 0 0 594.02344 86.875 A 37.888615 37.795196 0 0 0 593.6582 86.509766 A 37.888615 37.795196 0 0 0 593.28711 86.148438 A 37.888615 37.795196 0 0 0 592.91211 85.792969 A 37.888615 37.795196 0 0 0 592.5293 85.441406 A 37.888615 37.795196 0 0 0 592.14453 85.095703 A 37.888615 37.795196 0 0 0 591.75391 84.755859 A 37.888615 37.795196 0 0 0 591.35938 84.421875 A 37.888615 37.795196 0 0 0 590.95898 84.091797 A 37.888615 37.795196 0 0 0 590.55664 83.767578 A 37.888615 37.795196 0 0 0 590.14648 83.449219 A 37.888615 37.795196 0 0 0 589.73633 83.136719 A 37.888615 37.795196 0 0 0 589.31836 82.830078 A 37.888615 37.795196 0 0 0 588.89844 82.529297 A 37.888615 37.795196 0 0 0 588.4707 82.232422 A 37.888615 37.795196 0 0 0 588.04297 81.943359 A 37.888615 37.795196 0 0 0 587.60938 81.660156 A 37.888615 37.795196 0 0 0 587.17383 81.380859 A 37.888615 37.795196 0 0 0 586.73242 81.109375 A 37.888615 37.795196 0 0 0 586.28711 80.84375 A 37.888615 37.795196 0 0 0 585.83984 80.583984 A 37.888615 37.795196 0 0 0 585.38672 80.330078 A 37.888615 37.795196 0 0 0 584.93359 80.082031 A 37.888615 37.795196 0 0 0 584.47461 79.841797 A 37.888615 37.795196 0 0 0 584.01367 79.607422 A 37.888615 37.795196 0 0 0 583.54883 79.376953 A 37.888615 37.795196 0 0 0 583.08008 79.15625 A 37.888615 37.795196 0 0 0 582.60938 78.939453 A 37.888615 37.795196 0 0 0 582.13477 78.730469 A 37.888615 37.795196 0 0 0 581.66016 78.527344 A 37.888615 37.795196 0 0 0 581.22852 78.349609 A 37.888615 37.795196 0 0 0 580.26172 77.976562 A 37.888615 37.795196 0 0 0 579.81055 77.8125 A 37.888615 37.795196 0 0 0 579.72656 77.78125 A 37.888615 37.795196 0 0 0 579.23828 77.611328 A 37.888615 37.795196 0 0 0 578.74609 77.447266 A 37.888615 37.795196 0 0 0 578.25 77.291016 A 37.888615 37.795196 0 0 0 577.75586 77.140625 A 37.888615 37.795196 0 0 0 577.25781 76.998047 A 37.888615 37.795196 0 0 0 576.75586 76.861328 A 37.888615 37.795196 0 0 0 576.25586 76.732422 A 37.888615 37.795196 0 0 0 575.75195 76.609375 A 37.888615 37.795196 0 0 0 575.24609 76.494141 A 37.888615 37.795196 0 0 0 574.74023 76.384766 A 37.888615 37.795196 0 0 0 574.23242 76.283203 A 37.888615 37.795196 0 0 0 573.21289 76.099609 A 37.888615 37.795196 0 0 0 572.69922 76.019531 A 37.888615 37.795196 0 0 0 572.1875 75.945312 A 37.888615 37.795196 0 0 0 571.67383 75.878906 A 37.888615 37.795196 0 0 0 571.1582 75.818359 A 37.888615 37.795196 0 0 0 570.64453 75.765625 A 37.888615 37.795196 0 0 0 570.04883 75.712891 A 37.888615 37.795196 0 0 0 569.60938 75.681641 A 37.888615 37.795196 0 0 0 569.16406 75.652344 A 37.888615 37.795196 0 0 0 568.97656 75.640625 A 37.888615 37.795196 0 0 0 568.57617 75.623047 A 37.888615 37.795196 0 0 0 568.05664 75.605469 A 37.888615 37.795196 0 0 0 567.53906 75.59375 A 37.888615 37.795196 0 0 0 567.02344 75.589844 A 37.888615 37.795196 0 0 0 567.01172 75.589844 A 37.888615 37.795196 0 0 0 566.58594 75.59375 A 37.888615 37.795196 0 0 0 566.18359 75.599609 A 37.888615 37.795196 0 0 0 566.16992 75.599609 A 37.888615 37.795196 0 0 0 565.66406 75.615234 A 37.888615 37.795196 0 0 0 565.54883 75.619141 A 37.888615 37.795196 0 0 0 565.03125 75.642578 A 37.888615 37.795196 0 0 0 564.51172 75.673828 A 37.888615 37.795196 0 0 0 563.99609 75.710938 A 37.888615 37.795196 0 0 0 562.96289 75.808594 A 37.888615 37.795196 0 0 0 562.44922 75.867188 A 37.888615 37.795196 0 0 0 562.08398 75.912109 A 37.888615 37.795196 0 0 0 562.0293 75.919922 A 37.888615 37.795196 0 0 0 561.57227 75.984375 A 37.888615 37.795196 0 0 0 561.11328 76.054688 A 37.888615 37.795196 0 0 0 560.91016 76.085938 A 37.888615 37.795196 0 0 0 560.45117 76.162109 A 37.888615 37.795196 0 0 0 558.79688 76.492188 A 37.888615 37.795196 0 0 0 558.29102 76.607422 A 37.888615 37.795196 0 0 0 557.78906 76.730469 A 37.888615 37.795196 0 0 0 557.28516 76.859375 A 37.888615 37.795196 0 0 0 556.75977 77.003906 A 37.888615 37.795196 0 0 0 556.74805 77.007812 A 37.888615 37.795196 0 0 0 556.28906 77.138672 A 37.888615 37.795196 0 0 0 555.79297 77.289062 A 37.888615 37.795196 0 0 0 555.29883 77.445312 A 37.888615 37.795196 0 0 0 554.80664 77.609375 A 37.888615 37.795196 0 0 0 554.31836 77.779297 A 37.888615 37.795196 0 0 0 552.81641 78.347656 A 37.888615 37.795196 0 0 0 552.38477 78.525391 A 37.888615 37.795196 0 0 0 551.9082 78.728516 A 37.888615 37.795196 0 0 0 549.99609 79.621094 A 37.888615 37.795196 0 0 0 549.94336 79.648438 A 37.888615 37.795196 0 0 0 549.53516 79.857422 A 37.888615 37.795196 0 0 0 549.11133 80.080078 A 37.888615 37.795196 0 0 0 548.65625 80.328125 A 37.888615 37.795196 0 0 0 548.62695 80.345703 A 37.888615 37.795196 0 0 0 548.20508 80.582031 A 37.888615 37.795196 0 0 0 547.75781 80.841797 A 37.888615 37.795196 0 0 0 547.3125 81.107422 A 37.888615 37.795196 0 0 0 546.87305 81.378906 A 37.888615 37.795196 0 0 0 546.43555 81.658203 A 37.888615 37.795196 0 0 0 546.00391 81.941406 A 37.888615 37.795196 0 0 0 545.50977 82.273438 A 37.888615 37.795196 0 0 0 545.44336 82.318359 A 37.888615 37.795196 0 0 0 545.08398 82.570312 A 37.888615 37.795196 0 0 0 544.72461 82.828125 A 37.888615 37.795196 0 0 0 543.89453 83.447266 A 37.888615 37.795196 0 0 0 543.48828 83.765625 A 37.888615 37.795196 0 0 0 543.08398 84.089844 A 37.888615 37.795196 0 0 0 542.68555 84.419922 A 37.888615 37.795196 0 0 0 542.28906 84.753906 A 37.888615 37.795196 0 0 0 541.13281 85.791016 A 37.888615 37.795196 0 0 0 540.75586 86.146484 A 37.888615 37.795196 0 0 0 540.38477 86.507812 A 37.888615 37.795196 0 0 0 540.01758 86.873047 A 37.888615 37.795196 0 0 0 539.6582 87.244141 A 37.888615 37.795196 0 0 0 539.30273 87.619141 A 37.888615 37.795196 0 0 0 538.95312 88 A 37.888615 37.795196 0 0 0 538.60547 88.384766 A 37.888615 37.795196 0 0 0 537.93164 89.169922 A 37.888615 37.795196 0 0 0 537.2793 89.972656 A 37.888615 37.795196 0 0 0 536.95898 90.380859 A 37.888615 37.795196 0 0 0 536.64648 90.792969 A 37.888615 37.795196 0 0 0 536.03906 91.630859 A 37.888615 37.795196 0 0 0 535.74414 92.054688 A 37.888615 37.795196 0 0 0 535.17188 92.916016 A 37.888615 37.795196 0 0 0 534.89258 93.353516 A 37.888615 37.795196 0 0 0 533.8418 95.134766 A 37.888615 37.795196 0 0 0 533.5957 95.589844 A 37.888615 37.795196 0 0 0 533.11914 96.507812 A 37.888615 37.795196 0 0 0 532.66992 97.439453 A 37.888615 37.795196 0 0 0 532.24414 98.382812 A 37.888615 37.795196 0 0 0 531.29883 100.78906 A 37.888615 37.795196 0 0 0 530.9668 101.76758 A 37.888615 37.795196 0 0 0 529.32422 109.60547 L 529.32617 109.60742 L 417.25781 109.60742 L 417.25781 37.794922 L 363.65039 37.794922 L 363.65039 110.10547 L 187.51172 37.794922 z M 37.890625 81.259766 A 32.207766 32.125916 0 0 1 70.099609 113.38672 A 32.207766 32.125916 0 0 1 37.890625 145.51172 A 32.207766 32.125916 0 0 1 5.6835938 113.38672 A 32.207766 32.125916 0 0 1 37.890625 81.259766 z M 567.02148 81.261719 A 32.205202 32.126841 0 0 1 599.22656 113.38867 A 32.205202 32.126841 0 0 1 567.02148 145.51367 A 32.205202 32.126841 0 0 1 534.81641 113.38867 A 32.205202 32.126841 0 0 1 567.02148 81.261719 z "
       transform="scale(0.26458333)" />
    <circle
       style="fill:none;stroke-width:1.19726"
       id="path34"
       cx="10.025"
       cy="30"
       r="8.5" />
    <circle
       style="fill:none;stroke-width:1.19726"
       id="path34-7"
       cx="150.025"
       cy="30"
       r="8.5" />
  </g>
</svg>
