<?xml version="1.0" encoding="UTF-8" standalone="no"?>
<svg
   xmlns:osb="http://www.openswatchbook.org/uri/2009/osb"
   xmlns:dc="http://purl.org/dc/elements/1.1/"
   xmlns:cc="http://creativecommons.org/ns#"
   xmlns:rdf="http://www.w3.org/1999/02/22-rdf-syntax-ns#"
   xmlns:svg="http://www.w3.org/2000/svg"
   xmlns="http://www.w3.org/2000/svg"
   xmlns:sodipodi="http://sodipodi.sourceforge.net/DTD/sodipodi-0.dtd"
   xmlns:inkscape="http://www.inkscape.org/namespaces/inkscape"
   width="160mm"
   height="60mm"
   viewBox="0 0 160 60"
   version="1.1"
   id="capacitorsvg"
   inkscape:version="1.0.2-2 (e86c870879, 2021-01-15)"
   sodipodi:docname="Resistor.svg">
  <sodipodi:namedview
     pagecolor="#ffffff"
     bordercolor="#666666"
     borderopacity="1"
     objecttolerance="10"
     gridtolerance="10"
     guidetolerance="10"
     inkscape:pageopacity="0"
     inkscape:pageshadow="2"
     inkscape:window-width="1920"
     inkscape:window-height="1013"
     id="namedview21"
     showgrid="false"
     inkscape:zoom="1.4464996"
     inkscape:cx="255.74366"
     inkscape:cy="130.83582"
     inkscape:window-x="-9"
     inkscape:window-y="-9"
     inkscape:window-maximized="1"
     inkscape:current-layer="draw_layer"
     inkscape:document-rotation="0" />
  <defs
     id="defs2">
    <linearGradient
       id="linearGradient2783"
       osb:paint="solid">
      <stop
         style="stop-color:#000000;stop-opacity:1;"
         offset="0"
         id="stop2781" />
    </linearGradient>
  </defs>
  <metadata
     id="metadata5">
    <rdf:RDF>
      <cc:Work
         rdf:about="">
        <dc:format>image/svg+xml</dc:format>
        <dc:type
           rdf:resource="http://purl.org/dc/dcmitype/StillImage" />
        <dc:title />
      </cc:Work>
    </rdf:RDF>
  </metadata>
  <g
     inkscape:groupmode="layer"
     id="draw_layer"
     transform="translate(0,0)"
     inkscape:label="#draw_layer">
    <path
       id="path59"
       style="fill:#000000;fill-opacity:1;stroke:none;stroke-width:1.93304;stroke-linejoin:round;stroke-miterlimit:4;stroke-dasharray:none;stroke-dashoffset:0;stroke-opacity:1"
       d="M 151.18164 56.693359 L 151.18164 109.60547 L 75.402344 109.60547 A 37.796856 37.795275 0 0 0 75.375 109.3418 A 37.796856 37.795275 0 0 0 75.316406 108.82812 A 37.796856 37.795275 0 0 0 75.25 108.31641 A 37.796856 37.795275 0 0 0 75.181641 107.83008 A 37.796856 37.795275 0 0 0 75.173828 107.7793 A 37.796856 37.795275 0 0 0 75.097656 107.29297 A 37.796856 37.795275 0 0 0 75.011719 106.7832 A 37.796856 37.795275 0 0 0 74.917969 106.27539 A 37.796856 37.795275 0 0 0 74.816406 105.76758 A 37.796856 37.795275 0 0 0 74.708984 105.26172 A 37.796856 37.795275 0 0 0 74.59375 104.75781 A 37.796856 37.795275 0 0 0 74.480469 104.28711 A 37.796856 37.795275 0 0 0 74.464844 104.22852 A 37.796856 37.795275 0 0 0 74.34375 103.75586 A 37.796856 37.795275 0 0 0 74.208984 103.25586 A 37.796856 37.795275 0 0 0 74.066406 102.75977 A 37.796856 37.795275 0 0 0 73.917969 102.26367 A 37.796856 37.795275 0 0 0 73.763672 101.77148 A 37.796856 37.795275 0 0 0 73.603516 101.28516 A 37.796856 37.795275 0 0 0 73.599609 101.27344 A 37.796856 37.795275 0 0 0 73.431641 100.79102 A 37.796856 37.795275 0 0 0 73.255859 100.30469 A 37.796856 37.795275 0 0 0 73.074219 99.822266 A 37.796856 37.795275 0 0 0 72.884766 99.339844 A 37.796856 37.795275 0 0 0 72.689453 98.861328 A 37.796856 37.795275 0 0 0 72.490234 98.388672 A 37.796856 37.795275 0 0 0 72.486328 98.384766 A 37.796856 37.795275 0 0 0 72.28125 97.916016 A 37.796856 37.795275 0 0 0 72.277344 97.908203 A 37.796856 37.795275 0 0 0 72.064453 97.443359 A 37.796856 37.795275 0 0 0 71.792969 96.871094 A 37.796856 37.795275 0 0 0 71.615234 96.511719 A 37.796856 37.795275 0 0 0 71.380859 96.050781 A 37.796856 37.795275 0 0 0 71.140625 95.591797 A 37.796856 37.795275 0 0 0 70.894531 95.138672 A 37.796856 37.795275 0 0 0 70.642578 94.6875 A 37.796856 37.795275 0 0 0 70.382812 94.240234 A 37.796856 37.795275 0 0 0 70.117188 93.794922 A 37.796856 37.795275 0 0 0 69.849609 93.357422 A 37.796856 37.795275 0 0 0 69.570312 92.919922 A 37.796856 37.795275 0 0 0 69.287109 92.486328 A 37.796856 37.795275 0 0 0 68.998047 92.058594 A 37.796856 37.795275 0 0 0 68.703125 91.632812 A 37.796856 37.795275 0 0 0 68.402344 91.212891 A 37.796856 37.795275 0 0 0 68.097656 90.794922 A 37.796856 37.795275 0 0 0 67.785156 90.382812 A 37.796856 37.795275 0 0 0 67.486328 89.998047 A 37.796856 37.795275 0 0 0 67.455078 89.957031 A 37.796856 37.795275 0 0 0 67.144531 89.572266 A 37.796856 37.795275 0 0 0 66.816406 89.171875 A 37.796856 37.795275 0 0 0 66.482422 88.777344 A 37.796856 37.795275 0 0 0 66.142578 88.388672 A 37.796856 37.795275 0 0 0 65.855469 88.066406 A 37.796856 37.795275 0 0 0 65.382812 87.552734 A 37.796856 37.795275 0 0 0 65.09375 87.246094 A 37.796856 37.795275 0 0 0 64.787109 86.929688 A 37.796856 37.795275 0 0 0 64.365234 86.505859 A 37.796856 37.795275 0 0 0 63.998047 86.148438 A 37.796856 37.795275 0 0 0 63.623047 85.792969 A 37.796856 37.795275 0 0 0 63.244141 85.441406 A 37.796856 37.795275 0 0 0 62.902344 85.134766 A 37.796856 37.795275 0 0 0 62.462891 84.751953 A 37.796856 37.795275 0 0 0 62.085938 84.429688 A 37.796856 37.795275 0 0 0 61.664062 84.080078 A 37.796856 37.795275 0 0 0 61.273438 83.767578 A 37.796856 37.795275 0 0 0 60.867188 83.449219 A 37.796856 37.795275 0 0 0 60.457031 83.138672 A 37.796856 37.795275 0 0 0 60.025391 82.820312 A 37.796856 37.795275 0 0 0 59.619141 82.529297 A 37.796856 37.795275 0 0 0 59.234375 82.259766 A 37.796856 37.795275 0 0 0 59.15625 82.205078 A 37.796856 37.795275 0 0 0 58.767578 81.943359 A 37.796856 37.795275 0 0 0 58.335938 81.660156 A 37.796856 37.795275 0 0 0 57.898438 81.380859 A 37.796856 37.795275 0 0 0 57.458984 81.109375 A 37.796856 37.795275 0 0 0 57.015625 80.84375 A 37.796856 37.795275 0 0 0 56.568359 80.583984 A 37.796856 37.795275 0 0 0 56.119141 80.330078 A 37.796856 37.795275 0 0 0 55.664062 80.082031 A 37.796856 37.795275 0 0 0 55.207031 79.841797 A 37.796841 37.795276 0 0 0 54.748047 79.607422 A 37.796841 37.795276 0 0 0 54.316406 79.392578 A 37.796856 37.795275 0 0 0 54.302734 79.386719 A 37.796856 37.795275 0 0 0 54.267578 79.369141 A 37.796856 37.795275 0 0 0 53.816406 79.15625 A 37.796856 37.795275 0 0 0 53.347656 78.939453 A 37.796856 37.795275 0 0 0 52.867188 78.726562 A 37.796856 37.795275 0 0 0 52.398438 78.527344 A 37.796856 37.795275 0 0 0 51.439453 78.140625 A 37.796856 37.795275 0 0 0 50.986328 77.96875 A 37.796856 37.795275 0 0 0 50.927734 77.945312 A 37.796856 37.795275 0 0 0 50.470703 77.78125 A 37.796856 37.795275 0 0 0 49.982422 77.611328 A 37.796856 37.795275 0 0 0 49.570312 77.472656 A 37.796856 37.795275 0 0 0 49.421875 77.425781 A 37.796841 37.795276 0 0 0 49 77.291016 A 37.796856 37.795275 0 0 0 48.980469 77.283203 A 37.796856 37.795275 0 0 0 48.509766 77.140625 A 37.796856 37.795275 0 0 0 48.498047 77.138672 A 37.796856 37.795275 0 0 0 48.007812 76.998047 A 37.796856 37.795275 0 0 0 47.509766 76.861328 A 37.796856 37.795275 0 0 0 47.009766 76.732422 A 37.796856 37.795275 0 0 0 46.560547 76.623047 A 37.796856 37.795275 0 0 0 46.462891 76.599609 A 37.796856 37.795275 0 0 0 46.001953 76.494141 A 37.796856 37.795275 0 0 0 45.511719 76.386719 A 37.796856 37.795275 0 0 0 45.484375 76.382812 A 37.796856 37.795275 0 0 0 45 76.285156 A 37.796856 37.795275 0 0 0 44.634766 76.216797 A 37.796856 37.795275 0 0 0 44.34375 76.164062 A 37.796856 37.795275 0 0 0 44.123047 76.125 A 37.796856 37.795275 0 0 0 43.822266 76.076172 A 37.796856 37.795275 0 0 0 43.402344 76.011719 A 37.796856 37.795275 0 0 0 43.03125 75.957031 A 37.796856 37.795275 0 0 0 42.875 75.935547 A 37.796856 37.795275 0 0 0 42.4375 75.878906 A 37.796856 37.795275 0 0 0 41.921875 75.818359 A 37.796856 37.795275 0 0 0 41.408203 75.765625 A 37.796856 37.795275 0 0 0 41.039062 75.732422 A 37.796856 37.795275 0 0 0 40.794922 75.710938 A 37.796856 37.795275 0 0 0 40.378906 75.679688 A 37.796856 37.795275 0 0 0 39.910156 75.650391 A 37.796856 37.795275 0 0 0 39.828125 75.644531 A 37.796856 37.795275 0 0 0 39.345703 75.623047 A 37.796856 37.795275 0 0 0 38.828125 75.605469 A 37.796856 37.795275 0 0 0 38.3125 75.59375 A 37.796856 37.795275 0 0 0 37.796875 75.589844 A 37.796856 37.795275 0 0 0 37.785156 75.589844 A 37.796856 37.795275 0 0 0 37.361328 75.59375 A 37.796856 37.795275 0 0 0 36.957031 75.599609 A 37.796856 37.795275 0 0 0 36.935547 75.599609 A 37.796856 37.795275 0 0 0 36.707031 75.605469 A 37.796841 37.795276 0 0 0 36.326172 75.619141 A 37.796856 37.795275 0 0 0 35.810547 75.642578 A 37.796856 37.795275 0 0 0 35.294922 75.675781 A 37.796856 37.795275 0 0 0 34.779297 75.710938 A 37.796856 37.795275 0 0 0 34.404297 75.746094 A 37.796856 37.795275 0 0 0 34.046875 75.779297 A 37.796841 37.795276 0 0 0 33.75 75.810547 A 37.796856 37.795275 0 0 0 33.236328 75.869141 A 37.796856 37.795275 0 0 0 32.863281 75.916016 A 37.796856 37.795275 0 0 0 32.494141 75.966797 A 37.796856 37.795275 0 0 0 32.210938 76.007812 A 37.796841 37.795276 0 0 0 31.701172 76.087891 A 37.796856 37.795275 0 0 0 31.191406 76.173828 A 37.796856 37.795275 0 0 0 29.591797 76.494141 A 37.796856 37.795275 0 0 0 29.087891 76.609375 A 37.796856 37.795275 0 0 0 28.527344 76.748047 A 37.796856 37.795275 0 0 0 28.083984 76.861328 A 37.796856 37.795275 0 0 0 27.472656 77.03125 A 37.796856 37.795275 0 0 0 27.089844 77.140625 A 37.796856 37.795275 0 0 0 26.59375 77.291016 A 37.796856 37.795275 0 0 0 26.101562 77.447266 A 37.796856 37.795275 0 0 0 25.611328 77.611328 A 37.796856 37.795275 0 0 0 25.199219 77.753906 A 37.796856 37.795275 0 0 0 24.712891 77.929688 A 37.796856 37.795275 0 0 0 23.175781 78.535156 A 37.796856 37.795275 0 0 0 23.078125 78.576172 A 37.796856 37.795275 0 0 0 22.71875 78.730469 A 37.796856 37.795275 0 0 0 21.849609 79.121094 A 37.796841 37.795276 0 0 0 21.382812 79.341797 A 37.796856 37.795275 0 0 0 20.8125 79.623047 A 37.796856 37.795275 0 0 0 20.240234 79.916016 A 37.796856 37.795275 0 0 0 19.929688 80.082031 A 37.796856 37.795275 0 0 0 19.476562 80.330078 A 37.796856 37.795275 0 0 0 19.095703 80.542969 A 37.796841 37.795276 0 0 0 18.792969 80.716797 A 37.796856 37.795275 0 0 0 18.578125 80.84375 A 37.796856 37.795275 0 0 0 18.134766 81.109375 A 37.796856 37.795275 0 0 0 15.916016 82.570312 A 37.796856 37.795275 0 0 0 15.554688 82.830078 A 37.796856 37.795275 0 0 0 14.59375 83.552734 A 37.796856 37.795275 0 0 0 14.320312 83.767578 A 37.796856 37.795275 0 0 0 13.917969 84.091797 A 37.796856 37.795275 0 0 0 13.519531 84.421875 A 37.796856 37.795275 0 0 0 13.125 84.755859 A 37.796856 37.795275 0 0 0 12.351562 85.441406 A 37.796856 37.795275 0 0 0 11.972656 85.791016 A 37.796856 37.795275 0 0 0 11.970703 85.792969 A 37.796856 37.795275 0 0 0 11.585938 86.158203 A 37.796856 37.795275 0 0 0 10.851562 86.884766 A 37.796856 37.795275 0 0 0 10.556641 87.1875 A 37.796856 37.795275 0 0 0 10.427734 87.322266 A 37.796856 37.795275 0 0 0 10.392578 87.361328 A 37.796856 37.795275 0 0 0 10.146484 87.621094 A 37.796856 37.795275 0 0 0 9.1113281 88.777344 A 37.796856 37.795275 0 0 0 8.7773438 89.171875 A 37.796856 37.795275 0 0 0 8.4492188 89.572266 A 37.796856 37.795275 0 0 0 8.1269531 89.974609 A 37.796856 37.795275 0 0 0 7.1542969 91.261719 A 37.796856 37.795275 0 0 0 7.0917969 91.349609 A 37.796856 37.795275 0 0 0 6.890625 91.632812 A 37.796856 37.795275 0 0 0 6.3066406 92.486328 A 37.796856 37.795275 0 0 0 6.0234375 92.917969 A 37.796856 37.795275 0 0 0 5.6835938 93.457031 A 37.796856 37.795275 0 0 0 5.4765625 93.794922 A 37.796856 37.795275 0 0 0 5.2109375 94.240234 A 37.796856 37.795275 0 0 0 4.6992188 95.138672 A 37.796856 37.795275 0 0 0 4.453125 95.591797 A 37.796856 37.795275 0 0 0 3.9785156 96.509766 A 37.796856 37.795275 0 0 0 3.75 96.974609 A 37.796856 37.795275 0 0 0 3.5292969 97.441406 A 37.796856 37.795275 0 0 0 3.3105469 97.921875 A 37.796856 37.795275 0 0 0 3.1015625 98.394531 A 37.796856 37.795275 0 0 0 2.9355469 98.785156 A 37.796856 37.795275 0 0 0 2.9042969 98.861328 A 37.796856 37.795275 0 0 0 2.7089844 99.339844 A 37.796856 37.795275 0 0 0 2.3378906 100.30469 A 37.796856 37.795275 0 0 0 2.1621094 100.79102 A 37.796856 37.795275 0 0 0 1.8320312 101.76953 A 37.796856 37.795275 0 0 0 1.6757812 102.26367 A 37.796856 37.795275 0 0 0 1.5273438 102.75781 A 37.796856 37.795275 0 0 0 1.3828125 103.26562 A 37.796856 37.795275 0 0 0 1.25 103.75391 A 37.796856 37.795275 0 0 0 1.1191406 104.25586 A 37.796856 37.795275 0 0 0 0.99804688 104.75781 A 37.796856 37.795275 0 0 0 0.86914062 105.33008 A 37.796856 37.795275 0 0 0 0.77539062 105.76758 A 37.796856 37.795275 0 0 0 0.58007812 106.7832 A 37.796856 37.795275 0 0 0 0.49414062 107.29297 A 37.796856 37.795275 0 0 0 0.41015625 107.82617 A 37.796856 37.795275 0 0 0 0.33789062 108.33789 A 37.796856 37.795275 0 0 0 0.21679688 109.3418 A 37.796856 37.795275 0 0 0 0.15820312 109.91992 A 37.796856 37.795275 0 0 0 0.05078125 111.40234 A 37.796856 37.795275 0 0 0 0.02734375 111.91797 A 37.796856 37.795275 0 0 0 0.001953125 112.95312 A 37.796856 37.795275 0 0 0 0 113.38867 A 37.796856 37.795275 0 0 0 0.03125 114.93945 A 37.796856 37.795275 0 0 0 0.12695312 116.48633 A 37.796856 37.795275 0 0 0 0.17578125 117.03125 A 37.796856 37.795275 0 0 0 0.22460938 117.51562 A 37.796856 37.795275 0 0 0 0.28515625 118.0293 A 37.796856 37.795275 0 0 0 0.3515625 118.54102 A 37.796856 37.795275 0 0 0 0.42578125 119.05273 A 37.796856 37.795275 0 0 0 0.59570312 120.07227 A 37.796856 37.795275 0 0 0 0.59570312 120.07422 A 37.796856 37.795275 0 0 0 1.8574219 125.08398 A 37.796856 37.795275 0 0 0 2.0195312 125.57422 A 37.796856 37.795275 0 0 0 2.1894531 126.0625 A 37.796856 37.795275 0 0 0 2.5507812 127.03125 A 37.796856 37.795275 0 0 0 3.140625 128.4668 A 37.796856 37.795275 0 0 0 3.5644531 129.4082 A 37.796856 37.795275 0 0 0 3.7871094 129.875 A 37.796856 37.795275 0 0 0 4.015625 130.33789 A 37.796856 37.795275 0 0 0 4.25 130.79688 A 37.796856 37.795275 0 0 0 4.7402344 131.71094 A 37.796856 37.795275 0 0 0 4.9941406 132.16016 A 37.796856 37.795275 0 0 0 5.5195312 133.05078 A 37.796856 37.795275 0 0 0 5.7910156 133.49023 A 37.796856 37.795275 0 0 0 6.0683594 133.92578 A 37.796856 37.795275 0 0 0 6.3515625 134.35742 A 37.796856 37.795275 0 0 0 6.3535156 134.35938 A 37.796856 37.795275 0 0 0 6.6425781 134.78711 A 37.796856 37.795275 0 0 0 7.2402344 135.63086 A 37.796856 37.795275 0 0 0 7.546875 136.04688 A 37.796856 37.795275 0 0 0 7.859375 136.45898 A 37.796856 37.795275 0 0 0 8.1777344 136.86523 A 37.796856 37.795275 0 0 0 9.5058594 138.44922 A 37.796856 37.795275 0 0 0 9.8515625 138.83398 A 37.796856 37.795275 0 0 0 10.203125 139.21484 A 37.796856 37.795275 0 0 0 10.558594 139.58984 A 37.796856 37.795275 0 0 0 10.919922 139.95898 A 37.796856 37.795275 0 0 0 11.285156 140.32422 A 37.796856 37.795275 0 0 0 11.65625 140.68555 A 37.796856 37.795275 0 0 0 12.03125 141.03906 A 37.796856 37.795275 0 0 0 12.412109 141.38867 A 37.796856 37.795275 0 0 0 13.582031 142.40625 A 37.796856 37.795275 0 0 0 13.980469 142.73438 A 37.796856 37.795275 0 0 0 13.982422 142.73633 A 37.796856 37.795275 0 0 0 14.384766 143.05859 A 37.796856 37.795275 0 0 0 14.814453 143.39453 A 37.796856 37.795275 0 0 0 14.931641 143.48242 A 37.796856 37.795275 0 0 0 15.205078 143.6875 A 37.796856 37.795275 0 0 0 15.621094 143.99414 A 37.796856 37.795275 0 0 0 16.042969 144.29492 A 37.796856 37.795275 0 0 0 16.466797 144.58984 A 37.796856 37.795275 0 0 0 16.896484 144.87695 A 37.796856 37.795275 0 0 0 17.257812 145.11523 A 37.796856 37.795275 0 0 0 17.480469 145.25781 A 37.796856 37.795275 0 0 0 17.917969 145.5332 A 37.796856 37.795275 0 0 0 18.205078 145.70898 A 37.796856 37.795275 0 0 0 18.648438 145.97266 A 37.796856 37.795275 0 0 0 18.650391 145.97461 A 37.796856 37.795275 0 0 0 19.097656 146.23242 A 37.796856 37.795275 0 0 0 20 146.73047 A 37.796856 37.795275 0 0 0 20.462891 146.97461 A 37.796856 37.795275 0 0 0 20.921875 147.20703 A 37.796856 37.795275 0 0 0 21.384766 147.43359 A 37.796856 37.795275 0 0 0 21.775391 147.61914 A 37.796856 37.795275 0 0 0 22.246094 147.83594 A 37.796856 37.795275 0 0 0 22.679688 148.02734 A 37.796856 37.795275 0 0 0 23.154297 148.23047 A 37.796856 37.795275 0 0 0 24.113281 148.61914 A 37.796856 37.795275 0 0 0 24.152344 148.63281 A 37.796856 37.795275 0 0 0 24.503906 148.76562 A 37.796856 37.795275 0 0 0 24.988281 148.94336 A 37.796856 37.795275 0 0 0 25.121094 148.99219 A 37.796856 37.795275 0 0 0 25.558594 149.14453 A 37.796856 37.795275 0 0 0 25.792969 149.22266 A 37.796856 37.795275 0 0 0 26.181641 149.35156 A 37.796856 37.795275 0 0 0 26.673828 149.50586 A 37.796856 37.795275 0 0 0 27.169922 149.65625 A 37.796856 37.795275 0 0 0 27.666016 149.79688 A 37.796856 37.795275 0 0 0 28.583984 150.04102 A 37.796856 37.795275 0 0 0 29.019531 150.14844 A 37.796856 37.795275 0 0 0 29.589844 150.2793 A 37.796856 37.795275 0 0 0 30.095703 150.38867 A 37.796856 37.795275 0 0 0 30.685547 150.50586 A 37.796856 37.795275 0 0 0 31.193359 150.59961 A 37.796856 37.795275 0 0 0 32.130859 150.75391 A 37.796856 37.795275 0 0 0 32.621094 150.82422 A 37.796856 37.795275 0 0 0 33.154297 150.89453 A 37.796856 37.795275 0 0 0 33.667969 150.95508 A 37.796856 37.795275 0 0 0 34.052734 150.99414 A 37.796856 37.795275 0 0 0 34.3125 151.01953 A 37.796856 37.795275 0 0 0 34.78125 151.06055 A 37.796856 37.795275 0 0 0 34.830078 151.06445 A 37.796856 37.795275 0 0 0 34.867188 151.06641 A 37.796856 37.795275 0 0 0 35.212891 151.08984 A 37.796856 37.795275 0 0 0 35.613281 151.11523 A 37.796856 37.795275 0 0 0 36.128906 151.14258 A 37.796856 37.795275 0 0 0 36.330078 151.15039 A 37.796856 37.795275 0 0 0 36.761719 151.16406 A 37.796856 37.795275 0 0 0 37.279297 151.17578 A 37.796856 37.795275 0 0 0 37.792969 151.17969 A 37.796856 37.795275 0 0 0 37.796875 151.17969 A 37.796856 37.795275 0 0 0 38.230469 151.17578 A 37.796856 37.795275 0 0 0 38.564453 151.17188 A 37.796856 37.795275 0 0 0 38.650391 151.17188 A 37.796856 37.795275 0 0 0 38.677734 151.17188 A 37.796856 37.795275 0 0 0 39.263672 151.15039 A 37.796856 37.795275 0 0 0 39.779297 151.12695 A 37.796856 37.795275 0 0 0 40.296875 151.0957 A 37.796856 37.795275 0 0 0 40.8125 151.05859 A 37.796856 37.795275 0 0 0 41.275391 151.01758 A 37.796856 37.795275 0 0 0 41.519531 150.99414 A 37.796856 37.795275 0 0 0 41.923828 150.95312 A 37.796856 37.795275 0 0 0 41.949219 150.95117 A 37.796856 37.795275 0 0 0 42.355469 150.90234 A 37.796856 37.795275 0 0 0 42.791016 150.84766 A 37.796856 37.795275 0 0 0 43.378906 150.76367 A 37.796856 37.795275 0 0 0 43.888672 150.68555 A 37.796856 37.795275 0 0 0 43.890625 150.68555 A 37.796856 37.795275 0 0 0 43.890625 150.68359 A 37.796856 37.795275 0 0 0 44.400391 150.59766 A 37.796856 37.795275 0 0 0 44.865234 150.51172 A 37.796856 37.795275 0 0 0 45.373047 150.41211 A 37.796856 37.795275 0 0 0 45.414062 150.40234 A 37.796856 37.795275 0 0 0 45.919922 150.29492 A 37.796856 37.795275 0 0 0 46.925781 150.06055 A 37.796856 37.795275 0 0 0 46.927734 150.06055 A 37.796856 37.795275 0 0 0 47.925781 149.79688 A 37.796856 37.795275 0 0 0 47.927734 149.79688 A 37.796856 37.795275 0 0 0 49.902344 149.1875 A 37.796856 37.795275 0 0 0 50.390625 149.01758 A 37.796856 37.795275 0 0 0 51.361328 148.66211 A 37.796856 37.795275 0 0 0 51.361328 148.66016 A 37.796856 37.795275 0 0 0 51.841797 148.4707 A 37.796856 37.795275 0 0 0 52.320312 148.27539 A 37.796856 37.795275 0 0 0 52.796875 148.07422 A 37.796856 37.795275 0 0 0 53.269531 147.86523 A 37.796856 37.795275 0 0 0 53.740234 147.65039 A 37.796856 37.795275 0 0 0 54.207031 147.42969 A 37.796856 37.795275 0 0 0 54.673828 147.20312 A 37.796856 37.795275 0 0 0 54.673828 147.20117 A 37.796856 37.795275 0 0 0 55.013672 147.0293 A 37.796856 37.795275 0 0 0 55.474609 146.79102 A 37.796856 37.795275 0 0 0 55.861328 146.58398 A 37.796856 37.795275 0 0 0 55.957031 146.53125 A 37.796856 37.795275 0 0 0 56.046875 146.48047 A 37.796856 37.795275 0 0 0 56.472656 146.24219 A 37.796856 37.795275 0 0 0 56.919922 145.98438 A 37.796856 37.795275 0 0 0 56.943359 145.96875 A 37.796856 37.795275 0 0 0 57.388672 145.70508 A 37.796856 37.795275 0 0 0 57.828125 145.43555 A 37.796856 37.795275 0 0 0 57.830078 145.43555 A 37.796856 37.795275 0 0 0 57.830078 145.43359 A 37.796856 37.795275 0 0 0 58.265625 145.15625 A 37.796856 37.795275 0 0 0 58.699219 144.875 A 37.796856 37.795275 0 0 0 58.699219 144.87305 A 37.796856 37.795275 0 0 0 59.126953 144.58594 A 37.796856 37.795275 0 0 0 59.431641 144.375 A 37.796856 37.795275 0 0 0 59.853516 144.07617 A 37.796856 37.795275 0 0 0 60.271484 143.77148 A 37.796856 37.795275 0 0 0 60.388672 143.68359 A 37.796856 37.795275 0 0 0 60.800781 143.37109 A 37.796856 37.795275 0 0 0 61.208984 143.05469 A 37.796856 37.795275 0 0 0 61.611328 142.73242 A 37.796856 37.795275 0 0 0 61.613281 142.73242 A 37.796856 37.795275 0 0 0 61.613281 142.73047 A 37.796856 37.795275 0 0 0 62.011719 142.40234 A 37.796856 37.795275 0 0 0 62.40625 142.06836 A 37.796856 37.795275 0 0 0 62.792969 141.73438 A 37.796856 37.795275 0 0 0 63.181641 141.38672 A 37.796856 37.795275 0 0 0 63.181641 141.38477 A 37.796856 37.795275 0 0 0 63.5625 141.03516 A 37.796856 37.795275 0 0 0 63.939453 140.68164 A 37.796856 37.795275 0 0 0 63.939453 140.67969 A 37.796856 37.795275 0 0 0 64.191406 140.43555 A 37.796856 37.795275 0 0 0 64.558594 140.07227 A 37.796856 37.795275 0 0 0 64.873047 139.75391 A 37.796856 37.795275 0 0 0 65.037109 139.58398 A 37.796856 37.795275 0 0 0 65.392578 139.20898 A 37.796856 37.795275 0 0 0 65.742188 138.83008 A 37.796856 37.795275 0 0 0 66.087891 138.44531 A 37.796856 37.795275 0 0 0 66.763672 137.66406 A 37.796856 37.795275 0 0 0 66.763672 137.66211 A 37.796856 37.795275 0 0 0 67.085938 137.27344 A 37.796856 37.795275 0 0 0 67.416016 136.86133 A 37.796856 37.795275 0 0 0 67.734375 136.45312 A 37.796856 37.795275 0 0 0 68.046875 136.04102 A 37.796856 37.795275 0 0 0 68.271484 135.74023 A 37.796856 37.795275 0 0 0 68.566406 135.33398 A 37.796856 37.795275 0 0 0 68.65625 135.20508 A 37.796856 37.795275 0 0 0 68.951172 134.78125 A 37.796856 37.795275 0 0 0 69.242188 134.35352 A 37.796856 37.795275 0 0 0 69.525391 133.92188 A 37.796856 37.795275 0 0 0 69.802734 133.48633 A 37.796856 37.795275 0 0 0 70.341797 132.60547 A 37.796856 37.795275 0 0 0 70.855469 131.70508 A 37.796856 37.795275 0 0 0 71.101562 131.25195 A 37.796856 37.795275 0 0 0 71.34375 130.79492 A 37.796856 37.795275 0 0 0 71.578125 130.33398 A 37.796856 37.795275 0 0 0 71.806641 129.87109 A 37.796856 37.795275 0 0 0 72.029297 129.4043 A 37.796856 37.795275 0 0 0 72.246094 128.93359 A 37.796856 37.795275 0 0 0 72.453125 128.46484 A 37.796856 37.795275 0 0 0 72.658203 127.98633 A 37.796856 37.795275 0 0 0 72.853516 127.50781 A 37.796856 37.795275 0 0 0 73.001953 127.13672 A 37.796856 37.795275 0 0 0 73.15625 126.73242 A 37.796856 37.795275 0 0 0 73.228516 126.54297 A 37.796856 37.795275 0 0 0 73.404297 126.05664 A 37.796856 37.795275 0 0 0 73.574219 125.57031 A 37.796856 37.795275 0 0 0 73.894531 124.58594 A 37.796856 37.795275 0 0 0 74.013672 124.19336 A 37.796856 37.795275 0 0 0 74.158203 123.69727 A 37.796856 37.795275 0 0 0 74.1875 123.59375 A 37.796856 37.795275 0 0 0 74.318359 123.11523 A 37.796856 37.795275 0 0 0 74.408203 122.77539 A 37.796856 37.795275 0 0 0 74.453125 122.5957 A 37.796856 37.795275 0 0 0 74.576172 122.09375 A 37.796856 37.795275 0 0 0 74.666016 121.69922 A 37.796856 37.795275 0 0 0 74.708984 121.50977 A 37.796856 37.795275 0 0 0 74.798828 121.08398 A 37.796856 37.795275 0 0 0 74.890625 120.63281 A 37.796856 37.795275 0 0 0 74.974609 120.18945 A 37.796856 37.795275 0 0 0 74.996094 120.06836 A 37.796856 37.795275 0 0 0 75.083984 119.56055 A 37.796856 37.795275 0 0 0 75.166016 119.04883 A 37.796856 37.795275 0 0 0 75.240234 118.53711 A 37.796856 37.795275 0 0 0 75.306641 118.02539 A 37.796856 37.795275 0 0 0 75.367188 117.51172 A 37.796856 37.795275 0 0 0 75.373047 117.46484 A 37.796841 37.795276 0 0 0 75.373047 117.46289 A 37.796841 37.795276 0 0 0 75.402344 117.16602 L 151.18164 117.16602 L 151.18164 170.07812 L 458.16992 170.07812 L 458.16992 117.16602 L 529.32422 117.16602 A 37.799294 37.795275 0 0 0 529.35938 117.51562 A 37.799294 37.795275 0 0 0 529.41992 118.0293 A 37.799294 37.795275 0 0 0 529.48633 118.54102 A 37.799294 37.795275 0 0 0 529.56055 119.05273 A 37.799294 37.795275 0 0 0 529.73047 120.07227 A 37.799294 37.795275 0 0 0 529.73047 120.07422 A 37.799294 37.795275 0 0 0 530.99023 125.08398 A 37.799294 37.795275 0 0 0 531.15234 125.57422 A 37.799294 37.795275 0 0 0 531.32227 126.0625 A 37.799294 37.795275 0 0 0 531.68359 127.03125 A 37.799294 37.795275 0 0 0 532.27539 128.4668 A 37.799294 37.795275 0 0 0 532.69922 129.4082 A 37.799294 37.795275 0 0 0 532.92188 129.875 A 37.799294 37.795275 0 0 0 533.15039 130.33789 A 37.799294 37.795275 0 0 0 533.38477 130.79688 A 37.799294 37.795275 0 0 0 533.875 131.71094 A 37.799294 37.795275 0 0 0 534.12891 132.16016 A 37.799294 37.795275 0 0 0 534.6543 133.05078 A 37.799294 37.795275 0 0 0 534.92578 133.49023 A 37.799294 37.795275 0 0 0 535.20312 133.92578 A 37.799294 37.795275 0 0 0 535.48633 134.35742 A 37.799294 37.795275 0 0 0 535.48828 134.35938 A 37.799294 37.795275 0 0 0 535.77734 134.78711 A 37.799294 37.795275 0 0 0 536.375 135.63086 A 37.799294 37.795275 0 0 0 536.68164 136.04688 A 37.799294 37.795275 0 0 0 536.99414 136.45898 A 37.799294 37.795275 0 0 0 537.3125 136.86523 A 37.799294 37.795275 0 0 0 538.64062 138.44922 A 37.799294 37.795275 0 0 0 538.98633 138.83398 A 37.799294 37.795275 0 0 0 539.33789 139.21484 A 37.799294 37.795275 0 0 0 539.69336 139.58984 A 37.799294 37.795275 0 0 0 540.05469 139.95898 A 37.799294 37.795275 0 0 0 540.41797 140.32422 A 37.799294 37.795275 0 0 0 540.79102 140.68555 A 37.799294 37.795275 0 0 0 541.16406 141.03906 A 37.799294 37.795275 0 0 0 541.54688 141.38867 A 37.799294 37.795275 0 0 0 542.7168 142.40625 A 37.799294 37.795275 0 0 0 543.11523 142.73438 A 37.799294 37.795275 0 0 0 543.11719 142.73633 A 37.799294 37.795275 0 0 0 543.51953 143.05859 A 37.799294 37.795275 0 0 0 543.94922 143.39453 A 37.799294 37.795275 0 0 0 544.06641 143.48242 A 37.799294 37.795275 0 0 0 544.33984 143.6875 A 37.799294 37.795275 0 0 0 544.75586 143.99414 A 37.799294 37.795275 0 0 0 545.17773 144.29492 A 37.799294 37.795275 0 0 0 545.60156 144.58984 A 37.799294 37.795275 0 0 0 546.03125 144.87695 A 37.799294 37.795275 0 0 0 546.39258 145.11523 A 37.799294 37.795275 0 0 0 546.61523 145.25781 A 37.799294 37.795275 0 0 0 547.05273 145.5332 A 37.799294 37.795275 0 0 0 547.33984 145.70898 A 37.799294 37.795275 0 0 0 547.7832 145.97266 A 37.799294 37.795275 0 0 0 547.78516 145.97461 A 37.799294 37.795275 0 0 0 548.23242 146.23242 A 37.799294 37.795275 0 0 0 549.13477 146.73047 A 37.799294 37.795275 0 0 0 549.59766 146.97461 A 37.799294 37.795275 0 0 0 550.05664 147.20703 A 37.799294 37.795275 0 0 0 550.51953 147.43359 A 37.799294 37.795275 0 0 0 550.91016 147.61914 A 37.799294 37.795275 0 0 0 551.38086 147.83594 A 37.799294 37.795275 0 0 0 551.81445 148.02734 A 37.799294 37.795275 0 0 0 552.28906 148.23047 A 37.799294 37.795275 0 0 0 553.24805 148.61914 A 37.799294 37.795275 0 0 0 553.28711 148.63477 A 37.799294 37.795275 0 0 0 553.63867 148.76758 A 37.799294 37.795275 0 0 0 554.12305 148.94531 A 37.799294 37.795275 0 0 0 554.25586 148.99414 A 37.799294 37.795275 0 0 0 554.69336 149.14648 A 37.799294 37.795275 0 0 0 554.92773 149.22461 A 37.799294 37.795275 0 0 0 555.31641 149.35352 A 37.799294 37.795275 0 0 0 555.80859 149.50781 A 37.799294 37.795275 0 0 0 556.30469 149.65625 A 37.799294 37.795275 0 0 0 556.80078 149.79883 A 37.799294 37.795275 0 0 0 557.71875 150.04102 A 37.799294 37.795275 0 0 0 558.1543 150.14844 A 37.799294 37.795275 0 0 0 558.72461 150.2793 A 37.799294 37.795275 0 0 0 559.23047 150.38867 A 37.799294 37.795275 0 0 0 559.82031 150.50586 A 37.799294 37.795275 0 0 0 560.32812 150.59961 A 37.799294 37.795275 0 0 0 561.26562 150.75391 A 37.799294 37.795275 0 0 0 561.75586 150.82422 A 37.799294 37.795275 0 0 0 562.28906 150.89453 A 37.799294 37.795275 0 0 0 562.80273 150.95508 A 37.799294 37.795275 0 0 0 563.1875 150.99414 A 37.799294 37.795275 0 0 0 563.44727 151.01953 A 37.799294 37.795275 0 0 0 563.91602 151.06055 A 37.799294 37.795275 0 0 0 563.96484 151.06641 A 37.799294 37.795275 0 0 0 564.00391 151.06836 A 37.799294 37.795275 0 0 0 564.34961 151.0918 A 37.799294 37.795275 0 0 0 564.75 151.11719 A 37.799294 37.795275 0 0 0 565.26562 151.14453 A 37.799294 37.795275 0 0 0 565.4668 151.15234 A 37.799294 37.795275 0 0 0 565.89844 151.16602 A 37.799294 37.795275 0 0 0 566.41602 151.17773 A 37.799294 37.795275 0 0 0 566.92969 151.18164 A 37.799294 37.795275 0 0 0 566.93359 151.18164 A 37.799294 37.795275 0 0 0 567.36719 151.17773 A 37.799294 37.795275 0 0 0 567.70117 151.17188 A 37.799294 37.795275 0 0 0 567.78711 151.17188 A 37.799294 37.795275 0 0 0 567.8125 151.17188 A 37.799294 37.795275 0 0 0 568.39844 151.15039 A 37.799294 37.795275 0 0 0 568.91406 151.12695 A 37.799294 37.795275 0 0 0 569.43164 151.0957 A 37.799294 37.795275 0 0 0 569.94727 151.05859 A 37.799294 37.795275 0 0 0 570.41016 151.01758 A 37.799294 37.795275 0 0 0 570.6543 150.99414 A 37.799294 37.795275 0 0 0 571.05859 150.95312 A 37.799294 37.795275 0 0 0 571.08594 150.95117 A 37.799294 37.795275 0 0 0 571.49219 150.90234 A 37.799294 37.795275 0 0 0 571.92773 150.84766 A 37.799294 37.795275 0 0 0 572.51562 150.76367 A 37.799294 37.795275 0 0 0 573.02539 150.68555 A 37.799294 37.795275 0 0 0 573.02734 150.68555 A 37.799294 37.795275 0 0 0 573.02734 150.68359 A 37.799294 37.795275 0 0 0 573.53711 150.59766 A 37.799294 37.795275 0 0 0 574.00195 150.51172 A 37.799294 37.795275 0 0 0 574.50977 150.41211 A 37.799294 37.795275 0 0 0 574.55078 150.40234 A 37.799294 37.795275 0 0 0 575.05664 150.29492 A 37.799294 37.795275 0 0 0 576.0625 150.06055 A 37.799294 37.795275 0 0 0 576.06445 150.06055 A 37.799294 37.795275 0 0 0 577.0625 149.79688 A 37.799294 37.795275 0 0 0 577.06445 149.79688 A 37.799294 37.795275 0 0 0 579.04102 149.1875 A 37.799294 37.795275 0 0 0 579.5293 149.01758 A 37.799294 37.795275 0 0 0 580.5 148.66211 A 37.799294 37.795275 0 0 0 580.5 148.66016 A 37.799294 37.795275 0 0 0 580.98047 148.4707 A 37.799294 37.795275 0 0 0 581.45898 148.27539 A 37.799294 37.795275 0 0 0 581.93555 148.07422 A 37.799294 37.795275 0 0 0 582.4082 147.86523 A 37.799294 37.795275 0 0 0 582.87891 147.65039 A 37.799294 37.795275 0 0 0 583.3457 147.42969 A 37.799294 37.795275 0 0 0 583.81055 147.20312 A 37.799294 37.795275 0 0 0 583.81055 147.20117 A 37.799294 37.795275 0 0 0 584.15234 147.0293 A 37.799294 37.795275 0 0 0 584.61133 146.79102 A 37.799294 37.795275 0 0 0 584.99805 146.58398 A 37.799294 37.795275 0 0 0 585.09375 146.53125 A 37.799294 37.795275 0 0 0 585.18359 146.48047 A 37.799294 37.795275 0 0 0 585.60938 146.24219 A 37.799294 37.795275 0 0 0 586.05664 145.98438 A 37.799294 37.795275 0 0 0 586.08203 145.96875 A 37.799294 37.795275 0 0 0 586.52539 145.70508 A 37.799294 37.795275 0 0 0 586.96484 145.43555 A 37.799294 37.795275 0 0 0 586.9668 145.43555 A 37.799294 37.795275 0 0 0 586.9668 145.43359 A 37.799294 37.795275 0 0 0 587.40234 145.15625 A 37.799294 37.795275 0 0 0 587.83789 144.875 A 37.799294 37.795275 0 0 0 587.83789 144.87305 A 37.799294 37.795275 0 0 0 588.26562 144.58594 A 37.799294 37.795275 0 0 0 588.57031 144.375 A 37.799294 37.795275 0 0 0 588.99219 144.07617 A 37.799294 37.795275 0 0 0 589.41016 143.77148 A 37.799294 37.795275 0 0 0 589.52734 143.68359 A 37.799294 37.795275 0 0 0 589.93945 143.37109 A 37.799294 37.795275 0 0 0 590.34766 143.05469 A 37.799294 37.795275 0 0 0 590.75 142.73242 A 37.799294 37.795275 0 0 0 590.75195 142.73242 A 37.799294 37.795275 0 0 0 590.75195 142.73047 A 37.799294 37.795275 0 0 0 591.15039 142.40234 A 37.799294 37.795275 0 0 0 591.54492 142.06836 A 37.799294 37.795275 0 0 0 591.93164 141.73438 A 37.799294 37.795275 0 0 0 592.32031 141.38672 A 37.799294 37.795275 0 0 0 592.32031 141.38477 A 37.799294 37.795275 0 0 0 592.70117 141.03516 A 37.799294 37.795275 0 0 0 593.07812 140.68164 A 37.799294 37.795275 0 0 0 593.07812 140.67969 A 37.799294 37.795275 0 0 0 593.33008 140.43555 A 37.799294 37.795275 0 0 0 593.69727 140.07227 A 37.799294 37.795275 0 0 0 594.01172 139.75391 A 37.799294 37.795275 0 0 0 594.17578 139.58398 A 37.799294 37.795275 0 0 0 594.53125 139.20898 A 37.799294 37.795275 0 0 0 594.88086 138.83008 A 37.799294 37.795275 0 0 0 595.22656 138.44531 A 37.799294 37.795275 0 0 0 595.90234 137.66406 A 37.799294 37.795275 0 0 0 595.90234 137.66211 A 37.799294 37.795275 0 0 0 596.22461 137.27344 A 37.799294 37.795275 0 0 0 596.55469 136.86133 A 37.799294 37.795275 0 0 0 596.87305 136.45312 A 37.799294 37.795275 0 0 0 597.18555 136.04102 A 37.799294 37.795275 0 0 0 597.41016 135.74023 A 37.799294 37.795275 0 0 0 597.70312 135.33398 A 37.799294 37.795275 0 0 0 597.79492 135.20508 A 37.799294 37.795275 0 0 0 598.08789 134.78125 A 37.799294 37.795275 0 0 0 598.37891 134.35352 A 37.799294 37.795275 0 0 0 598.66211 133.92188 A 37.799294 37.795275 0 0 0 598.93945 133.48633 A 37.799294 37.795275 0 0 0 599.47852 132.60547 A 37.799294 37.795275 0 0 0 599.99414 131.70508 A 37.799294 37.795275 0 0 0 600.24023 131.25195 A 37.799294 37.795275 0 0 0 600.48242 130.79492 A 37.799294 37.795275 0 0 0 600.7168 130.33398 A 37.799294 37.795275 0 0 0 600.94531 129.87109 A 37.799294 37.795275 0 0 0 601.16797 129.4043 A 37.799294 37.795275 0 0 0 601.38477 128.93359 A 37.799294 37.795275 0 0 0 601.5918 128.46484 A 37.799294 37.795275 0 0 0 601.79688 127.98633 A 37.799294 37.795275 0 0 0 601.99219 127.50781 A 37.799294 37.795275 0 0 0 602.14062 127.13672 A 37.799294 37.795275 0 0 0 602.29492 126.73242 A 37.799294 37.795275 0 0 0 602.36719 126.54297 A 37.799294 37.795275 0 0 0 602.54297 126.05664 A 37.799294 37.795275 0 0 0 602.71289 125.57031 A 37.799294 37.795275 0 0 0 603.0332 124.58594 A 37.799294 37.795275 0 0 0 603.15234 124.19336 A 37.799294 37.795275 0 0 0 603.29492 123.69727 A 37.799294 37.795275 0 0 0 603.32617 123.59375 A 37.799294 37.795275 0 0 0 603.45703 123.11523 A 37.799294 37.795275 0 0 0 603.54688 122.77539 A 37.799294 37.795275 0 0 0 603.5918 122.5957 A 37.799294 37.795275 0 0 0 603.71484 122.09375 A 37.799294 37.795275 0 0 0 603.80469 121.69922 A 37.799294 37.795275 0 0 0 603.84766 121.50977 A 37.799294 37.795275 0 0 0 603.9375 121.08398 A 37.799294 37.795275 0 0 0 604.0293 120.63281 A 37.799294 37.795275 0 0 0 604.11328 120.18945 A 37.799294 37.795275 0 0 0 604.13672 120.06836 A 37.799294 37.795275 0 0 0 604.22461 119.56055 A 37.799294 37.795275 0 0 0 604.30664 119.04883 A 37.799294 37.795275 0 0 0 604.38086 118.53711 A 37.799294 37.795275 0 0 0 604.44727 118.02539 A 37.799294 37.795275 0 0 0 604.50781 117.51172 A 37.799294 37.795275 0 0 0 604.51562 117.46289 L 604.50391 117.46484 A 37.799279 37.795276 0 0 0 604.55078 117.00195 A 37.799279 37.795276 0 0 0 604.5957 116.48633 A 37.799279 37.795276 0 0 0 604.63477 115.9707 A 37.799279 37.795276 0 0 0 604.66602 115.45508 A 37.799279 37.795276 0 0 0 604.69141 114.9375 A 37.799279 37.795276 0 0 0 604.71094 114.42188 A 37.799279 37.795276 0 0 0 604.72266 113.9043 A 37.799279 37.795276 0 0 0 604.72461 113.38867 A 37.799279 37.795276 0 0 0 604.72266 112.95312 A 37.799279 37.795276 0 0 0 604.71094 112.43555 A 37.799279 37.795276 0 0 0 604.69531 111.91992 A 37.799279 37.795276 0 0 0 604.67383 111.40234 A 37.799279 37.795276 0 0 0 604.64258 110.88672 A 37.799279 37.795276 0 0 0 604.60547 110.37109 A 37.799279 37.795276 0 0 0 604.56055 109.85742 A 37.799279 37.795276 0 0 0 604.5332 109.60742 A 37.799294 37.795275 0 0 0 604.50781 109.3418 A 37.799294 37.795275 0 0 0 604.44922 108.82812 A 37.799294 37.795275 0 0 0 604.38281 108.31641 A 37.799294 37.795275 0 0 0 604.31445 107.83008 A 37.799294 37.795275 0 0 0 604.30664 107.7793 A 37.799294 37.795275 0 0 0 604.23047 107.29297 A 37.799294 37.795275 0 0 0 604.14453 106.7832 A 37.799294 37.795275 0 0 0 604.05078 106.27539 A 37.799294 37.795275 0 0 0 603.94922 105.76758 A 37.799294 37.795275 0 0 0 603.8418 105.26172 A 37.799294 37.795275 0 0 0 603.72656 104.75781 A 37.799294 37.795275 0 0 0 603.61328 104.28711 A 37.799294 37.795275 0 0 0 603.59766 104.22852 A 37.799294 37.795275 0 0 0 603.47656 103.75586 A 37.799294 37.795275 0 0 0 603.3418 103.25586 A 37.799294 37.795275 0 0 0 603.19922 102.75977 A 37.799294 37.795275 0 0 0 603.05078 102.26367 A 37.799294 37.795275 0 0 0 602.89648 101.77148 A 37.799294 37.795275 0 0 0 602.73633 101.28516 A 37.799294 37.795275 0 0 0 602.73242 101.27344 A 37.799294 37.795275 0 0 0 602.56445 100.79102 A 37.799294 37.795275 0 0 0 602.38867 100.30469 A 37.799294 37.795275 0 0 0 602.20703 99.822266 A 37.799294 37.795275 0 0 0 602.01758 99.339844 A 37.799294 37.795275 0 0 0 601.82227 98.861328 A 37.799294 37.795275 0 0 0 601.62305 98.388672 A 37.799294 37.795275 0 0 0 601.61914 98.384766 A 37.799294 37.795275 0 0 0 601.41406 97.916016 A 37.799294 37.795275 0 0 0 601.41016 97.908203 A 37.799294 37.795275 0 0 0 601.19727 97.443359 A 37.799294 37.795275 0 0 0 600.92578 96.871094 A 37.799294 37.795275 0 0 0 600.74805 96.511719 A 37.799294 37.795275 0 0 0 600.51367 96.050781 A 37.799294 37.795275 0 0 0 600.27344 95.591797 A 37.799294 37.795275 0 0 0 600.02734 95.138672 A 37.799294 37.795275 0 0 0 599.77539 94.6875 A 37.799294 37.795275 0 0 0 599.51562 94.240234 A 37.799294 37.795275 0 0 0 599.25 93.794922 A 37.799294 37.795275 0 0 0 598.98242 93.357422 A 37.799294 37.795275 0 0 0 598.70312 92.919922 A 37.799294 37.795275 0 0 0 598.41992 92.486328 A 37.799294 37.795275 0 0 0 598.13086 92.058594 A 37.799294 37.795275 0 0 0 597.83594 91.632812 A 37.799294 37.795275 0 0 0 597.53516 91.212891 A 37.799294 37.795275 0 0 0 597.23047 90.794922 A 37.799294 37.795275 0 0 0 596.91797 90.382812 A 37.799294 37.795275 0 0 0 596.61914 89.998047 A 37.799294 37.795275 0 0 0 596.58984 89.957031 A 37.799294 37.795275 0 0 0 596.2793 89.572266 A 37.799294 37.795275 0 0 0 595.95117 89.171875 A 37.799294 37.795275 0 0 0 595.61523 88.777344 A 37.799294 37.795275 0 0 0 595.27734 88.388672 A 37.799294 37.795275 0 0 0 594.98828 88.066406 A 37.799294 37.795275 0 0 0 594.51562 87.552734 A 37.799294 37.795275 0 0 0 594.22656 87.246094 A 37.799294 37.795275 0 0 0 593.91992 86.929688 A 37.799294 37.795275 0 0 0 593.49805 86.505859 A 37.799294 37.795275 0 0 0 593.13281 86.148438 A 37.799294 37.795275 0 0 0 592.75781 85.792969 A 37.799294 37.795275 0 0 0 592.37891 85.441406 A 37.799294 37.795275 0 0 0 592.03711 85.134766 A 37.799294 37.795275 0 0 0 591.59766 84.751953 A 37.799294 37.795275 0 0 0 591.2207 84.429688 A 37.799294 37.795275 0 0 0 590.79883 84.080078 A 37.799294 37.795275 0 0 0 590.4082 83.767578 A 37.799294 37.795275 0 0 0 590.00195 83.449219 A 37.799294 37.795275 0 0 0 589.5918 83.138672 A 37.799294 37.795275 0 0 0 589.16016 82.820312 A 37.799294 37.795275 0 0 0 588.75391 82.529297 A 37.799294 37.795275 0 0 0 588.36914 82.259766 A 37.799294 37.795275 0 0 0 588.28906 82.205078 A 37.799294 37.795275 0 0 0 587.90039 81.943359 A 37.799294 37.795275 0 0 0 587.46875 81.660156 A 37.799294 37.795275 0 0 0 587.03125 81.380859 A 37.799294 37.795275 0 0 0 586.5918 81.109375 A 37.799294 37.795275 0 0 0 586.14844 80.84375 A 37.799294 37.795275 0 0 0 585.70117 80.583984 A 37.799294 37.795275 0 0 0 585.25195 80.330078 A 37.799294 37.795275 0 0 0 584.79688 80.082031 A 37.799294 37.795275 0 0 0 584.33984 79.841797 A 37.799279 37.795276 0 0 0 583.88086 79.607422 A 37.799279 37.795276 0 0 0 583.44922 79.392578 A 37.799294 37.795275 0 0 0 583.43359 79.386719 A 37.799294 37.795275 0 0 0 583.40039 79.369141 A 37.799294 37.795275 0 0 0 582.94922 79.15625 A 37.799294 37.795275 0 0 0 582.48047 78.939453 A 37.799294 37.795275 0 0 0 582 78.726562 A 37.799294 37.795275 0 0 0 581.53125 78.527344 A 37.799294 37.795275 0 0 0 580.57227 78.140625 A 37.799294 37.795275 0 0 0 580.11914 77.96875 A 37.799294 37.795275 0 0 0 580.06055 77.945312 A 37.799294 37.795275 0 0 0 579.60352 77.78125 A 37.799294 37.795275 0 0 0 579.11523 77.611328 A 37.799294 37.795275 0 0 0 578.70312 77.472656 A 37.799294 37.795275 0 0 0 578.55469 77.425781 A 37.799279 37.795276 0 0 0 578.13281 77.291016 A 37.799294 37.795275 0 0 0 578.11328 77.285156 A 37.799294 37.795275 0 0 0 577.64258 77.142578 A 37.799294 37.795275 0 0 0 577.63086 77.138672 A 37.799294 37.795275 0 0 0 577.14062 76.998047 A 37.799294 37.795275 0 0 0 576.64258 76.861328 A 37.799294 37.795275 0 0 0 576.14258 76.732422 A 37.799294 37.795275 0 0 0 575.69336 76.623047 A 37.799294 37.795275 0 0 0 575.5957 76.599609 A 37.799294 37.795275 0 0 0 575.13477 76.494141 A 37.799294 37.795275 0 0 0 574.64453 76.388672 A 37.799294 37.795275 0 0 0 574.61914 76.382812 A 37.799294 37.795275 0 0 0 574.13477 76.285156 A 37.799294 37.795275 0 0 0 573.76953 76.216797 A 37.799294 37.795275 0 0 0 573.47852 76.164062 A 37.799294 37.795275 0 0 0 573.25781 76.125 A 37.799294 37.795275 0 0 0 572.95703 76.076172 A 37.799294 37.795275 0 0 0 572.53711 76.011719 A 37.799294 37.795275 0 0 0 572.16406 75.957031 A 37.799294 37.795275 0 0 0 572.00977 75.935547 A 37.799294 37.795275 0 0 0 571.57227 75.878906 A 37.799294 37.795275 0 0 0 571.05859 75.818359 A 37.799294 37.795275 0 0 0 570.54492 75.765625 A 37.799294 37.795275 0 0 0 570.17383 75.732422 A 37.799294 37.795275 0 0 0 569.92969 75.710938 A 37.799294 37.795275 0 0 0 569.51367 75.681641 A 37.799294 37.795275 0 0 0 569.04492 75.652344 A 37.799294 37.795275 0 0 0 568.96289 75.644531 A 37.799294 37.795275 0 0 0 568.48047 75.623047 A 37.799294 37.795275 0 0 0 567.96289 75.605469 A 37.799294 37.795275 0 0 0 567.44727 75.59375 A 37.799294 37.795275 0 0 0 566.93164 75.589844 A 37.799294 37.795275 0 0 0 566.92188 75.589844 A 37.799294 37.795275 0 0 0 566.49609 75.59375 A 37.799294 37.795275 0 0 0 566.0918 75.599609 A 37.799294 37.795275 0 0 0 566.07031 75.599609 A 37.799294 37.795275 0 0 0 565.8418 75.605469 A 37.799279 37.795276 0 0 0 565.46094 75.619141 A 37.799294 37.795275 0 0 0 564.94531 75.642578 A 37.799294 37.795275 0 0 0 564.42969 75.675781 A 37.799294 37.795275 0 0 0 563.91406 75.710938 A 37.799294 37.795275 0 0 0 563.53906 75.746094 A 37.799294 37.795275 0 0 0 563.18164 75.779297 A 37.799279 37.795276 0 0 0 562.88477 75.810547 A 37.799294 37.795275 0 0 0 562.36914 75.869141 A 37.799294 37.795275 0 0 0 561.99609 75.916016 A 37.799294 37.795275 0 0 0 561.62695 75.966797 A 37.799294 37.795275 0 0 0 561.34375 76.007812 A 37.799279 37.795276 0 0 0 560.83398 76.087891 A 37.799294 37.795275 0 0 0 560.32422 76.173828 A 37.799294 37.795275 0 0 0 558.72461 76.494141 A 37.799294 37.795275 0 0 0 558.2207 76.609375 A 37.799294 37.795275 0 0 0 557.66016 76.748047 A 37.799294 37.795275 0 0 0 557.2168 76.861328 A 37.799294 37.795275 0 0 0 556.60547 77.03125 A 37.799294 37.795275 0 0 0 556.22266 77.140625 A 37.799294 37.795275 0 0 0 555.72656 77.291016 A 37.799294 37.795275 0 0 0 555.23438 77.447266 A 37.799294 37.795275 0 0 0 554.74414 77.611328 A 37.799294 37.795275 0 0 0 554.33203 77.753906 A 37.799294 37.795275 0 0 0 553.8457 77.929688 A 37.799294 37.795275 0 0 0 552.30859 78.535156 A 37.799294 37.795275 0 0 0 552.21094 78.576172 A 37.799294 37.795275 0 0 0 551.85156 78.730469 A 37.799294 37.795275 0 0 0 550.98242 79.121094 A 37.799279 37.795276 0 0 0 550.51562 79.341797 A 37.799294 37.795275 0 0 0 549.94531 79.623047 A 37.799294 37.795275 0 0 0 549.37305 79.916016 A 37.799294 37.795275 0 0 0 549.0625 80.082031 A 37.799294 37.795275 0 0 0 548.60938 80.330078 A 37.799294 37.795275 0 0 0 548.22852 80.542969 A 37.799279 37.795276 0 0 0 547.92578 80.716797 A 37.799294 37.795275 0 0 0 547.71094 80.84375 A 37.799294 37.795275 0 0 0 547.26758 81.109375 A 37.799294 37.795275 0 0 0 545.04883 82.570312 A 37.799294 37.795275 0 0 0 544.6875 82.830078 A 37.799294 37.795275 0 0 0 543.72656 83.552734 A 37.799294 37.795275 0 0 0 543.45312 83.767578 A 37.799294 37.795275 0 0 0 543.05078 84.091797 A 37.799294 37.795275 0 0 0 542.65234 84.421875 A 37.799294 37.795275 0 0 0 542.25781 84.755859 A 37.799294 37.795275 0 0 0 541.48438 85.441406 A 37.799294 37.795275 0 0 0 541.10547 85.791016 A 37.799294 37.795275 0 0 0 541.10352 85.792969 A 37.799294 37.795275 0 0 0 540.71875 86.158203 A 37.799294 37.795275 0 0 0 539.98438 86.884766 A 37.799294 37.795275 0 0 0 539.68945 87.1875 A 37.799294 37.795275 0 0 0 539.56055 87.322266 A 37.799294 37.795275 0 0 0 539.52539 87.361328 A 37.799294 37.795275 0 0 0 539.2793 87.621094 A 37.799294 37.795275 0 0 0 538.24414 88.777344 A 37.799294 37.795275 0 0 0 537.91016 89.171875 A 37.799294 37.795275 0 0 0 537.58203 89.572266 A 37.799294 37.795275 0 0 0 537.25977 89.974609 A 37.799294 37.795275 0 0 0 536.28711 91.261719 A 37.799294 37.795275 0 0 0 536.22461 91.349609 A 37.799294 37.795275 0 0 0 536.02344 91.632812 A 37.799294 37.795275 0 0 0 535.43945 92.486328 A 37.799294 37.795275 0 0 0 535.15625 92.917969 A 37.799294 37.795275 0 0 0 534.81641 93.457031 A 37.799294 37.795275 0 0 0 534.60938 93.794922 A 37.799294 37.795275 0 0 0 534.34375 94.240234 A 37.799294 37.795275 0 0 0 533.83203 95.138672 A 37.799294 37.795275 0 0 0 533.58594 95.591797 A 37.799294 37.795275 0 0 0 533.11133 96.509766 A 37.799294 37.795275 0 0 0 532.88281 96.974609 A 37.799294 37.795275 0 0 0 532.66211 97.441406 A 37.799294 37.795275 0 0 0 532.44336 97.921875 A 37.799294 37.795275 0 0 0 532.23438 98.394531 A 37.799294 37.795275 0 0 0 532.06836 98.785156 A 37.799294 37.795275 0 0 0 532.03906 98.861328 A 37.799294 37.795275 0 0 0 531.84375 99.339844 A 37.799294 37.795275 0 0 0 531.4707 100.30469 A 37.799294 37.795275 0 0 0 531.29688 100.79102 A 37.799294 37.795275 0 0 0 530.9668 101.76953 A 37.799294 37.795275 0 0 0 530.81055 102.26367 A 37.799294 37.795275 0 0 0 530.66211 102.75781 A 37.799294 37.795275 0 0 0 530.51758 103.26562 A 37.799294 37.795275 0 0 0 530.38477 103.75391 A 37.799294 37.795275 0 0 0 530.25586 104.25586 A 37.799294 37.795275 0 0 0 530.13477 104.75781 A 37.799294 37.795275 0 0 0 530.00586 105.33008 A 37.799294 37.795275 0 0 0 529.91211 105.76758 A 37.799294 37.795275 0 0 0 529.7168 106.7832 A 37.799294 37.795275 0 0 0 529.63086 107.29297 A 37.799294 37.795275 0 0 0 529.54688 107.82617 A 37.799294 37.795275 0 0 0 529.47461 108.33789 A 37.799294 37.795275 0 0 0 529.35352 109.3418 A 37.799294 37.795275 0 0 0 529.32617 109.60547 L 458.16992 109.60547 L 458.16992 56.693359 L 151.18164 56.693359 z M 37.794922 81.259766 A 32.125985 32.125985 0 0 1 69.921875 113.38672 A 32.125985 32.125985 0 0 1 37.794922 145.51172 A 32.125985 32.125985 0 0 1 5.6699219 113.38672 A 32.125985 32.125985 0 0 1 37.794922 81.259766 z M 566.92969 81.259766 A 32.125985 32.125985 0 0 1 599.05469 113.38672 A 32.125985 32.125985 0 0 1 566.92969 145.51172 A 32.125985 32.125985 0 0 1 534.80273 113.38672 A 32.125985 32.125985 0 0 1 566.92969 81.259766 z "
       transform="scale(0.26458333)" />
    <circle
       style="fill:none;stroke-width:0.276298"
       id="path14"
       cx="10"
       cy="30"
       r="8.5" />
    <circle
       style="fill:none;stroke-width:0.276298"
       id="circle16"
       cx="150"
       cy="30"
       r="8.5" />
  </g>
</svg>
